<svg id="visual" viewBox="0 0 1024 600" width="1024" height="600" xmlns="http://www.w3.org/2000/svg" xmlns:xlink="http://www.w3.org/1999/xlink" version="1.1"><path d="M798 600L716 600L716 557L726 557L726 514L931 514L931 471L675 471L675 429L808 429L808 386L726 386L726 343L787 343L787 300L685 300L685 257L716 257L716 214L777 214L777 171L869 171L869 129L757 129L757 86L767 86L767 43L757 43L757 0L1024 0L1024 43L1024 43L1024 86L1024 86L1024 129L1024 129L1024 171L1024 171L1024 214L1024 214L1024 257L1024 257L1024 300L1024 300L1024 343L1024 343L1024 386L1024 386L1024 429L1024 429L1024 471L1024 471L1024 514L1024 514L1024 557L1024 557L1024 600L1024 600Z" fill="#fa7268"></path><path d="M726 600L654 600L654 557L654 557L654 514L890 514L890 471L654 471L654 429L787 429L787 386L675 386L675 343L747 343L747 300L644 300L644 257L634 257L634 214L716 214L716 171L808 171L808 129L685 129L685 86L706 86L706 43L675 43L675 0L758 0L758 43L768 43L768 86L758 86L758 129L870 129L870 171L778 171L778 214L717 214L717 257L686 257L686 300L788 300L788 343L727 343L727 386L809 386L809 429L676 429L676 471L932 471L932 514L727 514L727 557L717 557L717 600L799 600Z" fill="#f26867"></path><path d="M603 600L511 600L511 557L491 557L491 514L767 514L767 471L603 471L603 429L654 429L654 386L552 386L552 343L583 343L583 300L572 300L572 257L470 257L470 214L583 214L583 171L675 171L675 129L583 129L583 86L542 86L542 43L634 43L634 0L676 0L676 43L707 43L707 86L686 86L686 129L809 129L809 171L717 171L717 214L635 214L635 257L645 257L645 300L748 300L748 343L676 343L676 386L788 386L788 429L655 429L655 471L891 471L891 514L655 514L655 557L655 557L655 600L727 600Z" fill="#ea5e66"></path><path d="M419 600L439 600L439 557L378 557L378 514L480 514L480 471L501 471L501 429L388 429L388 386L337 386L337 343L388 343L388 300L450 300L450 257L388 257L388 214L296 214L296 171L429 171L429 129L388 129L388 86L368 86L368 43L562 43L562 0L635 0L635 43L543 43L543 86L584 86L584 129L676 129L676 171L584 171L584 214L471 214L471 257L573 257L573 300L584 300L584 343L553 343L553 386L655 386L655 429L604 429L604 471L768 471L768 514L492 514L492 557L512 557L512 600L604 600Z" fill="#e15465"></path><path d="M347 600L265 600L265 557L214 557L214 514L245 514L245 471L265 471L265 429L265 429L265 386L275 386L275 343L296 343L296 300L275 300L275 257L265 257L265 214L204 214L204 171L306 171L306 129L265 129L265 86L306 86L306 43L378 43L378 0L563 0L563 43L369 43L369 86L389 86L389 129L430 129L430 171L297 171L297 214L389 214L389 257L451 257L451 300L389 300L389 343L338 343L338 386L389 386L389 429L502 429L502 471L481 471L481 514L379 514L379 557L440 557L440 600L420 600Z" fill="#d84a64"></path><path d="M316 600L194 600L194 557L194 557L194 514L204 514L204 471L163 471L163 429L194 429L194 386L235 386L235 343L214 343L214 300L194 300L194 257L204 257L204 214L153 214L153 171L265 171L265 129L204 129L204 86L265 86L265 43L296 43L296 0L379 0L379 43L307 43L307 86L266 86L266 129L307 129L307 171L205 171L205 214L266 214L266 257L276 257L276 300L297 300L297 343L276 343L276 386L266 386L266 429L266 429L266 471L246 471L246 514L215 514L215 557L266 557L266 600L348 600Z" fill="#ce4063"></path><path d="M194 600L132 600L132 557L142 557L142 514L81 514L81 471L132 471L132 429L153 429L153 386L163 386L163 343L81 343L81 300L153 300L153 257L142 257L142 214L91 214L91 171L163 171L163 129L112 129L112 86L132 86L132 43L183 43L183 0L297 0L297 43L266 43L266 86L205 86L205 129L266 129L266 171L154 171L154 214L205 214L205 257L195 257L195 300L215 300L215 343L236 343L236 386L195 386L195 429L164 429L164 471L205 471L205 514L195 514L195 557L195 557L195 600L317 600Z" fill="#c53762"></path><path d="M101 600L40 600L40 557L30 557L30 514L40 514L40 471L101 471L101 429L91 429L91 386L60 386L60 343L30 343L30 300L122 300L122 257L91 257L91 214L71 214L71 171L112 171L112 129L71 129L71 86L71 86L71 43L101 43L101 0L184 0L184 43L133 43L133 86L113 86L113 129L164 129L164 171L92 171L92 214L143 214L143 257L154 257L154 300L82 300L82 343L164 343L164 386L154 386L154 429L133 429L133 471L82 471L82 514L143 514L143 557L133 557L133 600L195 600Z" fill="#ba2d60"></path><path d="M0 600L0 600L0 557L0 557L0 514L0 514L0 471L0 471L0 429L0 429L0 386L0 386L0 343L0 343L0 300L0 300L0 257L0 257L0 214L0 214L0 171L0 171L0 129L0 129L0 86L0 86L0 43L0 43L0 0L102 0L102 43L72 43L72 86L72 86L72 129L113 129L113 171L72 171L72 214L92 214L92 257L123 257L123 300L31 300L31 343L61 343L61 386L92 386L92 429L102 429L102 471L41 471L41 514L31 514L31 557L41 557L41 600L102 600Z" fill="#b0235f"></path></svg>