<?xml version="1.0" encoding="UTF-8" standalone="no"?><!DOCTYPE svg PUBLIC "-//W3C//DTD SVG 1.1//EN" "http://www.w3.org/Graphics/SVG/1.1/DTD/svg11.dtd"><svg width="100%" height="100%" viewBox="0 0 3172 3160" version="1.1" xmlns="http://www.w3.org/2000/svg" xmlns:xlink="http://www.w3.org/1999/xlink" xml:space="preserve" xmlns:serif="http://www.serif.com/" style="fill-rule:evenodd;clip-rule:evenodd;stroke-linejoin:round;stroke-miterlimit:2;"><path d="M698.918,879.525c-43.685,6.64 -87.386,6.754 -131.12,0.358c-176.643,-25.928 -295.605,-98.177 -374.365,-173.487c-36.979,220.655 -42.399,430.095 0,622.559c78.793,-75.391 197.998,-147.738 374.984,-173.568c43.522,-6.331 87.012,-6.185 130.485,0.44c63.07,9.586 156.038,32.65 238.932,88.151c1.856,1.204 3.841,2.148 5.941,2.816c2.1,0.667 4.264,1.058 6.478,1.139c2.213,0.081 4.394,-0.114 6.543,-0.619c2.148,-0.504 4.199,-1.285 6.136,-2.343c1.953,-1.058 3.711,-2.344 5.306,-3.89c1.595,-1.53 2.946,-3.255 4.085,-5.143c1.123,-1.905 1.97,-3.923 2.556,-6.055c0.585,-2.132 0.862,-4.313 0.862,-6.527l0,-411.409c0,-2.214 -0.293,-4.395 -0.879,-6.527c-0.586,-2.149 -1.448,-4.167 -2.588,-6.071c-1.123,-1.904 -2.49,-3.613 -4.101,-5.16c-1.595,-1.529 -3.369,-2.815 -5.322,-3.873c-1.954,-1.042 -4.021,-1.823 -6.185,-2.311c-2.149,-0.489 -4.346,-0.684 -6.56,-0.586c-2.213,0.097 -4.378,0.504 -6.477,1.188c-2.116,0.683 -4.086,1.644 -5.941,2.864c-82.878,55.404 -175.749,78.467 -238.77,88.054Z" style="fill:#7e90be;fill-rule:nonzero;"/><path d="M193.515,706.315c-47.478,-45.296 -86.133,-97.152 -115.983,-155.599c-0.977,-1.872 -2.198,-3.548 -3.695,-5.045c-1.514,-1.498 -3.19,-2.719 -5.078,-3.679c-1.888,-0.96 -3.874,-1.611 -5.957,-1.953c-2.084,-0.342 -4.167,-0.358 -6.267,-0.032c-2.083,0.309 -4.069,0.927 -5.973,1.871c-1.888,0.944 -3.597,2.149 -5.111,3.614c-1.513,1.481 -2.766,3.141 -3.759,5.013c-0.993,1.855 -1.693,3.824 -2.067,5.908c-53.044,297.249 -52.832,604.248 0.634,920.996c0.342,2.099 1.01,4.085 1.986,5.973c0.977,1.888 2.214,3.565 3.727,5.062c1.498,1.497 3.207,2.718 5.095,3.678c1.904,0.961 3.89,1.612 5.989,1.937c2.1,0.326 4.2,0.342 6.283,0c2.099,-0.325 4.101,-0.96 5.989,-1.92c1.905,-0.961 3.597,-2.181 5.111,-3.679c1.514,-1.481 2.751,-3.174 3.727,-5.062c29.769,-57.926 68.229,-109.375 115.349,-154.345c-9.896,-51.302 -17.318,-102.963 -22.282,-154.981c-4.964,-52.018 -7.455,-104.134 -7.455,-156.396c0,-52.246 2.491,-104.378 7.455,-156.38c4.964,-52.019 12.402,-103.679 22.282,-154.981Z" style="fill:#e3effe;fill-rule:nonzero;"/><path d="M614.364,690.674l122.298,-189.714l-115.852,-467.415c-44.369,92.09 -81.039,187.142 -109.994,285.172c-28.955,98.031 -49.821,197.754 -62.581,299.17c3.776,1.416 7.47,3.028 11.084,4.818l155.045,67.969Z" style="fill:#e3effe;fill-rule:nonzero;"/><path d="M549.195,750.488l-0,550.358l143.245,64.828l0,-615.186c7.097,-99.544 100.961,-132.601 100.961,-132.601c-12.777,-101.416 -33.643,-201.139 -62.598,-299.17c-28.955,-98.03 -65.609,-193.082 -109.993,-285.172l-0,448.763c-0,5.078 -0.375,10.107 -1.14,15.12c-0.748,5.013 -1.888,9.945 -3.385,14.779c-1.514,4.85 -3.369,9.554 -5.583,14.111c-2.213,4.558 -4.752,8.936 -7.617,13.103c-2.881,4.183 -6.038,8.121 -9.505,11.832c-3.467,3.695 -7.194,7.113 -11.182,10.254c-3.971,3.141 -8.17,5.957 -12.581,8.464c-4.411,2.506 -8.968,4.671 -13.705,6.494l-107.877,41.422c-0,0 93.847,33.073 100.96,132.601Z" style="fill:#7e90be;fill-rule:nonzero;"/><path d="M549.195,1612.58c52.083,27.051 99.837,27.051 143.245,0l0,-246.907l-143.245,-64.828l-0,311.735Z" style="fill:#e3effe;fill-rule:nonzero;"/><rect x="549.195" y="1612.58" width="143.245" height="1513.51" style="fill:#3b3b4e;fill-rule:nonzero;"/><path d="M2666.68,1490.58c34.034,41.162 70.769,85.954 108.497,132.536c3.222,9.554 7.991,18.245 14.322,26.09c6.332,7.846 13.819,14.356 22.478,19.532c36.914,45.947 74.267,93.05 110.514,139.648c3.564,9.326 8.398,17.953 14.502,25.863c6.103,7.91 13.232,14.762 21.37,20.573c34.408,44.84 67.302,88.688 97.266,130.029c1.937,16.992 16.227,32.943 33.236,48.665c6.966,12.045 12.841,24.61 17.627,37.696c4.769,13.086 8.382,26.481 10.823,40.185c2.425,13.721 3.662,27.539 3.679,41.455c0.032,13.933 -1.156,27.751 -3.549,41.472c-6.136,32.78 -17.643,63.558 -34.521,92.334l-375.879,-27.019c0,0 -34.912,-58.642 -92.074,-137.679c-1.009,-4.931 -2.539,-9.7 -4.606,-14.306c-2.05,-4.59 -4.59,-8.92 -7.584,-12.956c-3.011,-4.053 -6.429,-7.715 -10.238,-11.019c-3.809,-3.288 -7.926,-6.136 -12.37,-8.529c-26.367,-34.57 -56.006,-71.305 -88.037,-107.649c-56.217,-290.186 -32.064,-488.168 174.544,-476.921Z" style="fill:#e3effe;fill-rule:nonzero;"/><path d="M2726.88,2208.4l348.73,0c5.583,0 11.068,0.749 16.439,2.214c5.387,1.481 10.465,3.646 15.267,6.51c4.785,2.849 9.131,6.283 12.988,10.303c3.874,4.02 7.129,8.48 9.798,13.395c2.653,4.899 4.623,10.059 5.892,15.495c1.253,5.436 1.79,10.938 1.563,16.504c-0.212,5.583 -1.172,11.019 -2.865,16.341c-1.693,5.322 -4.053,10.319 -7.096,14.99c-67.66,104.314 -183.317,272.413 -298.959,392.969l-47.672,53.467c-119.857,56.575 -303.044,-81.185 -213.184,-218.978c13.102,-82.454 31.266,-163.769 54.509,-243.962c1.595,-5.664 3.646,-11.149 6.136,-16.487c2.49,-5.322 5.387,-10.417 8.707,-15.283c3.304,-4.851 6.999,-9.408 11.052,-13.672c4.053,-4.265 8.415,-8.171 13.102,-11.719c4.688,-3.548 9.635,-6.706 14.844,-9.456c5.192,-2.751 10.579,-5.062 16.146,-6.934c5.582,-1.888 11.263,-3.304 17.073,-4.248c5.811,-0.96 11.654,-1.449 17.53,-1.449Z" style="fill:#d88682;fill-rule:nonzero;"/><path d="M2525.5,2531.62c-8.903,0 -17.725,0.83 -26.465,2.507c-8.74,1.66 -17.236,4.134 -25.521,7.405c-8.268,3.272 -16.162,7.292 -23.681,12.061c-7.504,4.769 -14.502,10.189 -20.996,16.276l-107.911,101.253c6.446,23.796 14.747,46.94 24.903,69.418c10.156,22.477 22.054,43.994 35.661,64.55c13.623,20.573 28.792,39.909 45.524,58.041c16.715,18.131 34.782,34.814 54.199,50.032c3.011,2.409 6.136,4.672 9.359,6.787c3.222,2.116 6.543,4.069 9.961,5.86c3.418,1.806 6.917,3.434 10.481,4.899c3.565,1.465 7.194,2.767 10.889,3.89c3.695,1.123 7.422,2.067 11.214,2.832c3.776,0.765 7.585,1.351 11.426,1.758c3.841,0.407 7.682,0.634 11.54,0.683c3.857,0.049 7.715,-0.097 11.556,-0.423c3.857,-0.325 7.666,-0.83 11.474,-1.514c3.793,-0.683 7.552,-1.546 11.263,-2.587c3.728,-1.026 7.373,-2.247 10.987,-3.63c3.597,-1.383 7.129,-2.946 10.579,-4.671c3.451,-1.709 6.82,-3.597 10.091,-5.632c3.272,-2.051 6.446,-4.232 9.505,-6.575c3.077,-2.344 6.023,-4.818 8.855,-7.438c2.832,-2.621 5.533,-5.371 8.105,-8.252l132.422,-148.568c-39.925,6.462 -80.078,4.053 -114.29,-15.951c-119.857,-70.052 -98.894,-203.027 -98.894,-203.027l-42.236,0.016Z" style="fill:#864e4e;fill-rule:nonzero;"/><path d="M2477.95,1265.87l-122.998,19.336l12.565,557.21c44.336,38.949 85.905,80.664 124.691,125.147c3.938,-301.53 118.977,-431.657 174.544,-476.953c-107.959,-130.534 -188.802,-224.74 -188.802,-224.74Z" style="fill:#7e90be;fill-rule:nonzero;"/><path d="M1083.28,1440.38c-2.425,5.387 -4.834,10.937 -7.21,16.65c-8.057,19.32 -17.79,44.548 -28.695,74.04c3.353,30.355 -2.327,50.993 -20.915,57.715c-17.594,49.349 -36.995,105.534 -56.673,163.46c2.783,28.027 -1.823,49.284 -19.759,58.496c-67.155,199.74 -131.462,400.261 -131.462,400.261l268.848,297.656l143.05,-252.669c4.704,-25.456 12.37,-45.72 28.662,-50.619l18.994,-33.545c48.633,-391.65 36.768,-704.606 -194.84,-731.445Z" style="fill:#e3effe;fill-rule:nonzero;"/><path d="M1050.55,1522.56c39.925,26.79 136.019,78.45 178.434,188.297c7.08,18.864 12.142,38.265 15.186,58.187c3.043,19.922 4.004,39.941 2.881,60.059c-2.898,60.888 -5.046,210.27 31.103,342.692l139.632,-246.615l0,-659.31l-186.816,0c-0,0 -116.374,67.969 -180.42,256.69Z" style="fill:#7e90be;fill-rule:nonzero;"/><path d="M1464.88,2697.14c0,0 -160.303,125.7 -208.708,428.955l1300.59,0c0,0 -33.528,-342.675 -202.718,-428.955c0,0 -414.176,-135.953 -889.16,0Z" style="fill:#d88682;fill-rule:nonzero;"/><path d="M1324.34,1287.74l0,727.539c0,0 3.125,215.446 106.202,340.332c-0,0 -78.093,96.81 34.342,153.011c284.587,31.885 582.194,29.46 890.055,0c0,0 90.577,-65.576 0,-165.494c0,-0 62.468,-68.685 62.468,-274.773l-0,-802.49l-1093.07,21.875Z" style="fill:#d88682;fill-rule:nonzero;"/><path d="M1430.54,2355.62c-0,0 -78.093,96.81 34.342,153.011c284.587,31.885 582.194,29.46 890.055,0c0,0 90.577,-65.576 0,-165.494c0,-0 -129.215,60.937 -484.065,80.68c-354.851,19.743 -440.332,-68.197 -440.332,-68.197Z" style="fill:#864e4e;fill-rule:nonzero;"/><path d="M2417.41,1445.52l-0,-179.655l-1093.07,21.859l0,195.41c32.764,21.582 79.948,61.1 140.544,133.561c0,0 140.82,169.043 428.027,113.851c0,0 229.786,-56.282 399.838,-209.31c37.467,-31.966 79.02,-57.21 124.658,-75.716Z" style="fill:#864e4e;fill-rule:nonzero;"/><path d="M1725.95,1738.75l-0,72.494l-151.465,-0c-2.49,-0 -4.964,0.244 -7.406,0.716c-2.441,0.488 -4.817,1.221 -7.129,2.165c-2.294,0.96 -4.492,2.132 -6.559,3.515c-2.067,1.384 -3.987,2.962 -5.762,4.72c-1.757,1.758 -3.336,3.679 -4.72,5.746c-1.383,2.083 -2.555,4.264 -3.515,6.575c-0.944,2.295 -1.66,4.671 -2.149,7.113c-0.488,2.458 -0.732,4.915 -0.732,7.422l-0,189.502c-0,2.49 0.244,4.964 0.732,7.405c0.489,2.458 1.205,4.818 2.165,7.129c0.944,2.295 2.116,4.492 3.499,6.559c1.384,2.068 2.963,3.988 4.737,5.762c1.758,1.758 3.678,3.32 5.745,4.72c2.067,1.384 4.265,2.539 6.559,3.5c2.312,0.96 4.688,1.676 7.129,2.164c2.442,0.489 4.916,0.733 7.406,0.733l151.465,-0l-0,349.316c101.172,18.359 196.989,17.627 284.456,-12.988l0,-336.328l151.432,-0c2.491,-0 4.965,-0.244 7.406,-0.733c2.441,-0.488 4.818,-1.204 7.129,-2.148c2.295,-0.96 4.492,-2.132 6.559,-3.516c2.067,-1.383 3.988,-2.962 5.762,-4.72c1.758,-1.758 3.337,-3.678 4.72,-5.745c1.383,-2.084 2.555,-4.265 3.516,-6.576c0.944,-2.295 1.66,-4.671 2.148,-7.112c0.488,-2.442 0.732,-4.916 0.732,-7.406l0,-189.518c0,-2.49 -0.244,-4.964 -0.732,-7.406c-0.472,-2.441 -1.204,-4.818 -2.148,-7.129c-0.961,-2.295 -2.133,-4.492 -3.516,-6.559c-1.383,-2.067 -2.962,-3.988 -4.72,-5.745c-1.758,-1.775 -3.678,-3.353 -5.762,-4.737c-2.067,-1.383 -4.264,-2.555 -6.559,-3.499c-2.311,-0.96 -4.688,-1.677 -7.129,-2.165c-2.441,-0.488 -4.915,-0.732 -7.406,-0.732l-151.448,-0l-0,-120.28l-284.44,47.786Z" style="fill:#fefefe;fill-rule:nonzero;"/><path d="M1870.88,2423.81c-54.46,3.027 -102.507,3.499 -144.987,2.165l-0,102.278c93.603,3.793 188.427,4.378 284.472,1.774l0,-117.024c-42.024,4.231 -88.346,7.959 -139.485,10.807Z" style="fill:#ded9d9;fill-rule:nonzero;"/><path d="M1873.62,1276.76l-147.705,2.913l0,459.033c21.175,2.247 42.432,3.191 63.721,2.816c58.203,-1.4 114.73,-11.881 169.564,-31.429c15.169,-5.273 32.422,-11.637 51.188,-19.173l-0,-416.895l-136.768,2.735Z" style="fill:#ded9d9;fill-rule:nonzero;"/><path d="M1113.23,1176.87c-3.337,1.839 -6.511,3.922 -9.505,6.266c-3.011,2.344 -5.811,4.915 -8.399,7.715c-2.588,2.783 -4.948,5.762 -7.064,8.935c-2.115,3.158 -3.971,6.478 -5.55,9.945c-1.595,3.451 -2.897,7.015 -3.906,10.693c-1.025,3.663 -1.741,7.39 -2.165,11.182c-0.423,3.792 -0.537,7.585 -0.358,11.377c0.196,3.809 0.668,7.585 1.465,11.296c0.781,3.727 1.856,7.373 3.223,10.921c1.367,3.564 3.011,6.982 4.931,10.27c1.921,3.304 4.086,6.413 6.495,9.359c2.408,2.946 5.045,5.696 7.893,8.219c2.849,2.523 5.892,4.802 9.099,6.852c3.222,2.035 6.575,3.809 10.075,5.306c3.499,1.514 7.096,2.735 10.791,3.662c3.694,0.928 7.438,1.563 11.23,1.888c59.391,5.225 138.916,30.811 237.598,102.849c239.013,174.446 315.511,179.232 466.081,179.232c150.585,-0 360.937,-152.946 360.937,-152.946c0,-0 135.677,-117.823 376.188,-122.038c67.009,-1.172 103.011,-80.973 57.878,-130.469c-44.32,-48.633 -119.776,-96.045 -248.226,-115.251c-9.277,-1.35 -18.408,-3.336 -27.409,-5.94c-9.001,-2.621 -17.773,-5.843 -26.318,-9.668c-8.545,-3.825 -16.797,-8.22 -24.74,-13.184c-7.943,-4.98 -15.495,-10.465 -22.672,-16.488c-7.178,-6.005 -13.916,-12.483 -20.199,-19.433c-6.283,-6.95 -12.061,-14.29 -17.318,-22.038c-5.273,-7.747 -9.977,-15.82 -14.127,-24.219c-4.151,-8.398 -7.699,-17.041 -10.645,-25.927c-12.191,-38.754 -18.083,-78.435 -17.643,-119.06l-0,-313.086c-0,-6.575 -0.163,-13.134 -0.488,-19.71c-0.31,-6.559 -0.798,-13.102 -1.449,-19.645c-0.635,-6.543 -1.449,-13.053 -2.409,-19.564c-0.96,-6.494 -2.083,-12.972 -3.369,-19.417c-1.286,-6.429 -2.718,-12.842 -4.313,-19.222c-1.595,-6.364 -3.353,-12.695 -5.257,-18.994c-1.905,-6.283 -3.972,-12.517 -6.185,-18.701c-2.214,-6.185 -4.574,-12.321 -7.097,-18.392c-2.506,-6.071 -5.175,-12.077 -7.975,-18.018c-2.816,-5.941 -5.778,-11.8 -8.87,-17.594c-3.093,-5.795 -6.332,-11.508 -9.717,-17.155c-3.369,-5.632 -6.885,-11.182 -10.547,-16.651c-3.646,-5.452 -7.422,-10.823 -11.344,-16.113c-3.907,-5.273 -7.959,-10.449 -12.126,-15.527c-4.167,-5.078 -8.463,-10.059 -12.874,-14.925c-4.411,-4.867 -8.936,-9.62 -13.591,-14.275c-4.638,-4.638 -9.407,-9.163 -14.274,-13.59c-4.866,-4.411 -9.847,-8.691 -14.925,-12.858c-5.078,-4.167 -10.254,-8.22 -15.527,-12.126c-5.29,-3.922 -10.661,-7.698 -16.114,-11.344c-5.468,-3.662 -11.019,-7.178 -16.65,-10.547c-5.648,-3.385 -11.361,-6.624 -17.155,-9.717c-5.794,-3.092 -11.67,-6.055 -17.611,-8.854c-5.94,-2.816 -11.946,-5.469 -18.017,-7.992c-6.071,-2.506 -12.191,-4.882 -18.392,-7.096c-6.185,-2.213 -12.419,-4.264 -18.701,-6.169c-6.299,-1.92 -12.631,-3.662 -18.994,-5.257c-6.381,-1.595 -12.793,-3.043 -19.239,-4.329c-6.445,-1.27 -12.923,-2.393 -19.417,-3.369c-6.51,-0.961 -13.021,-1.758 -19.564,-2.409c-6.543,-0.635 -13.086,-1.123 -19.661,-1.449c-6.56,-0.325 -13.119,-0.488 -19.694,-0.488c-6.576,0 -13.151,0.163 -19.711,0.488c-6.559,0.326 -13.118,0.814 -19.645,1.449c-6.543,0.651 -13.069,1.448 -19.564,2.409c-6.51,0.976 -12.972,2.099 -19.417,3.369c-6.445,1.286 -12.858,2.734 -19.238,4.329c-6.38,1.595 -12.712,3.337 -18.994,5.257c-6.283,1.905 -12.533,3.956 -18.718,6.169c-6.185,2.214 -12.321,4.59 -18.392,7.096c-6.071,2.523 -12.077,5.176 -18.017,7.992c-5.941,2.799 -11.8,5.762 -17.595,8.854c-5.81,3.093 -11.523,6.332 -17.155,9.717c-5.631,3.369 -11.181,6.885 -16.65,10.547c-5.469,3.646 -10.84,7.422 -16.113,11.344c-5.29,3.906 -10.466,7.959 -15.544,12.126c-5.078,4.167 -10.059,8.447 -14.925,12.858c-4.867,4.427 -9.619,8.952 -14.274,13.59c-4.639,4.655 -9.18,9.408 -13.591,14.275c-4.41,4.866 -8.707,9.847 -12.874,14.925c-4.167,5.078 -8.203,10.254 -12.126,15.527c-3.906,5.29 -7.698,10.661 -11.344,16.113c-3.646,5.469 -7.162,11.019 -10.547,16.651c-3.385,5.631 -6.624,11.36 -9.717,17.155c-3.092,5.794 -6.054,11.653 -8.854,17.594c-2.816,5.941 -5.485,11.947 -7.991,18.018c-2.523,6.071 -4.883,12.207 -7.097,18.392c-2.213,6.184 -4.28,12.418 -6.185,18.701c-1.904,6.299 -3.662,12.63 -5.257,18.994c-1.595,6.38 -3.027,12.777 -4.313,19.222c-1.286,6.445 -2.409,12.923 -3.369,19.417c-0.96,6.511 -1.774,13.021 -2.409,19.564c-0.651,6.543 -1.139,13.086 -1.449,19.645c-0.325,6.576 -0.488,13.135 -0.488,19.71l0,285.092c0.228,31.836 -2.995,63.33 -9.668,94.466c-6.673,31.12 -16.634,61.165 -29.899,90.12c-25.472,54.509 -66.699,112.11 -132.519,144.499c-49.659,24.414 -90.202,42.09 -122.445,59.603Z" style="fill:#e3effe;fill-rule:nonzero;"/><path d="M1556.13,831.087l-0,136.882c-0.049,6.998 0.179,13.981 0.699,20.947c0.521,6.982 1.335,13.916 2.409,20.833c1.091,6.901 2.458,13.77 4.102,20.557c1.644,6.803 3.548,13.525 5.745,20.166c2.198,6.641 4.639,13.184 7.373,19.629c2.718,6.445 5.697,12.777 8.936,18.978c3.239,6.201 6.722,12.256 10.449,18.164c3.727,5.924 7.699,11.686 11.898,17.269c4.199,5.599 8.61,11.019 13.249,16.243c4.655,5.241 9.489,10.287 14.534,15.121c5.062,4.85 10.287,9.472 15.723,13.883c5.42,4.411 11.019,8.61 16.78,12.565c5.778,3.955 11.687,7.683 17.758,11.149c6.07,3.483 12.272,6.706 18.603,9.685c6.331,2.978 12.777,5.68 19.336,8.138c6.543,2.441 13.184,4.622 19.922,6.543c71.484,17.545 166.374,-2.979 227.832,-52.198c-4.02,100.212 -66.504,138.981 -98.958,168.295c-1.709,1.595 -3.142,3.418 -4.281,5.468c-1.123,2.035 -1.921,4.216 -2.36,6.511c-0.44,2.295 -0.521,4.606 -0.228,6.933c0.293,2.312 0.944,4.541 1.937,6.657c1.009,2.116 2.311,4.02 3.922,5.713c1.612,1.709 3.435,3.109 5.502,4.232c2.051,1.123 4.231,1.888 6.543,2.311c2.295,0.423 4.606,0.472 6.933,0.163c1.66,-0.228 3.304,-0.456 4.948,-0.716c5.681,-0.944 11.312,-2.132 16.911,-3.581c5.583,-1.449 11.084,-3.125 16.52,-5.062c5.436,-1.937 10.775,-4.101 16.016,-6.51c5.241,-2.393 10.368,-5.03 15.381,-7.878c5.013,-2.864 9.879,-5.941 14.616,-9.228c4.752,-3.288 9.326,-6.771 13.753,-10.466c4.427,-3.695 8.691,-7.568 12.777,-11.637c4.085,-4.069 7.991,-8.317 11.702,-12.728c3.711,-4.411 7.227,-8.985 10.531,-13.705c3.304,-4.72 6.396,-9.586 9.277,-14.583c2.881,-4.997 5.518,-10.107 7.943,-15.348c2.441,-5.225 4.622,-10.563 6.575,-15.983c1.953,-5.42 3.662,-10.922 5.127,-16.504c1.481,-5.583 2.686,-11.214 3.662,-16.895c0.977,-5.68 1.693,-11.393 2.149,-17.155c0.472,-5.745 0.683,-11.491 0.634,-17.269l0,-236.002l-502.88,-109.587Z" style="fill:#7e90be;fill-rule:nonzero;"/><path d="M1807.58,1082.49c-8.236,-0 -16.439,-0.407 -24.642,-1.221c-8.187,-0.797 -16.325,-2.002 -24.414,-3.613c-8.073,-1.611 -16.048,-3.597 -23.926,-5.99c-7.894,-2.392 -15.625,-5.159 -23.242,-8.317c-7.601,-3.157 -15.039,-6.673 -22.298,-10.547c-7.275,-3.889 -14.323,-8.105 -21.175,-12.679c-6.852,-4.589 -13.46,-9.488 -19.824,-14.697c-6.364,-5.224 -12.452,-10.758 -18.278,-16.569c-5.827,-5.827 -11.345,-11.93 -16.569,-18.294c-5.225,-6.364 -10.124,-12.956 -14.698,-19.808c-4.589,-6.852 -8.805,-13.9 -12.695,-21.159c-3.874,-7.259 -7.389,-14.697 -10.547,-22.298c-3.157,-7.617 -5.924,-15.365 -8.317,-23.242c-2.392,-7.878 -4.394,-15.853 -5.989,-23.926c-1.612,-8.073 -2.816,-16.211 -3.63,-24.398c-0.798,-8.203 -1.204,-16.406 -1.204,-24.642l-0,-290.023c-0,-5.192 0.162,-10.351 0.472,-15.462c185.986,-25.325 354.036,15.609 502.441,129.004l-0,176.481c-0,8.236 -0.407,16.439 -1.204,24.642c-0.814,8.187 -2.019,16.325 -3.63,24.398c-1.595,8.073 -3.597,16.048 -5.99,23.926c-2.392,7.894 -5.159,15.625 -8.317,23.242c-3.141,7.601 -6.657,15.039 -10.547,22.298c-3.873,7.259 -8.105,14.307 -12.679,21.159c-4.589,6.852 -9.488,13.46 -14.713,19.824c-5.225,6.364 -10.742,12.451 -16.569,18.278c-5.827,5.811 -11.914,11.345 -18.278,16.569c-6.364,5.225 -12.972,10.124 -19.824,14.697c-6.853,4.574 -13.9,8.806 -21.159,12.679c-7.276,3.874 -14.714,7.406 -22.315,10.547c-7.617,3.158 -15.348,5.925 -23.242,8.317c-7.877,2.393 -15.853,4.379 -23.926,5.99c-8.089,1.611 -16.227,2.816 -24.414,3.63c-8.203,0.797 -16.422,1.204 -24.658,1.204Z" style="fill:#fed6cc;fill-rule:nonzero;"/><path d="M976.246,2213.51l102.197,98.503c10.514,10.075 20.475,20.654 29.883,31.771c9.407,11.1 18.213,22.672 26.416,34.7c8.203,12.028 15.755,24.447 22.656,37.272c6.901,12.809 13.119,25.96 18.636,39.421c5.534,13.46 10.352,27.181 14.437,41.146c4.102,13.964 7.454,28.108 10.075,42.431c2.62,14.323 4.476,28.744 5.599,43.246c1.107,14.518 1.465,29.052 1.058,43.603c-1.188,41.048 -5.209,81.82 -12.077,122.315c-0.342,1.969 -0.749,3.922 -1.204,5.875c-0.456,1.953 -0.977,3.89 -1.547,5.811c-0.569,1.92 -1.204,3.825 -1.888,5.696c-0.7,1.888 -1.448,3.744 -2.246,5.583c-0.797,1.839 -1.66,3.646 -2.571,5.42c-0.912,1.79 -1.872,3.548 -2.881,5.274c-1.026,1.725 -2.084,3.417 -3.207,5.078c-1.123,1.66 -2.278,3.287 -3.499,4.882c-1.221,1.596 -2.49,3.142 -3.792,4.655c-1.319,1.53 -2.67,2.995 -4.069,4.427c-1.4,1.433 -2.832,2.833 -4.313,4.167c-1.498,1.351 -3.012,2.653 -4.574,3.906c-1.563,1.254 -3.158,2.474 -4.801,3.63c-1.628,1.156 -3.305,2.262 -4.997,3.32c-1.709,1.058 -3.434,2.067 -5.192,3.028c-1.774,0.944 -3.548,1.839 -5.371,2.685c-1.823,0.847 -3.662,1.644 -5.518,2.376c-1.872,0.733 -3.76,1.416 -5.664,2.035c-1.904,0.618 -3.825,1.188 -5.762,1.693c-1.937,0.504 -3.89,0.944 -5.859,1.334c-1.953,0.391 -3.939,0.716 -5.925,0.993c-1.985,0.261 -3.971,0.472 -5.973,0.619c-2.002,0.146 -4.004,0.244 -6.006,0.276c-2.002,0.017 -4.004,-0.016 -6.006,-0.097c-2.002,-0.098 -4.004,-0.244 -5.989,-0.472c-1.986,-0.212 -3.972,-0.472 -5.957,-0.814c-1.97,-0.326 -3.939,-0.716 -5.892,-1.172c-1.953,-0.456 -3.89,-0.96 -5.811,-1.53c-1.92,-0.57 -3.825,-1.188 -5.696,-1.872c-1.888,-0.683 -3.744,-1.416 -5.583,-2.213c-1.839,-0.798 -3.662,-1.644 -5.452,-2.556c-1.791,-0.895 -3.549,-1.855 -5.274,-2.864c-70.947,-41.618 -135.547,-91.439 -193.815,-149.496c-90.3,-241.227 -26.644,-377.197 123.454,-454.085Z" style="fill:#d88682;fill-rule:nonzero;"/><path d="M1970.35,3126.07l-0,-256.006c-0,-140.82 -56.641,-222.721 -59.05,-226.139c-2.002,-2.767 -4.378,-5.176 -7.129,-7.21c-13.655,-0 -27.506,0.179 -41.569,0.553c-1.643,1.318 -3.157,2.783 -4.524,4.395c-1.368,1.595 -2.588,3.32 -3.63,5.159c-1.058,1.839 -1.92,3.744 -2.62,5.746c-0.684,2.002 -1.188,4.036 -1.498,6.136c-0.309,2.083 -0.407,4.183 -0.325,6.299c0.081,2.115 0.358,4.199 0.846,6.25c0.472,2.067 1.139,4.052 1.986,5.989c0.846,1.937 1.872,3.776 3.076,5.518c0.472,0.683 46.777,69.254 46.777,187.304l0,256.006l67.66,0Z" style="fill:#864e4e;fill-rule:nonzero;"/><path d="M1768.42,773.161c-0.016,2.262 -0.228,4.492 -0.667,6.706c-0.44,2.229 -1.091,4.378 -1.953,6.461c-0.879,2.083 -1.937,4.069 -3.191,5.941c-1.253,1.888 -2.669,3.613 -4.28,5.208c-1.595,1.612 -3.32,3.028 -5.209,4.281c-1.871,1.253 -3.857,2.311 -5.94,3.19c-2.084,0.863 -4.248,1.514 -6.462,1.953c-2.213,0.439 -4.443,0.651 -6.706,0.651c-2.262,0 -4.492,-0.212 -6.705,-0.651c-2.23,-0.439 -4.379,-1.09 -6.462,-1.953c-2.083,-0.879 -4.069,-1.937 -5.941,-3.19c-1.888,-1.253 -3.629,-2.669 -5.224,-4.281c-1.595,-1.595 -3.011,-3.32 -4.265,-5.208c-1.269,-1.872 -2.327,-3.858 -3.19,-5.941c-0.862,-2.083 -1.513,-4.232 -1.953,-6.461c-0.439,-2.214 -0.667,-4.444 -0.667,-6.706c-0,-2.263 0.228,-4.492 0.667,-6.706c0.44,-2.213 1.091,-4.362 1.953,-6.445c0.863,-2.1 1.921,-4.069 3.19,-5.957c1.254,-1.872 2.67,-3.614 4.265,-5.209c1.595,-1.595 3.336,-3.027 5.224,-4.28c1.872,-1.253 3.858,-2.311 5.941,-3.174c2.083,-0.863 4.232,-1.514 6.462,-1.953c2.213,-0.44 4.443,-0.667 6.705,-0.667c2.263,-0 4.493,0.227 6.706,0.667c2.214,0.439 4.378,1.09 6.462,1.953c2.083,0.863 4.069,1.921 5.94,3.174c1.889,1.253 3.614,2.685 5.209,4.28c1.611,1.595 3.027,3.337 4.28,5.209c1.254,1.888 2.312,3.857 3.191,5.957c0.862,2.083 1.513,4.232 1.953,6.445c0.439,2.214 0.651,4.443 0.667,6.706Z" style="fill:#3b3b4e;fill-rule:nonzero;"/><path d="M1927.3,773.161c-0,2.262 -0.212,4.492 -0.651,6.706c-0.456,2.229 -1.107,4.378 -1.97,6.461c-0.862,2.083 -1.92,4.069 -3.174,5.941c-1.253,1.888 -2.685,3.613 -4.28,5.208c-1.595,1.612 -3.337,3.028 -5.209,4.281c-1.888,1.253 -3.857,2.311 -5.957,3.19c-2.083,0.863 -4.231,1.514 -6.445,1.953c-2.213,0.439 -4.459,0.651 -6.706,0.651c-2.262,0 -4.508,-0.212 -6.722,-0.651c-2.213,-0.439 -4.362,-1.09 -6.445,-1.953c-2.083,-0.879 -4.069,-1.937 -5.957,-3.19c-1.872,-1.253 -3.613,-2.669 -5.208,-4.281c-1.595,-1.595 -3.028,-3.32 -4.281,-5.208c-1.253,-1.872 -2.311,-3.858 -3.174,-5.941c-0.862,-2.083 -1.513,-4.232 -1.953,-6.461c-0.439,-2.214 -0.667,-4.444 -0.667,-6.706c-0,-2.263 0.228,-4.492 0.667,-6.706c0.44,-2.213 1.091,-4.362 1.953,-6.445c0.863,-2.1 1.921,-4.069 3.174,-5.957c1.253,-1.872 2.686,-3.614 4.281,-5.209c1.595,-1.595 3.336,-3.027 5.208,-4.28c1.888,-1.253 3.874,-2.311 5.957,-3.174c2.083,-0.863 4.232,-1.514 6.445,-1.953c2.214,-0.44 4.46,-0.667 6.722,-0.667c2.247,-0 4.493,0.227 6.706,0.667c2.214,0.439 4.362,1.09 6.445,1.953c2.1,0.863 4.069,1.921 5.957,3.174c1.872,1.253 3.614,2.685 5.209,4.28c1.595,1.595 3.027,3.337 4.28,5.209c1.254,1.888 2.312,3.857 3.174,5.957c0.863,2.083 1.514,4.232 1.97,6.445c0.439,2.214 0.651,4.443 0.651,6.706Z" style="fill:#3b3b4e;fill-rule:nonzero;"/><path d="M879.729,2120.47c-199.105,-15.836 -255.664,180.209 -255.664,180.209c11.719,34.456 25.374,68.115 40.967,100.992c15.576,32.878 33.007,64.763 52.246,95.638c19.254,30.892 40.218,60.564 62.874,89.03c22.673,28.467 46.891,55.551 72.656,81.234c-44.547,-273.795 78.581,-413.363 123.438,-454.069l-96.517,-93.034Z" style="fill:#864e4e;fill-rule:nonzero;"/><path d="M773.267,1925.18l101.107,0c3.776,0 7.503,0.374 11.182,1.107c3.694,0.732 7.275,1.823 10.758,3.255c3.483,1.449 6.787,3.206 9.912,5.306c3.125,2.083 6.022,4.46 8.692,7.113c2.653,2.669 5.029,5.566 7.112,8.691c2.1,3.125 3.858,6.429 5.306,9.912c1.433,3.467 2.523,7.064 3.255,10.742c0.733,3.695 1.107,7.422 1.107,11.182l0,131.201c0,3.76 -0.374,7.487 -1.107,11.182c-0.732,3.694 -1.822,7.275 -3.255,10.742c-1.448,3.483 -3.206,6.787 -5.306,9.912c-2.083,3.125 -4.459,6.022 -7.129,8.691c-2.653,2.653 -5.55,5.03 -8.675,7.113c-3.141,2.1 -6.445,3.858 -9.912,5.306c-3.483,1.432 -7.064,2.523 -10.758,3.255c-3.679,0.733 -7.406,1.107 -11.182,1.107l-137.256,0l36.149,-245.817Z" style="fill:#864e4e;fill-rule:nonzero;"/><path d="M544.117,1925.18l248.096,0l-0,302.36c-0,2.897 -0.131,5.778 -0.424,8.659c-0.276,2.864 -0.7,5.729 -1.269,8.561c-0.554,2.832 -1.253,5.632 -2.1,8.399c-0.846,2.766 -1.806,5.485 -2.913,8.154c-1.107,2.669 -2.344,5.273 -3.711,7.829c-1.351,2.539 -2.848,5.013 -4.443,7.421c-1.612,2.393 -3.337,4.721 -5.16,6.95c-1.839,2.23 -3.776,4.379 -5.827,6.413c-2.034,2.051 -4.166,3.988 -6.413,5.811c-2.229,1.839 -4.541,3.564 -6.949,5.159c-2.409,1.612 -4.883,3.093 -7.422,4.46c-2.556,1.351 -5.16,2.588 -7.829,3.694c-2.669,1.107 -5.387,2.084 -8.154,2.914c-2.767,0.846 -5.567,1.546 -8.399,2.116c-2.848,0.553 -5.696,0.976 -8.577,1.269c-2.865,0.277 -5.762,0.423 -8.643,0.423l-159.863,0c-2.881,0 -5.762,-0.146 -8.643,-0.423c-2.881,-0.293 -5.729,-0.716 -8.561,-1.269c-2.832,-0.57 -5.631,-1.27 -8.398,-2.116c-2.767,-0.83 -5.485,-1.807 -8.155,-2.914c-2.669,-1.106 -5.289,-2.343 -7.828,-3.694c-2.556,-1.367 -5.03,-2.848 -7.439,-4.46c-2.392,-1.595 -4.72,-3.32 -6.949,-5.159c-2.23,-1.823 -4.379,-3.76 -6.413,-5.811c-2.051,-2.034 -3.988,-4.183 -5.811,-6.413c-1.839,-2.229 -3.564,-4.557 -5.159,-6.95c-1.612,-2.408 -3.093,-4.882 -4.46,-7.438c-1.367,-2.539 -2.588,-5.143 -3.695,-7.812c-1.106,-2.669 -2.083,-5.388 -2.929,-8.154c-0.83,-2.767 -1.53,-5.567 -2.1,-8.399c-0.553,-2.832 -0.993,-5.697 -1.269,-8.561c-0.277,-2.881 -0.424,-5.762 -0.424,-8.659l0,-214.128c0,-2.897 0.147,-5.778 0.424,-8.658c0.276,-2.865 0.716,-5.73 1.269,-8.562c0.57,-2.832 1.27,-5.631 2.1,-8.398c0.846,-2.767 1.823,-5.485 2.929,-8.154c1.107,-2.67 2.328,-5.274 3.695,-7.829c1.367,-2.539 2.848,-5.013 4.46,-7.422c1.595,-2.393 3.32,-4.72 5.159,-6.95c1.823,-2.23 3.76,-4.378 5.811,-6.413c2.034,-2.05 4.183,-3.987 6.413,-5.81c2.229,-1.839 4.557,-3.565 6.949,-5.16c2.409,-1.611 4.883,-3.092 7.439,-4.459c2.539,-1.367 5.159,-2.588 7.828,-3.695c2.67,-1.107 5.388,-2.083 8.155,-2.913c2.767,-0.847 5.566,-1.547 8.398,-2.116c2.832,-0.554 5.68,-0.977 8.561,-1.27c2.881,-0.276 5.762,-0.423 8.643,-0.423Z" style="fill:#d88682;fill-rule:nonzero;"/><rect x="1464.88" y="2508.63" width="365.902" height="188.493" style="fill:#3b3b4e;fill-rule:nonzero;"/><path d="M1936.52,2508.63l418.424,0l-0.895,188.493l-417.529,0l-0,-188.493Z" style="fill:#3b3b4e;fill-rule:nonzero;"/><path d="M1830.79,2508.63l105.745,0c2.409,0 4.834,0.114 7.243,0.358c2.393,0.228 4.785,0.586 7.162,1.058c2.376,0.472 4.72,1.058 7.031,1.758c2.311,0.7 4.59,1.514 6.819,2.442c2.247,0.927 4.427,1.969 6.56,3.108c2.132,1.14 4.199,2.377 6.217,3.727c2.002,1.335 3.955,2.784 5.811,4.314c1.871,1.53 3.662,3.157 5.371,4.866c1.725,1.709 3.336,3.5 4.883,5.371c1.53,1.872 2.962,3.809 4.313,5.811c1.334,2.018 2.588,4.085 3.727,6.217c1.139,2.132 2.165,4.313 3.092,6.559c0.928,2.23 1.742,4.509 2.442,6.82c0.7,2.311 1.286,4.655 1.758,7.031c0.472,2.377 0.83,4.753 1.074,7.162c0.228,2.409 0.358,4.818 0.358,7.243l-0,40.804c-0,2.425 -0.13,4.834 -0.358,7.243c-0.244,2.408 -0.602,4.801 -1.074,7.177c-0.472,2.36 -1.058,4.704 -1.758,7.015c-0.7,2.328 -1.514,4.59 -2.442,6.836c-0.927,2.23 -1.953,4.411 -3.092,6.543c-1.139,2.132 -2.393,4.199 -3.727,6.218c-1.351,2.018 -2.783,3.955 -4.313,5.826c-1.547,1.872 -3.158,3.646 -4.883,5.372c-1.709,1.709 -3.5,3.32 -5.355,4.866c-1.872,1.53 -3.825,2.962 -5.827,4.313c-2.018,1.335 -4.085,2.588 -6.217,3.727c-2.133,1.14 -4.313,2.165 -6.56,3.093c-2.229,0.928 -4.508,1.741 -6.819,2.441c-2.311,0.7 -4.655,1.286 -7.031,1.758c-2.377,0.472 -4.769,0.83 -7.162,1.074c-2.409,0.228 -4.834,0.342 -7.243,0.342l-105.745,0c-2.425,0 -4.834,-0.114 -7.243,-0.342c-2.409,-0.244 -4.802,-0.602 -7.178,-1.074c-2.36,-0.472 -4.704,-1.058 -7.015,-1.758c-2.327,-0.7 -4.59,-1.513 -6.836,-2.441c-2.23,-0.928 -4.411,-1.953 -6.543,-3.093c-2.132,-1.139 -4.215,-2.392 -6.217,-3.727c-2.018,-1.351 -3.955,-2.783 -5.827,-4.313c-1.872,-1.546 -3.662,-3.157 -5.371,-4.866c-1.709,-1.726 -3.337,-3.5 -4.867,-5.372c-1.53,-1.871 -2.978,-3.808 -4.313,-5.826c-1.351,-2.019 -2.588,-4.086 -3.727,-6.218c-1.139,-2.132 -2.181,-4.313 -3.109,-6.543c-0.911,-2.246 -1.725,-4.508 -2.441,-6.836c-0.7,-2.311 -1.286,-4.655 -1.758,-7.015c-0.472,-2.376 -0.83,-4.769 -1.058,-7.177c-0.244,-2.409 -0.358,-4.818 -0.358,-7.243l0,-40.804c0,-2.425 0.114,-4.834 0.358,-7.243c0.228,-2.409 0.586,-4.785 1.058,-7.162c0.472,-2.376 1.058,-4.72 1.758,-7.031c0.716,-2.311 1.53,-4.59 2.441,-6.82c0.928,-2.246 1.97,-4.427 3.109,-6.559c1.139,-2.132 2.376,-4.199 3.727,-6.217c1.335,-2.002 2.783,-3.939 4.313,-5.811c1.53,-1.871 3.158,-3.662 4.867,-5.371c1.709,-1.709 3.499,-3.336 5.371,-4.866c1.872,-1.53 3.809,-2.979 5.827,-4.314c2.002,-1.35 4.085,-2.587 6.217,-3.727c2.132,-1.139 4.313,-2.181 6.543,-3.108c2.246,-0.928 4.509,-1.742 6.836,-2.442c2.311,-0.7 4.655,-1.286 7.015,-1.758c2.376,-0.472 4.769,-0.83 7.178,-1.058c2.409,-0.244 4.818,-0.358 7.243,-0.358Z" style="fill:#e3effe;fill-rule:nonzero;"/><path d="M1567.85,464.99c-6.217,19.743 -9.928,39.942 -11.116,60.612c2.767,57.097 17.041,155.453 217.334,185.059c2.278,0.325 4.557,0.456 6.852,0.358c2.295,-0.081 4.574,-0.374 6.803,-0.895c2.246,-0.505 4.427,-1.221 6.527,-2.132c2.116,-0.912 4.118,-2.002 6.038,-3.288c1.905,-1.286 3.663,-2.735 5.306,-4.362c1.644,-1.612 3.109,-3.353 4.428,-5.241c1.302,-1.888 2.441,-3.874 3.385,-5.973c0.944,-2.1 1.676,-4.265 2.23,-6.495l6.543,-27.132c19.075,6.478 38.558,11.361 58.447,14.6c19.873,3.255 39.893,4.834 60.042,4.753c20.15,-0.082 40.153,-1.823 60.01,-5.241c19.857,-3.402 39.307,-8.431 58.317,-15.088l0,-40.869c-122.737,-118.848 -283.496,-166.667 -491.146,-148.666Z" style="fill:#f68f89;fill-rule:nonzero;"/><path d="M1807.58,289.632c-6.608,0 -13.232,0.261 -19.824,0.781c-6.608,0.521 -13.184,1.302 -19.727,2.344c-6.526,1.042 -13.02,2.344 -19.466,3.89c-6.429,1.563 -12.793,3.369 -19.092,5.42c-6.298,2.067 -12.5,4.362 -18.619,6.917c-6.104,2.539 -12.11,5.323 -18.002,8.35c-5.892,3.011 -11.67,6.266 -17.301,9.749c-5.632,3.467 -11.133,7.162 -16.471,11.068c-5.339,3.923 -10.531,8.024 -15.544,12.354c-5.029,4.313 -9.863,8.821 -14.535,13.525c-4.655,4.704 -9.13,9.587 -13.411,14.632c-4.281,5.062 -8.35,10.27 -12.207,15.658c-3.874,5.371 -7.52,10.888 -10.954,16.552c-3.418,5.664 -6.624,11.459 -9.603,17.383c-2.962,5.908 -5.696,11.931 -8.203,18.067c-2.49,6.136 -4.736,12.353 -6.754,18.668c17.757,50.977 61.962,117.595 171.549,152.897l34.977,-110.709c0,-0 70.557,114.941 284.652,106.478l-0,-72.592c-0,-8.235 -0.407,-16.455 -1.204,-24.641c-0.814,-8.204 -2.019,-16.342 -3.63,-24.415c-1.595,-8.072 -3.597,-16.048 -5.99,-23.942c-2.392,-7.877 -5.159,-15.608 -8.317,-23.226c-3.141,-7.6 -6.657,-15.039 -10.547,-22.298c-3.873,-7.275 -8.105,-14.323 -12.679,-21.175c-4.573,-6.836 -9.472,-13.444 -14.697,-19.808c-5.224,-6.364 -10.758,-12.467 -16.585,-18.294c-5.811,-5.811 -11.914,-11.344 -18.278,-16.569c-6.364,-5.225 -12.972,-10.124 -19.824,-14.697c-6.853,-4.574 -13.9,-8.806 -21.159,-12.679c-7.276,-3.89 -14.697,-7.406 -22.315,-10.547c-7.601,-3.158 -15.348,-5.925 -23.242,-8.317c-7.877,-2.393 -15.853,-4.395 -23.926,-5.99c-8.089,-1.611 -16.227,-2.816 -24.414,-3.629c-8.203,-0.798 -16.406,-1.205 -24.658,-1.205Z" style="fill:#3b3b4e;fill-rule:nonzero;"/><path d="M1936.52,2508.63l-11.849,0l-74.788,188.444l86.637,0c2.425,0 4.834,-0.114 7.243,-0.341c2.409,-0.245 4.801,-0.603 7.161,-1.075c2.377,-0.472 4.72,-1.058 7.031,-1.758c2.328,-0.699 4.607,-1.513 6.836,-2.441c2.23,-0.928 4.411,-1.953 6.543,-3.092c2.149,-1.14 4.216,-2.377 6.218,-3.728c2.018,-1.334 3.955,-2.783 5.827,-4.313c1.871,-1.53 3.662,-3.157 5.371,-4.866c1.709,-1.709 3.336,-3.5 4.866,-5.371c1.547,-1.872 2.979,-3.809 4.33,-5.827c1.334,-2.002 2.588,-4.085 3.727,-6.218c1.139,-2.132 2.165,-4.313 3.092,-6.543c0.928,-2.246 1.742,-4.524 2.442,-6.836c0.7,-2.311 1.286,-4.654 1.758,-7.031c0.472,-2.376 0.83,-4.752 1.074,-7.161c0.228,-2.409 0.358,-4.834 0.358,-7.243l-0,-40.804c-0.016,-2.425 -0.13,-4.834 -0.374,-7.243c-0.228,-2.393 -0.586,-4.785 -1.058,-7.161c-0.472,-2.36 -1.058,-4.704 -1.758,-7.015c-0.716,-2.312 -1.53,-4.59 -2.458,-6.82c-0.928,-2.23 -1.953,-4.427 -3.092,-6.559c-1.14,-2.116 -2.393,-4.2 -3.728,-6.201c-1.35,-2.019 -2.783,-3.956 -4.313,-5.827c-1.546,-1.856 -3.157,-3.646 -4.883,-5.355c-1.709,-1.709 -3.499,-3.337 -5.371,-4.867c-1.855,-1.53 -3.808,-2.962 -5.81,-4.313c-2.018,-1.334 -4.085,-2.588 -6.218,-3.727c-2.132,-1.139 -4.313,-2.165 -6.559,-3.092c-2.23,-0.928 -4.508,-1.742 -6.82,-2.442c-2.311,-0.7 -4.654,-1.286 -7.031,-1.758c-2.36,-0.472 -4.752,-0.83 -7.161,-1.058c-2.409,-0.244 -4.818,-0.358 -7.243,-0.358Z" style="fill:#7e90be;fill-rule:nonzero;"/><g><path d="M47.6,1578.43c2.002,0.277 4.004,0.375 6.022,0.293c2.018,-0.081 4.02,-0.342 5.99,-0.765c1.985,-0.439 3.906,-1.058 5.761,-1.823c1.872,-0.781 3.646,-1.725 5.339,-2.815c1.709,-1.107 3.288,-2.344 4.769,-3.728c1.481,-1.383 2.816,-2.881 4.02,-4.492c1.204,-1.627 2.262,-3.336 3.174,-5.159c0.895,-1.807 1.627,-3.679 2.197,-5.616c43.945,-144.97 216.585,-315.364 430.485,-354.785l0,695.378c-6.592,1.611 -13.004,3.743 -19.254,6.413c-6.234,2.685 -12.208,5.859 -17.92,9.521c-5.713,3.662 -11.084,7.78 -16.097,12.354c-5.03,4.557 -9.652,9.505 -13.851,14.843c-4.2,5.339 -7.927,10.97 -11.182,16.927c-3.255,5.958 -6.006,12.142 -8.219,18.555c-2.23,6.413 -3.923,12.956 -5.046,19.645c-1.139,6.706 -1.709,13.444 -1.725,20.231l-0,214.128c0.016,6.787 0.586,13.525 1.725,20.215c1.139,6.706 2.816,13.249 5.046,19.661c2.229,6.413 4.964,12.598 8.219,18.555c3.272,5.941 6.999,11.589 11.198,16.927c4.199,5.322 8.805,10.27 13.835,14.844c5.013,4.557 10.384,8.675 16.097,12.353c5.712,3.663 11.686,6.836 17.92,9.506c6.25,2.685 12.662,4.817 19.254,6.429l0,780.045c0,2.23 0.212,4.427 0.651,6.608c0.44,2.181 1.074,4.297 1.921,6.348c0.862,2.051 1.904,3.988 3.125,5.843c1.237,1.839 2.636,3.548 4.215,5.127c1.563,1.563 3.272,2.962 5.127,4.199c1.839,1.237 3.792,2.279 5.843,3.125c2.051,0.847 4.167,1.498 6.348,1.937c2.181,0.423 4.378,0.635 6.608,0.635l143.245,-0c2.214,-0 4.411,-0.212 6.592,-0.635c2.181,-0.439 4.297,-1.09 6.348,-1.937c2.051,-0.846 4.004,-1.888 5.859,-3.125c1.839,-1.237 3.548,-2.637 5.127,-4.199c1.563,-1.579 2.962,-3.288 4.199,-5.127c1.237,-1.855 2.279,-3.792 3.125,-5.843c0.847,-2.051 1.498,-4.167 1.921,-6.348c0.439,-2.181 0.651,-4.378 0.651,-6.608l0,-554.248c81.201,116.488 277.425,294.304 370.605,292.709c3.89,-0.017 7.78,-0.212 11.654,-0.57c3.874,-0.358 7.731,-0.879 11.556,-1.563c3.841,-0.7 7.634,-1.562 11.377,-2.588c3.76,-1.009 7.471,-2.197 11.117,-3.548c3.662,-1.334 7.242,-2.832 10.758,-4.492c3.532,-1.66 6.966,-3.467 10.335,-5.42c3.37,-1.953 6.641,-4.053 9.831,-6.282c3.174,-2.246 6.266,-4.623 9.229,-7.129c2.978,-2.507 5.843,-5.144 8.593,-7.894c2.751,-2.751 5.371,-5.632 7.878,-8.61c2.49,-2.979 4.85,-6.071 7.08,-9.261c2.23,-3.19 4.329,-6.462 6.266,-9.847c1.953,-3.369 3.744,-6.82 5.388,-10.336c1.644,-3.531 3.141,-7.128 4.476,-10.774c1.318,-3.662 2.506,-7.373 3.515,-11.133c1.009,-3.76 1.856,-7.552 2.539,-11.377c21.338,-116.146 19.515,-247.07 -40.967,-353.141l125.456,-221.566c14.339,58.822 37.826,124.007 76.367,178.304c-32.552,55.843 -25.032,131.071 41.797,170.866l0,153.646c-40.918,38.02 -165.869,173.226 -208.3,438.948c-0.359,2.425 -0.473,4.834 -0.31,7.276c0.163,2.441 0.57,4.834 1.237,7.177c0.668,2.344 1.579,4.59 2.735,6.739c1.155,2.148 2.522,4.15 4.101,6.005c1.595,1.856 3.353,3.532 5.29,5.014c1.953,1.464 4.02,2.718 6.234,3.759c2.213,1.026 4.508,1.807 6.884,2.344c2.393,0.537 4.802,0.83 7.243,0.846l1300.54,0c24.317,0 34.603,-27.62 33.692,-37.109c-5.729,-50.472 -15.072,-100.26 -28.044,-149.382c10.563,-0.309 20.964,-1.676 31.25,-4.101c10.27,-2.441 20.199,-5.876 29.769,-10.335c9.57,-4.444 18.604,-9.815 27.083,-16.097c8.48,-6.283 16.244,-13.363 23.291,-21.224l179.688,-201.579c114.29,-119.238 227.555,-281.95 302.539,-397.526c2.783,-4.264 5.208,-8.74 7.259,-13.395c2.067,-4.655 3.744,-9.44 5.046,-14.372c1.285,-4.915 2.181,-9.912 2.669,-14.974c0.504,-5.078 0.586,-10.156 0.277,-15.234c-0.326,-5.079 -1.042,-10.108 -2.165,-15.072c-1.123,-4.964 -2.621,-9.814 -4.525,-14.535c-1.904,-4.72 -4.15,-9.277 -6.787,-13.639c-2.62,-4.362 -5.583,-8.48 -8.854,-12.37c1.937,-9.31 3.385,-18.701 4.362,-28.173c0.96,-9.457 1.432,-18.946 1.416,-28.451c-0.016,-9.521 -0.537,-19.01 -1.546,-28.467c-1.01,-9.456 -2.507,-18.847 -4.493,-28.141c-1.985,-9.31 -4.443,-18.473 -7.389,-27.523c-2.93,-9.049 -6.331,-17.92 -10.205,-26.611c-3.857,-8.692 -8.171,-17.171 -12.907,-25.407c-4.752,-8.252 -9.912,-16.227 -15.495,-23.926c-148.063,-207.845 -383.3,-492.513 -508.414,-641.422c4.899,-0.554 9.765,-1.416 14.55,-2.621c4.802,-1.188 9.506,-2.702 14.095,-4.525c4.59,-1.822 9.05,-3.938 13.363,-6.347c4.313,-2.409 8.447,-5.095 12.419,-8.057c3.955,-2.962 7.698,-6.168 11.23,-9.619c3.532,-3.451 6.82,-7.129 9.88,-11.019c3.043,-3.89 5.81,-7.975 8.317,-12.239c2.506,-4.248 4.72,-8.659 6.64,-13.217c56.006,-136.621 -157.226,-227.539 -287.825,-244.498c-112.972,-18.62 -153.744,-116.944 -152.23,-222.51l0,-313.135c-20.475,-576.09 -850.358,-576.041 -870.768,0l-0,285.091c0.277,29.379 -2.653,58.415 -8.806,87.142c-6.136,28.727 -15.332,56.429 -27.587,83.122c-56.055,124.105 -139.193,133.691 -240.479,188.704c-76.53,39.161 -70.687,154.965 6.624,188.33c-96.126,151.775 -133.935,327.735 -216.259,555.876l-161.182,0l0,-696.305c68.18,13.851 155.632,42.773 227.686,103.255c2.474,2.035 5.192,3.662 8.121,4.932c2.946,1.253 6.006,2.083 9.18,2.474c3.19,0.39 6.348,0.341 9.521,-0.163c3.158,-0.488 6.185,-1.416 9.083,-2.767c2.913,-1.367 5.566,-3.093 7.975,-5.192c2.409,-2.1 4.492,-4.492 6.234,-7.178c1.741,-2.685 3.076,-5.566 4.003,-8.626c0.928,-3.06 1.416,-6.201 1.449,-9.391l-0,-509.408c-0.049,-3.206 -0.521,-6.331 -1.465,-9.391c-0.928,-3.06 -2.262,-5.941 -3.987,-8.627c-1.742,-2.685 -3.825,-5.078 -6.234,-7.177c-2.409,-2.1 -5.078,-3.825 -7.975,-5.192c-2.898,-1.351 -5.925,-2.263 -9.099,-2.767c-3.157,-0.505 -6.331,-0.554 -9.505,-0.163c-3.174,0.407 -6.234,1.221 -9.18,2.49c-2.929,1.253 -5.647,2.897 -8.121,4.916c-71.827,60.237 -158.643,89.241 -227.686,103.238l0,-88.557c6.022,-74.545 75.619,-100.928 78.385,-101.954c1.807,-0.634 3.532,-1.416 5.192,-2.343c1.677,-0.928 3.256,-1.986 4.737,-3.174c1.497,-1.205 2.864,-2.507 4.134,-3.923c1.269,-1.432 2.409,-2.962 3.418,-4.573c1.009,-1.612 1.872,-3.304 2.588,-5.062c0.732,-1.774 1.302,-3.581 1.709,-5.436c0.423,-1.872 0.683,-3.744 0.781,-5.648c0.098,-1.904 0.033,-3.809 -0.195,-5.697c-12.858,-103.483 -34.066,-205.224 -63.623,-305.224c-29.558,-99.984 -67.074,-196.908 -112.549,-290.756c-1.465,-2.701 -3.255,-5.175 -5.371,-7.405c-2.132,-2.23 -4.525,-4.134 -7.162,-5.713c-2.636,-1.579 -5.452,-2.783 -8.414,-3.597c-2.979,-0.83 -6.006,-1.237 -9.082,-1.237c-3.077,0 -6.104,0.407 -9.066,1.237c-2.979,0.814 -5.778,2.018 -8.415,3.597c-2.653,1.579 -5.029,3.483 -7.161,5.713c-2.133,2.23 -3.923,4.704 -5.371,7.405c-45.476,93.848 -82.992,190.772 -112.549,290.772c-29.558,99.984 -50.765,201.725 -63.623,305.208c-0.424,3.793 -0.212,7.536 0.634,11.263c0.83,3.711 2.263,7.194 4.265,10.433c2.018,3.239 4.492,6.071 7.454,8.48c2.946,2.409 6.218,4.264 9.798,5.583c2.979,1.09 72.575,27.474 78.581,102.051l0,84.082c-214.16,-39.356 -386.93,-210.596 -430.469,-354.688c-0.553,-1.937 -1.285,-3.825 -2.164,-5.631c-0.896,-1.823 -1.954,-3.549 -3.142,-5.176c-1.204,-1.628 -2.539,-3.125 -4.02,-4.525c-1.465,-1.383 -3.043,-2.637 -4.752,-3.727c-1.693,-1.107 -3.467,-2.051 -5.339,-2.848c-1.855,-0.782 -3.776,-1.384 -5.762,-1.823c-1.969,-0.456 -3.971,-0.717 -5.989,-0.798c-2.019,-0.081 -4.037,0.016 -6.039,0.309c-2.002,0.277 -3.971,0.733 -5.892,1.368c-1.92,0.618 -3.776,1.416 -5.55,2.392c-1.774,0.96 -3.467,2.067 -5.045,3.337c-1.579,1.269 -3.028,2.653 -4.362,4.183c-1.319,1.53 -2.507,3.157 -3.548,4.899c-1.026,1.741 -1.905,3.548 -2.605,5.452c-0.716,1.888 -1.253,3.825 -1.611,5.827c-0.358,1.986 -0.553,3.988 -0.553,6.022l-0,1054.59c0.016,2.018 0.195,4.02 0.553,6.006c0.358,1.986 0.895,3.922 1.611,5.827c0.7,1.888 1.579,3.694 2.605,5.436c1.025,1.725 2.213,3.353 3.531,4.883c1.335,1.513 2.784,2.913 4.346,4.183c1.579,1.253 3.255,2.376 5.029,3.336c1.774,0.96 3.614,1.758 5.534,2.393c1.921,0.635 3.874,1.09 5.876,1.383Zm611.003,1513.82l-75.586,-0l-0,-742.66l23.03,0c15.153,39.128 32.682,77.181 52.556,114.144l-0,628.516Zm514.778,-467.741c-1.123,39.469 -4.98,78.662 -11.588,117.578c-0.472,2.604 -1.091,5.176 -1.856,7.698c-0.781,2.523 -1.693,4.997 -2.767,7.422c-1.074,2.409 -2.278,4.769 -3.629,7.032c-1.351,2.278 -2.832,4.459 -4.444,6.559c-1.595,2.099 -3.336,4.085 -5.175,5.973c-1.856,1.888 -3.809,3.662 -5.876,5.322c-2.067,1.644 -4.216,3.174 -6.462,4.574c-2.246,1.383 -4.557,2.653 -6.966,3.76c-2.392,1.123 -4.85,2.099 -7.357,2.913c-2.506,0.83 -5.061,1.497 -7.649,2.018c-2.605,0.521 -5.209,0.879 -7.845,1.091c-2.637,0.211 -5.274,0.244 -7.911,0.146c-2.653,-0.114 -5.273,-0.39 -7.877,-0.813c-2.621,-0.424 -5.192,-0.993 -7.731,-1.742c-2.539,-0.732 -5.03,-1.611 -7.455,-2.637c-2.441,-1.041 -4.801,-2.213 -7.096,-3.532c-21.403,-12.418 -42.269,-25.683 -62.581,-39.811c-20.329,-14.111 -40.04,-29.036 -59.148,-44.759c-19.124,-15.706 -37.565,-32.178 -55.338,-49.381c-17.774,-17.221 -34.831,-35.124 -51.156,-53.728c-16.308,-18.587 -31.852,-37.825 -46.614,-57.682c-14.763,-19.857 -28.695,-40.283 -41.813,-61.263c-13.103,-20.996 -25.326,-42.48 -36.703,-64.453c-11.361,-21.989 -21.81,-44.385 -31.348,-67.22c91.83,7.65 154.2,-52.409 147.071,-144.776c16.699,-0.732 74.186,2.23 89.453,-2.897c132.275,130.469 262.288,215.707 257.861,422.608Zm-280.078,-665.511c1.546,-0 3.076,0.162 4.59,0.455c1.497,0.31 2.978,0.749 4.394,1.335c1.433,0.602 2.784,1.318 4.053,2.181c1.286,0.846 2.474,1.823 3.565,2.913c1.09,1.091 2.067,2.279 2.913,3.565c0.863,1.269 1.595,2.62 2.181,4.053c0.586,1.416 1.042,2.88 1.335,4.394c0.309,1.514 0.455,3.044 0.455,4.59l0,131.201c0,1.546 -0.146,3.076 -0.455,4.574c-0.293,1.513 -0.749,2.978 -1.335,4.411c-0.586,1.416 -1.318,2.766 -2.181,4.052c-0.846,1.286 -1.823,2.474 -2.913,3.565c-1.091,1.09 -2.279,2.05 -3.565,2.913c-1.269,0.863 -2.62,1.579 -4.053,2.165c-1.416,0.602 -2.897,1.042 -4.394,1.334c-1.514,0.31 -3.044,0.456 -4.59,0.456l-67.253,0l0,-178.157l67.253,-0Zm208.626,328.678l-131.071,-126.351c18.36,-24.691 12.956,-71.501 13.591,-100.749c72.2,58.431 149.886,108.317 233.073,149.659l-71.631,126.513c-13.477,-17.415 -28.125,-33.772 -43.962,-49.072Zm149.008,-136.491c-24.984,-11.67 -49.61,-24.918 -73.226,-38.834c12.467,-26.775 42.252,-61.866 4.931,-83.741c-37.5,-16.422 -48.893,21.924 -62.386,47.477c-25.244,-16.927 -48.323,-33.675 -68.115,-48.73l20.703,-40.739c1.009,-1.969 1.823,-4.036 2.409,-6.169c0.602,-2.148 0.993,-4.313 1.172,-6.542c0.163,-2.214 0.114,-4.411 -0.147,-6.625c-0.26,-2.197 -0.732,-4.362 -1.432,-6.478c-0.684,-2.116 -1.579,-4.134 -2.669,-6.071c-1.074,-1.937 -2.344,-3.743 -3.793,-5.436c-1.448,-1.693 -3.043,-3.223 -4.785,-4.59c-1.741,-1.367 -3.613,-2.555 -5.599,-3.564c-1.969,-1.009 -4.036,-1.807 -6.168,-2.409c-2.149,-0.602 -4.313,-0.993 -6.543,-1.156c-2.214,-0.179 -4.411,-0.13 -6.625,0.131c-2.213,0.26 -4.362,0.732 -6.477,1.432c-2.116,0.683 -4.135,1.579 -6.071,2.669c-1.937,1.074 -3.76,2.344 -5.437,3.792c-1.692,1.449 -3.222,3.044 -4.59,4.786c-1.383,1.741 -2.571,3.613 -3.58,5.582l-14.356,28.288c-6.591,-5.534 -11.458,-9.749 -14.355,-12.288c-1.351,-11.589 -4.802,-22.51 -10.335,-32.78c-5.551,-10.254 -12.81,-19.125 -21.778,-26.612c13.802,-41.552 26.872,-80.631 39.242,-117.236c52.962,47.819 170.931,145.573 299.642,194.645c-0.684,28.109 0.7,56.104 4.118,84.017l-43.75,77.181Zm-185.368,-571.224c45.817,37.24 137.841,107.031 224.951,143.164l-0,193.669c-33.757,-15.023 -66.195,-32.455 -97.363,-52.295l21.94,-42.529c0.992,-1.97 1.79,-4.021 2.392,-6.153c0.602,-2.132 0.977,-4.297 1.156,-6.494c0.163,-2.213 0.13,-4.411 -0.13,-6.608c-0.261,-2.197 -0.733,-4.346 -1.416,-6.445c-0.684,-2.1 -1.563,-4.118 -2.637,-6.055c-1.074,-1.92 -2.328,-3.743 -3.76,-5.42c-1.432,-1.693 -3.027,-3.222 -4.752,-4.59c-1.726,-1.383 -3.581,-2.571 -5.551,-3.58c-1.969,-1.01 -4.004,-1.823 -6.136,-2.442c-2.116,-0.602 -4.28,-1.009 -6.494,-1.188c-2.197,-0.195 -4.411,-0.163 -6.608,0.081c-2.197,0.245 -4.346,0.7 -6.445,1.368c-2.116,0.667 -4.134,1.53 -6.087,2.588c-1.937,1.074 -3.744,2.311 -5.437,3.727c-1.709,1.432 -3.239,2.995 -4.638,4.72c-1.384,1.725 -2.588,3.564 -3.614,5.517l-18.18,35.287c-42.838,-31.087 -83.496,-64.811 -121.989,-101.156c19.173,-55.973 36.166,-104.541 50.798,-145.166Zm224.951,-183.512l-0,252.441c-33.822,-17.041 -66.292,-36.36 -97.38,-57.991l23.926,-45.085c1.042,-1.953 1.872,-4.004 2.523,-6.12c0.635,-2.132 1.058,-4.297 1.269,-6.51c0.212,-2.214 0.196,-4.427 -0.016,-6.641c-0.228,-2.197 -0.667,-4.378 -1.318,-6.494c-0.651,-2.116 -1.514,-4.167 -2.556,-6.12c-1.058,-1.953 -2.295,-3.792 -3.711,-5.501c-1.416,-1.709 -2.978,-3.271 -4.703,-4.671c-1.726,-1.4 -3.565,-2.621 -5.518,-3.662c-1.969,-1.042 -4.02,-1.888 -6.136,-2.523c-2.132,-0.635 -4.297,-1.058 -6.51,-1.27c-2.214,-0.211 -4.427,-0.211 -6.641,0.017c-2.197,0.227 -4.378,0.667 -6.494,1.318c-2.132,0.651 -4.167,1.497 -6.12,2.555c-1.953,1.058 -3.792,2.279 -5.501,3.695c-1.709,1.416 -3.272,2.995 -4.671,4.704c-1.416,1.725 -2.637,3.564 -3.679,5.534l-19.433,36.637c-21.062,-16.162 -37.696,-29.867 -47.429,-38.053c21.745,-59.733 51.351,-121.322 86.833,-162.045c39.958,9.831 77.718,25.098 113.265,45.817l-0,-0.032Zm67.659,618.831l0,-575.065c156.202,114.177 247.575,159.359 333.903,175.993l0,161.149l-155.582,0c-2.23,0 -4.427,0.228 -6.608,0.651c-2.181,0.44 -4.297,1.074 -6.348,1.937c-2.051,0.846 -4.004,1.888 -5.843,3.125c-1.856,1.237 -3.565,2.637 -5.127,4.199c-1.579,1.579 -2.979,3.288 -4.216,5.127c-1.22,1.856 -2.262,3.792 -3.125,5.843c-0.846,2.051 -1.481,4.167 -1.92,6.348c-0.44,2.181 -0.651,4.378 -0.651,6.608l-0,265.495c-0,2.23 0.211,4.427 0.651,6.608c0.439,2.164 1.074,4.28 1.92,6.331c0.863,2.067 1.905,4.004 3.125,5.86c1.237,1.839 2.637,3.548 4.216,5.126c1.562,1.563 3.271,2.963 5.127,4.2c1.839,1.237 3.792,2.278 5.843,3.125c2.051,0.846 4.167,1.497 6.348,1.92c2.181,0.44 4.378,0.651 6.608,0.651l155.615,0l-0,364.34l-218.718,-0c-49.007,-24.154 -38.509,-69.402 -16.536,-97.933c1.221,-1.514 2.295,-3.109 3.239,-4.802c0.944,-1.693 1.725,-3.45 2.36,-5.273c0.635,-1.823 1.123,-3.679 1.432,-5.599c0.326,-1.905 0.472,-3.825 0.472,-5.746c-0.016,-1.937 -0.195,-3.857 -0.537,-5.761c-0.342,-1.905 -0.83,-3.76 -1.497,-5.583c-0.651,-1.823 -1.465,-3.565 -2.425,-5.241c-0.961,-1.676 -2.051,-3.271 -3.272,-4.753c-94.124,-114.111 -98.421,-317.382 -98.454,-318.88Zm1152.64,-658.512c51.595,61.068 135.514,161.295 226.839,273.779l-51.774,49.984l-27.783,-35.433c-1.367,-1.742 -2.897,-3.337 -4.59,-4.785c-1.676,-1.449 -3.483,-2.718 -5.42,-3.809c-1.937,-1.09 -3.971,-1.986 -6.071,-2.669c-2.116,-0.7 -4.28,-1.172 -6.478,-1.432c-2.213,-0.277 -4.41,-0.326 -6.624,-0.147c-2.214,0.163 -4.395,0.537 -6.543,1.139c-2.132,0.603 -4.199,1.4 -6.185,2.409c-1.969,0.993 -3.841,2.181 -5.583,3.548c-1.757,1.384 -3.352,2.914 -4.801,4.59c-1.449,1.693 -2.718,3.5 -3.792,5.437c-1.091,1.936 -1.986,3.955 -2.686,6.07c-0.683,2.1 -1.172,4.265 -1.432,6.462c-0.261,2.214 -0.309,4.427 -0.147,6.641c0.163,2.213 0.554,4.378 1.156,6.526c0.586,2.133 1.4,4.2 2.393,6.185c1.009,1.97 2.197,3.841 3.564,5.583l32.08,40.918l-82.65,79.753c-1.595,1.546 -3.027,3.222 -4.297,5.045c-1.253,1.823 -2.343,3.76 -3.222,5.794c-0.879,2.035 -1.563,4.151 -2.035,6.315c-0.472,2.165 -0.732,4.362 -0.765,6.592c-0.048,2.214 0.131,4.427 0.521,6.608c0.407,2.181 1.009,4.314 1.823,6.381c0.814,2.067 1.823,4.036 3.027,5.891c1.189,1.872 2.572,3.614 4.102,5.209c1.546,1.595 3.239,3.027 5.062,4.297c1.823,1.269 3.76,2.343 5.794,3.222c2.035,0.896 4.134,1.563 6.315,2.035c2.165,0.472 4.362,0.732 6.576,0.781c2.23,0.033 4.427,-0.146 6.624,-0.537c2.181,-0.407 4.313,-1.009 6.38,-1.823c2.067,-0.814 4.037,-1.807 5.892,-3.011c1.872,-1.204 3.614,-2.572 5.209,-4.118l179.003,-172.835c30.941,38.509 62.305,77.864 93.099,117.139l-158.707,143.717l-33.757,-41.846c-1.399,-1.741 -2.946,-3.336 -4.638,-4.769c-1.709,-1.432 -3.532,-2.685 -5.485,-3.759c-1.954,-1.075 -4.004,-1.953 -6.12,-2.621c-2.132,-0.683 -4.297,-1.139 -6.511,-1.383c-2.213,-0.244 -4.427,-0.261 -6.657,-0.065c-2.213,0.195 -4.394,0.602 -6.543,1.237c-2.132,0.618 -4.182,1.448 -6.168,2.474c-1.97,1.041 -3.825,2.246 -5.567,3.645c-1.725,1.4 -3.304,2.963 -4.736,4.672c-1.432,1.709 -2.669,3.548 -3.743,5.501c-1.058,1.953 -1.921,4.004 -2.588,6.136c-0.651,2.116 -1.107,4.297 -1.335,6.51c-0.228,2.214 -0.244,4.428 -0.049,6.657c0.212,2.214 0.635,4.395 1.27,6.527c0.635,2.132 1.481,4.183 2.523,6.152c1.041,1.97 2.262,3.825 3.678,5.55l36.182,44.874l-63.217,57.242c-46.321,-60.693 -96.321,-118.213 -149.983,-172.526l-0,-184.179l116.666,-117.188c1.547,-1.579 2.914,-3.288 4.135,-5.143c1.204,-1.839 2.213,-3.792 3.043,-5.843c0.83,-2.035 1.449,-4.151 1.856,-6.315c0.407,-2.165 0.618,-4.362 0.602,-6.56c-0.016,-2.213 -0.244,-4.394 -0.7,-6.559c-0.439,-2.164 -1.091,-4.264 -1.937,-6.299c-0.863,-2.034 -1.904,-3.971 -3.141,-5.794c-1.221,-1.839 -2.621,-3.532 -4.183,-5.094c-1.579,-1.546 -3.272,-2.946 -5.111,-4.167c-1.839,-1.221 -3.776,-2.262 -5.81,-3.109c-2.051,-0.846 -4.151,-1.481 -6.315,-1.92c-2.165,-0.423 -4.346,-0.651 -6.56,-0.651c-2.197,-0 -4.394,0.195 -6.559,0.618c-2.165,0.423 -4.264,1.058 -6.315,1.888c-2.051,0.847 -3.988,1.872 -5.827,3.076c-1.855,1.221 -3.548,2.605 -5.127,4.151l-68.717,69.026l-0,-227.587c18.75,-4.053 38.639,-7.439 59.57,-10.01Zm-680.029,1306.54c-2.621,-0 -5.225,-0.261 -7.796,-0.781c-2.588,-0.521 -5.079,-1.27 -7.504,-2.279c-2.425,-1.009 -4.736,-2.246 -6.917,-3.695c-2.197,-1.465 -4.216,-3.125 -6.071,-4.98c-1.855,-1.856 -3.516,-3.874 -4.98,-6.071c-1.465,-2.181 -2.686,-4.476 -3.695,-6.901c-1.009,-2.442 -1.774,-4.932 -2.295,-7.503c-0.505,-2.588 -0.765,-5.193 -0.765,-7.813l-0,-40.804c-0,-2.637 0.26,-5.241 0.765,-7.813c0.521,-2.571 1.286,-5.078 2.295,-7.503c1.009,-2.425 2.23,-4.736 3.695,-6.917c1.464,-2.181 3.125,-4.199 4.98,-6.055c1.855,-1.855 3.874,-3.515 6.071,-4.98c2.181,-1.465 4.492,-2.686 6.917,-3.695c2.425,-1.009 4.916,-1.774 7.504,-2.295c2.571,-0.504 5.175,-0.765 7.796,-0.765l105.729,0c2.637,0 5.225,0.261 7.812,0.765c2.572,0.521 5.079,1.286 7.504,2.295c2.425,1.009 4.736,2.23 6.917,3.695c2.181,1.465 4.199,3.125 6.055,4.98c1.871,1.856 3.532,3.874 4.98,6.055c1.465,2.181 2.702,4.492 3.711,6.917c1.009,2.425 1.758,4.932 2.279,7.503c0.521,2.572 0.781,5.176 0.781,7.813l-0,40.804c-0,2.62 -0.26,5.225 -0.781,7.813c-0.521,2.571 -1.27,5.061 -2.279,7.503c-1.009,2.425 -2.246,4.72 -3.711,6.901c-1.448,2.197 -3.109,4.215 -4.98,6.071c-1.856,1.855 -3.874,3.515 -6.055,4.98c-2.181,1.449 -4.492,2.686 -6.917,3.695c-2.425,1.009 -4.932,1.758 -7.504,2.279c-2.587,0.52 -5.175,0.781 -7.812,0.781l-105.729,-0Zm-99.886,-120.801c-10.336,21.436 -7.52,57.227 -7.813,80.827c0.016,13.851 2.621,27.181 7.813,40.023l-232.178,-0l-0,-120.801l232.178,-0.049Zm305.517,0l284.538,0l-0.553,120.801l-283.985,-0c10.319,-21.452 7.52,-57.227 7.796,-80.827c0,-13.851 -2.604,-27.197 -7.796,-40.039l0,0.065Zm352.295,-18.636c46.843,-44.189 55.86,-121.924 8.268,-182.65c44.597,-72.347 59.082,-211.344 54.265,-368.636c66.65,74.479 127.702,153.304 183.138,236.458c-10.694,9.115 -19.841,19.581 -27.442,31.397c-7.617,11.816 -13.346,24.479 -17.203,37.988c-20.655,72.266 -37.582,145.394 -50.782,219.385c-12.142,-0.798 -24.218,-0.342 -36.263,1.335c-12.044,1.676 -23.795,4.557 -35.254,8.642c-11.458,4.069 -22.379,9.261 -32.78,15.576c-10.4,6.299 -20.052,13.591 -28.971,21.859l-17.171,16.097l0.195,-37.451Zm-5.143,-455.469c-0,186.524 -53.499,251.839 -53.662,252.035c-1.4,1.53 -2.637,3.19 -3.727,4.964c-1.091,1.774 -2.019,3.629 -2.767,5.566c-0.749,1.937 -1.302,3.939 -1.693,5.99c-0.374,2.034 -0.57,4.101 -0.57,6.185c0,2.083 0.196,4.15 0.57,6.185c0.391,2.05 0.944,4.036 1.693,5.989c0.748,1.937 1.676,3.793 2.767,5.567c1.09,1.774 2.327,3.434 3.727,4.964c35.286,36.881 42.35,78.89 12.028,108.952l-297.705,-0l-0,-364.291l155.615,0c2.23,0 4.427,-0.211 6.608,-0.651c2.165,-0.423 4.281,-1.074 6.331,-1.92c2.068,-0.847 4.004,-1.888 5.86,-3.125c1.839,-1.237 3.548,-2.637 5.127,-4.2c1.562,-1.578 2.962,-3.287 4.199,-5.126c1.237,-1.856 2.279,-3.793 3.125,-5.86c0.863,-2.051 1.497,-4.167 1.937,-6.331c0.423,-2.181 0.651,-4.378 0.651,-6.608l-0,-265.479c-0,-2.23 -0.228,-4.427 -0.651,-6.608c-0.44,-2.165 -1.074,-4.28 -1.937,-6.331c-0.846,-2.067 -1.888,-4.004 -3.125,-5.86c-1.237,-1.839 -2.637,-3.548 -4.199,-5.127c-1.579,-1.562 -3.288,-2.962 -5.127,-4.199c-1.856,-1.237 -3.792,-2.278 -5.86,-3.125c-2.05,-0.846 -4.166,-1.497 -6.331,-1.92c-2.181,-0.44 -4.378,-0.651 -6.608,-0.651l-155.632,-0l0,-204.346c64.665,-30.143 125.993,-65.999 183.985,-107.568c0.83,-0.717 55.696,-46.794 155.371,-80.127l-0,683.056Zm-373.177,-223.307l155.615,-0l0,197.77l-155.615,0c-2.23,0 -4.427,0.212 -6.608,0.651c-2.181,0.44 -4.297,1.074 -6.348,1.921c-2.051,0.846 -4.004,1.888 -5.843,3.125c-1.855,1.237 -3.564,2.636 -5.127,4.215c-1.579,1.563 -2.978,3.272 -4.215,5.127c-1.237,1.839 -2.279,3.792 -3.125,5.843c-0.847,2.051 -1.482,4.167 -1.921,6.348c-0.439,2.181 -0.651,4.378 -0.651,6.592l-0,398.161l-216.781,-0l0,-398.161c0,-2.214 -0.211,-4.411 -0.651,-6.592c-0.423,-2.181 -1.074,-4.297 -1.92,-6.348c-0.847,-2.051 -1.888,-4.004 -3.125,-5.843c-1.237,-1.855 -2.637,-3.564 -4.216,-5.127c-1.562,-1.579 -3.271,-2.978 -5.127,-4.215c-1.839,-1.237 -3.792,-2.279 -5.843,-3.125c-2.051,-0.847 -4.166,-1.481 -6.347,-1.921c-2.181,-0.439 -4.379,-0.651 -6.592,-0.651l-155.632,0l0,-197.835l155.632,-0c2.213,-0 4.411,-0.212 6.592,-0.651c2.181,-0.44 4.296,-1.074 6.347,-1.921c2.051,-0.846 4.004,-1.888 5.843,-3.125c1.856,-1.237 3.565,-2.637 5.127,-4.215c1.579,-1.563 2.979,-3.272 4.216,-5.127c1.237,-1.839 2.278,-3.793 3.125,-5.843c0.846,-2.051 1.497,-4.167 1.92,-6.348c0.44,-2.181 0.651,-4.378 0.651,-6.592l0,-186.523c71.452,4.899 144.662,3.971 216.814,-24.024l-0,210.58c-0,2.213 0.211,4.411 0.651,6.592c0.439,2.181 1.074,4.28 1.936,6.331c0.847,2.051 1.888,4.004 3.125,5.843c1.221,1.839 2.621,3.548 4.2,5.127c1.562,1.562 3.271,2.962 5.11,4.199c1.856,1.221 3.793,2.263 5.843,3.125c2.051,0.847 4.167,1.481 6.348,1.921c2.165,0.439 4.362,0.651 6.592,0.651l-0,0.065Zm-532.699,885.905l396.94,-0c7.911,15.12 28.028,61.279 28.028,139.16l-0,222.201l-606.039,-0c44.776,-220.492 150.944,-333.138 181.071,-361.41l0,0.049Zm492.66,361.312c-1.937,-81.739 10.237,-296.273 -22.233,-361.312l397.184,-0c114.909,65.576 159.196,275.423 172.77,361.312l-547.721,-0Zm1128.86,-806.511c-60.221,92.936 -179.085,267.318 -295.784,388.867l-180.111,202.035c-5.046,5.631 -10.71,10.514 -17.025,14.697c-6.299,4.167 -13.037,7.471 -20.198,9.896c-7.145,2.441 -14.502,3.939 -22.038,4.476c-7.536,0.553 -15.023,0.13 -22.461,-1.253c-30.42,-87.647 -78.597,-178.988 -153.564,-226.774l0.097,-23.194l63.916,-59.961c4.932,-4.638 10.254,-8.772 15.967,-12.402c5.713,-3.63 11.703,-6.689 18.001,-9.18c6.299,-2.49 12.761,-4.378 19.418,-5.631c6.64,-1.27 13.346,-1.904 20.117,-1.888l42.285,-0c2.035,-0 4.036,-0.179 6.038,-0.554c1.986,-0.358 3.923,-0.895 5.827,-1.595c1.888,-0.716 3.711,-1.578 5.453,-2.62c1.741,-1.042 3.369,-2.214 4.899,-3.548c1.53,-1.335 2.913,-2.783 4.183,-4.362c1.269,-1.579 2.376,-3.255 3.353,-5.046c0.96,-1.774 1.757,-3.629 2.392,-5.55c0.635,-1.921 1.091,-3.89 1.367,-5.892c12.907,-80.892 30.762,-160.693 53.549,-239.388c1.106,-3.906 2.522,-7.682 4.248,-11.344c1.709,-3.679 3.711,-7.178 6.005,-10.515c2.279,-3.352 4.818,-6.494 7.618,-9.423c2.783,-2.93 5.794,-5.616 9.017,-8.073c3.239,-2.442 6.64,-4.623 10.221,-6.511c3.564,-1.904 7.275,-3.499 11.116,-4.801c3.842,-1.302 7.748,-2.295 11.752,-2.962c3.987,-0.668 8.008,-1.01 12.06,-1.026l348.731,0c2.539,-0.016 5.045,0.309 7.487,0.977c2.457,0.651 4.769,1.627 6.95,2.929c2.181,1.286 4.166,2.849 5.924,4.672c1.758,1.839 3.239,3.873 4.443,6.103c1.221,2.23 2.1,4.574 2.67,7.048c0.569,2.474 0.797,4.98 0.683,7.519c-0.097,2.539 -0.553,5.013 -1.334,7.422c-0.782,2.409 -1.872,4.671 -3.272,6.803l0,0.049Zm-13.362,-110.53c-22.803,-0.098 -376.449,-4.33 -390.625,2.994c-14.502,-21.809 -32.536,-48.03 -53.37,-76.822l273.21,-247.396c28.239,36.539 55.615,72.558 81.348,107.275l-46.647,44.011c-18.523,-22.282 -38.021,-59.522 -71.794,-35.417c-32.536,29.183 4.932,58.17 22.428,81.999l-24.479,23.112c-2.425,2.343 -4.443,4.98 -6.087,7.926c-1.628,2.946 -2.799,6.055 -3.516,9.359c-0.716,3.287 -0.927,6.608 -0.651,9.961c0.293,3.353 1.042,6.608 2.295,9.733c1.237,3.125 2.914,6.006 5.013,8.642c2.1,2.637 4.525,4.899 7.308,6.804c2.767,1.92 5.762,3.385 8.968,4.394c3.207,1.026 6.494,1.563 9.864,1.595c4.313,0.017 8.479,-0.781 12.483,-2.376c4.02,-1.595 7.585,-3.874 10.726,-6.836l114.323,-107.878c9.131,10.97 17.09,22.738 23.91,35.271c6.803,12.548 12.304,25.651 16.536,39.274c4.216,13.639 7.064,27.555 8.545,41.748c1.465,14.209 1.546,28.401 0.212,42.627Zm-1956.48,-968.685c35.612,-19.108 80.501,-38.77 121.224,-58.952c123.925,-59.196 192.887,-218.701 190.983,-359.424l-0,-285.14c20.117,-487.532 715.283,-487.793 735.465,0l0,313.07c-4.573,136.702 66.569,268.408 209.88,289.404c102.132,15.3 178.922,50.472 228.239,104.59c2.832,3.06 5.176,6.462 6.998,10.205c1.823,3.744 3.077,7.682 3.744,11.8c0.667,4.118 0.716,8.236 0.163,12.37c-0.554,4.134 -1.709,8.089 -3.435,11.881c-1.66,4.069 -3.873,7.813 -6.656,11.231c-2.767,3.402 -5.974,6.331 -9.62,8.805c-3.645,2.458 -7.568,4.33 -11.767,5.632c-4.199,1.286 -8.496,1.953 -12.907,1.969c-240.023,4.216 -380.42,115.772 -396.419,129.167c-221.794,155.68 -450.082,242.252 -786.247,-26.937c-89.73,-65.495 -175.391,-102.23 -254.557,-109.196c-4.037,-0.325 -7.927,-1.269 -11.654,-2.848c-3.727,-1.579 -7.113,-3.711 -10.14,-6.38c-3.044,-2.653 -5.599,-5.746 -7.65,-9.229c-2.034,-3.483 -3.483,-7.21 -4.329,-11.165c-0.847,-3.955 -1.058,-7.959 -0.619,-11.98c0.44,-4.02 1.514,-7.861 3.19,-11.539c1.693,-3.679 3.907,-7.015 6.657,-9.977c2.767,-2.963 5.909,-5.404 9.457,-7.357Zm-370.98,1020.95c-0,3.581 -0.358,7.113 -1.058,10.612c-0.7,3.499 -1.725,6.901 -3.109,10.205c-1.367,3.288 -3.043,6.429 -5.029,9.391c-1.986,2.979 -4.232,5.713 -6.755,8.252c-2.522,2.523 -5.273,4.769 -8.252,6.755c-2.962,1.986 -6.103,3.662 -9.391,5.029c-3.304,1.367 -6.706,2.409 -10.205,3.109c-3.499,0.7 -7.047,1.042 -10.612,1.058l-159.863,-0c-3.565,-0.016 -7.097,-0.358 -10.596,-1.058c-3.515,-0.7 -6.901,-1.742 -10.205,-3.109c-3.304,-1.367 -6.429,-3.043 -9.407,-5.029c-2.963,-1.986 -5.713,-4.232 -8.236,-6.771c-2.523,-2.523 -4.785,-5.257 -6.771,-8.236c-1.969,-2.962 -3.646,-6.103 -5.029,-9.391c-1.367,-3.304 -2.393,-6.706 -3.093,-10.205c-0.7,-3.499 -1.058,-7.031 -1.058,-10.612l0,-214.128c0,-3.58 0.358,-7.112 1.058,-10.612c0.7,-3.499 1.726,-6.901 3.093,-10.205c1.383,-3.287 3.06,-6.429 5.029,-9.391c1.986,-2.978 4.248,-5.713 6.771,-8.252c2.523,-2.523 5.273,-4.769 8.236,-6.754c2.978,-1.986 6.103,-3.662 9.407,-5.03c3.304,-1.367 6.69,-2.409 10.205,-3.108c3.499,-0.7 7.031,-1.042 10.596,-1.058l214.274,-0l-0,268.538Zm183.463,-1398.49l0,377.343c-33.138,-19.905 -67.838,-36.588 -104.069,-50.065c-36.23,-13.492 -73.388,-23.535 -111.474,-30.159l-0,-216.96c38.086,-6.575 75.26,-16.618 111.491,-30.094c36.23,-13.477 70.914,-30.16 104.052,-50.065Zm-457.015,-231.055c11.882,-83.284 29.2,-165.413 51.97,-246.387c22.754,-80.989 50.765,-160.107 84.001,-237.386c33.252,77.279 61.263,156.397 84.033,237.386c22.754,80.974 40.088,163.103 51.953,246.387c-6.885,3.662 -13.526,7.731 -19.906,12.24c-6.38,4.492 -12.451,9.375 -18.213,14.648c-5.761,5.257 -11.181,10.872 -16.243,16.813c-5.046,5.941 -9.717,12.191 -13.981,18.718c-4.281,6.543 -8.122,13.313 -11.54,20.328c-3.418,7.032 -6.38,14.226 -8.887,21.615c-2.506,7.406 -4.541,14.925 -6.103,22.575c-1.563,7.633 -2.637,15.364 -3.223,23.144c-0.325,1.791 0,1141.16 -0.097,1143.26l-75.586,0c-0.082,-2.425 0.162,-1141.05 -0.082,-1143.26c-0.586,-7.78 -1.66,-15.494 -3.222,-23.144c-1.563,-7.65 -3.597,-15.169 -6.104,-22.559c-2.506,-7.405 -5.469,-14.599 -8.887,-21.614c-3.418,-7.032 -7.259,-13.802 -11.539,-20.345c-4.265,-6.527 -8.936,-12.761 -13.982,-18.718c-5.061,-5.941 -10.465,-11.556 -16.243,-16.813c-5.762,-5.273 -11.833,-10.14 -18.213,-14.648c-6.38,-4.493 -13.004,-8.578 -19.906,-12.24Zm30.534,532.357c-52.099,9.847 -102.457,25.358 -151.074,46.533c-48.616,21.175 -94.271,47.494 -136.963,78.939l0,-476.319c42.692,31.462 88.33,57.78 136.947,78.956c48.616,21.175 98.991,36.686 151.09,46.533l0,225.358Zm-429.166,-498.682c21.744,31.901 46.256,61.524 73.519,88.851l-0,594.352c-27.263,27.328 -51.775,56.95 -73.519,88.851l-0,-772.054Z" style="fill:#3b3b4e;fill-rule:nonzero;"/></g><path d="M1734.76,1250.46c38.9,14.144 190.218,13.688 164.242,-54.248c-0.912,-2.035 -2.002,-3.955 -3.288,-5.762c-1.286,-1.807 -2.751,-3.467 -4.362,-4.997c-1.611,-1.53 -3.369,-2.881 -5.257,-4.053c-1.872,-1.188 -3.858,-2.164 -5.941,-2.945c-2.067,-0.798 -4.199,-1.368 -6.396,-1.742c-2.198,-0.374 -4.395,-0.521 -6.625,-0.456c-2.213,0.065 -4.411,0.342 -6.575,0.847c-2.165,0.504 -4.265,1.204 -6.283,2.115c-109.001,44.662 -234.147,-47.298 -257.65,-156.331c112.126,126.986 321.338,122.982 428.597,-7.666l0,151.302c-3.613,94.092 -73.177,174.382 -211.751,171.745c-2.23,-0 -4.427,0.212 -6.608,0.651c-2.181,0.439 -4.297,1.074 -6.348,1.921c-2.05,0.862 -4.004,1.904 -5.843,3.125c-1.855,1.237 -3.564,2.636 -5.127,4.215c-1.579,1.563 -2.978,3.272 -4.215,5.127c-1.237,1.839 -2.279,3.792 -3.125,5.843c-0.847,2.051 -1.481,4.167 -1.921,6.348c-0.439,2.181 -0.651,4.378 -0.651,6.592c0,2.229 0.212,4.427 0.651,6.608c0.44,2.181 1.074,4.28 1.921,6.347c0.846,2.051 1.888,3.988 3.125,5.843c1.237,1.84 2.636,3.549 4.215,5.127c1.563,1.563 3.272,2.963 5.127,4.2c1.839,1.237 3.793,2.278 5.843,3.125c2.051,0.846 4.167,1.497 6.348,1.936c2.181,0.424 4.378,0.635 6.608,0.635c91.065,0 162.305,-25.488 211.751,-75.781c10.433,-11.035 19.776,-22.917 28.011,-35.661c8.252,-12.744 15.267,-26.139 21.045,-40.169c5.778,-14.03 10.238,-28.467 13.363,-43.327c3.125,-14.844 4.883,-29.866 5.241,-45.036l-0,-624.87c-13.281,-377.571 -557.715,-377.587 -570.573,0l-0,426.921c-0.049,7.91 0.228,15.82 0.83,23.714c0.586,7.878 1.497,15.739 2.734,23.552c1.237,7.828 2.8,15.576 4.655,23.258c1.872,7.699 4.053,15.3 6.543,22.819c2.474,7.503 5.257,14.909 8.35,22.201c3.092,7.275 6.478,14.436 10.14,21.435c3.662,7.015 7.617,13.867 11.849,20.557c4.232,6.689 8.724,13.2 13.476,19.531c4.753,6.315 9.766,12.435 15.023,18.359c5.257,5.925 10.742,11.622 16.455,17.09c5.713,5.469 11.654,10.694 17.79,15.69c6.152,4.981 12.484,9.717 19.027,14.193c6.526,4.46 13.216,8.675 20.101,12.598c6.868,3.922 13.883,7.568 21.045,10.921c7.177,3.353 14.469,6.413 21.891,9.18c7.405,2.767 14.925,5.224 22.542,7.373Zm72.819,-201.791c-7.113,-0.016 -14.225,-0.374 -21.321,-1.074c-7.081,-0.7 -14.128,-1.758 -21.111,-3.157c-6.982,-1.384 -13.883,-3.125 -20.703,-5.192c-6.819,-2.084 -13.525,-4.476 -20.101,-7.211c-6.575,-2.734 -13.02,-5.778 -19.303,-9.131c-6.282,-3.369 -12.37,-7.015 -18.294,-10.986c-5.925,-3.955 -11.638,-8.187 -17.155,-12.712c-5.501,-4.524 -10.775,-9.309 -15.82,-14.339c-5.03,-5.029 -9.815,-10.302 -14.34,-15.82c-4.524,-5.501 -8.756,-11.214 -12.711,-17.139c-3.972,-5.924 -7.634,-12.028 -10.987,-18.31c-3.369,-6.267 -6.412,-12.712 -9.147,-19.287c-2.718,-6.576 -5.127,-13.282 -7.194,-20.085c-2.083,-6.82 -3.808,-13.721 -5.208,-20.703c-1.4,-6.999 -2.441,-14.03 -3.158,-21.11c-0.699,-7.096 -1.058,-14.209 -1.074,-21.322l0,-265.495c30.534,32.862 75.049,62.826 139.095,84.489c2.116,0.879 4.297,1.514 6.543,1.921c2.246,0.407 4.525,0.553 6.804,0.472c2.278,-0.098 4.524,-0.439 6.738,-1.025c2.213,-0.586 4.329,-1.4 6.364,-2.442c2.034,-1.058 3.922,-2.311 5.68,-3.776c1.758,-1.465 3.337,-3.092 4.736,-4.899c1.4,-1.807 2.588,-3.76 3.565,-5.827c0.96,-2.067 1.709,-4.215 2.213,-6.445l17.823,-56.445c41.699,33.756 116.113,73.616 235.709,76.058l0,183.414c-0.016,7.113 -0.374,14.226 -1.074,21.322c-0.716,7.08 -1.758,14.111 -3.157,21.11c-1.4,6.982 -3.125,13.883 -5.209,20.703c-2.067,6.803 -4.476,13.509 -7.194,20.085c-2.734,6.575 -5.778,13.004 -9.147,19.287c-3.353,6.282 -7.015,12.386 -10.986,18.31c-3.955,5.925 -8.203,11.638 -12.712,17.139c-4.525,5.518 -9.31,10.791 -14.339,15.82c-5.046,5.03 -10.319,9.815 -15.82,14.339c-5.518,4.509 -11.231,8.757 -17.155,12.712c-5.925,3.971 -12.028,7.617 -18.311,10.986c-6.282,3.353 -12.711,6.397 -19.287,9.131c-6.575,2.735 -13.281,5.127 -20.101,7.211c-6.819,2.067 -13.721,3.808 -20.703,5.192c-6.982,1.399 -14.03,2.457 -21.11,3.157c-7.096,0.7 -14.209,1.058 -21.338,1.074Zm0,-725.227c140.267,1.188 231.266,121.305 217.643,256.705c-163.964,-3.694 -219.742,-87.174 -222.005,-90.657c-1.725,-2.735 -3.792,-5.16 -6.201,-7.292c-2.425,-2.132 -5.094,-3.89 -8.008,-5.273c-2.913,-1.384 -5.957,-2.328 -9.147,-2.832c-3.174,-0.521 -6.364,-0.586 -9.57,-0.179c-3.207,0.39 -6.283,1.22 -9.245,2.49c-2.962,1.269 -5.697,2.929 -8.187,4.964c-2.49,2.051 -4.655,4.394 -6.478,7.064c-1.823,2.653 -3.239,5.517 -4.248,8.577l-24.17,76.612c-67.024,-29.59 -98.926,-73.096 -114.062,-109.196c1.92,-5.16 4.036,-10.222 6.347,-15.219c2.312,-4.98 4.802,-9.879 7.471,-14.664c2.686,-4.802 5.55,-9.489 8.578,-14.079c3.043,-4.574 6.25,-9.033 9.619,-13.379c3.369,-4.329 6.901,-8.529 10.595,-12.598c3.695,-4.069 7.553,-7.991 11.54,-11.767c3.988,-3.776 8.122,-7.389 12.386,-10.856c4.265,-3.467 8.659,-6.755 13.184,-9.88c4.525,-3.141 9.147,-6.087 13.9,-8.854c4.736,-2.783 9.586,-5.371 14.518,-7.78c4.948,-2.409 9.961,-4.622 15.071,-6.657c5.111,-2.018 10.287,-3.841 15.544,-5.485c5.241,-1.627 10.547,-3.06 15.902,-4.28c5.355,-1.221 10.758,-2.247 16.194,-3.077c5.437,-0.813 10.889,-1.416 16.374,-1.823c5.485,-0.406 10.97,-0.602 16.455,-0.585Z" style="fill:#3b3b4e;fill-rule:nonzero;"/></svg>