<?xml version="1.0" encoding="UTF-8" standalone="no"?><!DOCTYPE svg PUBLIC "-//W3C//DTD SVG 1.1//EN" "http://www.w3.org/Graphics/SVG/1.1/DTD/svg11.dtd"><svg width="100%" height="100%" viewBox="0 0 4688 4688" version="1.1" xmlns="http://www.w3.org/2000/svg" xmlns:xlink="http://www.w3.org/1999/xlink" xml:space="preserve" xmlns:serif="http://www.serif.com/" style="fill-rule:evenodd;clip-rule:evenodd;stroke-linejoin:round;stroke-miterlimit:2;"><g><g><g><clipPath id="_clip1"><path d="M933.122,468.75l3257.7,464.404l-464.42,3257.7l-3257.68,-464.404l464.405,-3257.7Z"/></clipPath><g clip-path="url(#_clip1)"><g><clipPath id="_clip2"><path d="M933.122,468.75l3257.7,464.404l-464.42,3257.7l-3257.68,-464.404l464.405,-3257.7Z"/></clipPath><g clip-path="url(#_clip2)"><g><clipPath id="_clip3"><path d="M933.122,468.75l3257.7,464.404l-464.42,3257.7l-3257.68,-464.404l464.405,-3257.7Z"/></clipPath><g clip-path="url(#_clip3)"><path d="M1702.83,1248.75c0,-0 -66.292,-39.763 -55.159,-145.15c2.669,-23.437 -0.017,-46.24 -8.025,-68.424c-0.846,-2.23 -1.741,-4.493 -2.718,-6.755c-41.064,-95.41 -182.503,-77.555 -201.481,24.512c-0.276,1.448 -0.521,2.946 -0.765,4.427c0,-0 -78.353,-146.257 -242.627,-89.47c0,0 -110.481,34.782 -95.98,169.89c0,-0 -144.498,-7.894 -158.642,150.504c-0,0 -7.65,98.096 74.805,156.283c-0,-0 -49.659,11.051 -97.282,66.048c-6.071,7.031 -11.8,14.339 -17.188,21.908c-5.387,7.568 -10.416,15.364 -15.071,23.404c-4.672,8.041 -8.952,16.277 -12.842,24.724c-3.89,8.431 -7.39,17.025 -10.482,25.781c-3.092,8.773 -5.778,17.66 -8.057,26.66c-2.262,9.017 -4.101,18.115 -5.533,27.295c-1.417,9.18 -2.409,18.408 -2.979,27.686c-0.553,9.277 -0.684,18.554 -0.391,27.848c0.293,9.277 1.026,18.538 2.198,27.751c1.155,9.228 2.75,18.375 4.752,27.441c2.018,9.066 4.444,18.034 7.292,26.872c2.848,8.854 6.103,17.545 9.749,26.09c3.662,8.545 7.699,16.895 12.142,25.065c4.427,8.171 9.229,16.114 14.404,23.828c5.176,7.715 10.694,15.186 16.553,22.38c5.876,7.21 12.061,14.128 18.571,20.752c61.524,61.67 163.851,113.232 334.033,114.925l109.603,15.625l331.12,-797.9Z" style="fill:#f65d5d;fill-rule:nonzero;"/></g></g></g></g></g></g></g><g><g><clipPath id="_clip4"><path d="M933.122,468.75l3257.7,464.404l-464.42,3257.7l-3257.68,-464.404l464.405,-3257.7Z"/></clipPath><g clip-path="url(#_clip4)"><g><clipPath id="_clip5"><path d="M933.122,468.75l3257.7,464.404l-464.42,3257.7l-3257.68,-464.404l464.405,-3257.7Z"/></clipPath><g clip-path="url(#_clip5)"><g><clipPath id="_clip6"><path d="M933.122,468.75l3257.7,464.404l-464.42,3257.7l-3257.68,-464.404l464.405,-3257.7Z"/></clipPath><g clip-path="url(#_clip6)"><path d="M1334.77,1320.12c-0,0 -219.239,111.589 -395.459,-47.428c-0.765,5.013 -1.449,10.172 -1.921,15.576c0,-0 -7.65,98.096 74.805,156.299c-0,-0 -49.658,11.051 -97.282,66.032c-6.071,7.047 -11.8,14.339 -17.188,21.907c-5.387,7.585 -10.416,15.381 -15.071,23.421c-4.671,8.041 -8.952,16.277 -12.842,24.708c-3.89,8.431 -7.389,17.041 -10.482,25.797c-3.109,8.757 -5.778,17.643 -8.056,26.66c-2.263,9.017 -4.102,18.099 -5.534,27.295c-1.416,9.18 -2.409,18.408 -2.979,27.686c-0.553,9.277 -0.7,18.554 -0.39,27.832c0.293,9.293 1.025,18.554 2.197,27.767c1.155,9.212 2.75,18.359 4.752,27.441c2.019,9.066 4.444,18.018 7.292,26.872c2.848,8.838 6.104,17.545 9.749,26.074c3.663,8.545 7.699,16.911 12.142,25.065c4.427,8.171 9.229,16.113 14.405,23.828c5.175,7.731 10.693,15.186 16.552,22.396c5.876,7.21 12.061,14.128 18.571,20.752c61.524,61.67 163.851,113.216 334.034,114.925l109.651,15.625l217.578,-524.267c-119.856,-100.668 -254.524,-202.263 -254.524,-202.263Z" style="fill:#c34444;fill-rule:nonzero;"/></g></g></g></g></g></g></g><g><g><clipPath id="_clip7"><path d="M933.122,468.75l3257.7,464.404l-464.42,3257.7l-3257.68,-464.404l464.405,-3257.7Z"/></clipPath><g clip-path="url(#_clip7)"><g><clipPath id="_clip8"><path d="M933.122,468.75l3257.7,464.404l-464.42,3257.7l-3257.68,-464.404l464.405,-3257.7Z"/></clipPath><g clip-path="url(#_clip8)"><g><clipPath id="_clip9"><path d="M933.122,468.75l3257.7,464.404l-464.42,3257.7l-3257.68,-464.404l464.405,-3257.7Z"/></clipPath><g clip-path="url(#_clip9)"><path d="M1597.59,1944.89c0,0 328.304,46.81 390.869,390.658l-204.248,60.417l-186.621,-451.075Z" style="fill:#94a6c1;fill-rule:nonzero;"/></g></g></g></g></g></g></g><g><g><clipPath id="_clip10"><path d="M933.122,468.75l3257.7,464.404l-464.42,3257.7l-3257.68,-464.404l464.405,-3257.7Z"/></clipPath><g clip-path="url(#_clip10)"><g><clipPath id="_clip11"><path d="M933.122,468.75l3257.7,464.404l-464.42,3257.7l-3257.68,-464.404l464.405,-3257.7Z"/></clipPath><g clip-path="url(#_clip11)"><g><clipPath id="_clip12"><path d="M933.122,468.75l3257.7,464.404l-464.42,3257.7l-3257.68,-464.404l464.405,-3257.7Z"/></clipPath><g clip-path="url(#_clip12)"><path d="M4062.87,1049.33c0.993,-1.009 1.774,-2.149 2.344,-3.435c0.57,-1.285 0.895,-2.636 0.96,-4.052c0.082,-1.4 -0.114,-2.784 -0.553,-4.118c-0.439,-1.335 -1.09,-2.555 -1.986,-3.646c-0.895,-1.107 -1.953,-2.002 -3.174,-2.702c-1.22,-0.7 -2.522,-1.155 -3.922,-1.383c-1.383,-0.212 -2.783,-0.179 -4.15,0.114c-1.384,0.309 -2.67,0.83 -3.842,1.611l-31.298,20.443l-937.533,676.025l-578.678,303.011c-196.355,108.431 -554.639,293.083 -810.922,348.389l192.172,969.157c-0,-0 628.743,-722.347 956.152,-1072.64l1224.43,-1226.77Z" style="fill:#94a6c1;fill-rule:nonzero;"/></g></g></g></g></g></g></g><g><g><clipPath id="_clip13"><path d="M933.122,468.75l3257.7,464.404l-464.42,3257.7l-3257.68,-464.404l464.405,-3257.7Z"/></clipPath><g clip-path="url(#_clip13)"><g><clipPath id="_clip14"><path d="M933.122,468.75l3257.7,464.404l-464.42,3257.7l-3257.68,-464.404l464.405,-3257.7Z"/></clipPath><g clip-path="url(#_clip14)"><g><clipPath id="_clip15"><path d="M933.122,468.75l3257.7,464.404l-464.42,3257.7l-3257.68,-464.404l464.405,-3257.7Z"/></clipPath><g clip-path="url(#_clip15)"><path d="M2702.02,3376.72c0,0 195.768,114.144 282.048,379.932c2.181,6.608 5.062,12.907 8.642,18.864c3.581,5.973 7.797,11.474 12.614,16.487c4.818,5.03 10.124,9.457 15.935,13.282c5.826,3.841 11.979,6.966 18.505,9.424c81.495,30.875 254.265,71.94 331.674,-93.588c9.016,-19.58 13.362,-40.136 13.02,-61.686c-0.699,-71.045 -7.34,-257.568 -55.338,-411.182l17.106,-447.737l-496.81,-577.035l-1270.56,1146.14c0,-0 9.603,428.092 538.249,518.164c0,-0 176.742,-42.513 417.692,-349.512c0,0 72.884,-98.502 167.22,-161.556Z" style="fill:#feb4a6;fill-rule:nonzero;"/></g></g></g></g></g></g></g><g><g><clipPath id="_clip16"><path d="M933.122,468.75l3257.7,464.404l-464.42,3257.7l-3257.68,-464.404l464.405,-3257.7Z"/></clipPath><g clip-path="url(#_clip16)"><g><clipPath id="_clip17"><path d="M933.122,468.75l3257.7,464.404l-464.42,3257.7l-3257.68,-464.404l464.405,-3257.7Z"/></clipPath><g clip-path="url(#_clip17)"><g><clipPath id="_clip18"><path d="M933.122,468.75l3257.7,464.404l-464.42,3257.7l-3257.68,-464.404l464.405,-3257.7Z"/></clipPath><g clip-path="url(#_clip18)"><path d="M2353.22,3735.86c-102.979,35.563 -226.254,45.996 -311.914,-51.4c-156.836,-178.304 -29.525,-385.042 -29.525,-385.042c49.202,63.525 127.523,112.158 190.137,143.718c2.278,1.139 4.622,2.115 7.031,2.929c2.392,0.83 4.85,1.498 7.34,2.002c2.491,0.505 4.997,0.847 7.536,1.026c2.523,0.179 5.062,0.211 7.601,0.048c2.539,-0.146 5.062,-0.455 7.552,-0.927c2.49,-0.472 4.948,-1.107 7.373,-1.905c2.409,-0.781 4.753,-1.725 7.048,-2.832c2.295,-1.09 4.508,-2.343 6.64,-3.727c2.132,-1.383 4.151,-2.897 6.088,-4.541c1.936,-1.66 3.759,-3.418 5.468,-5.306c1.693,-1.888 3.272,-3.874 4.72,-5.957c1.449,-2.083 2.751,-4.264 3.923,-6.527c1.155,-2.246 2.181,-4.573 3.044,-6.966c0.862,-2.392 1.562,-4.834 2.115,-7.308c0.538,-2.474 0.928,-4.98 1.156,-7.519c0.212,-2.523 0.277,-5.062 0.163,-7.601c-4.769,-165.69 67.936,-334.717 67.936,-334.717c14.762,22.396 55.322,38.704 55.322,38.704c139.095,-44.433 236.996,-177.653 236.996,-177.653c5.013,33.724 15.918,65.43 32.731,95.118c1.562,2.897 3.401,5.647 5.469,8.219c2.067,2.588 4.362,4.964 6.868,7.129c2.49,2.165 5.176,4.085 8.024,5.762c2.848,1.692 5.827,3.108 8.936,4.248c3.092,1.155 6.282,2.002 9.537,2.588c3.256,0.569 6.543,0.846 9.847,0.83c3.321,-0.033 6.592,-0.342 9.847,-0.961c3.256,-0.602 6.429,-1.497 9.506,-2.685c35.009,-13.786 86.8,-20.443 122.168,36.295c33.691,54.004 9.928,86.833 -18.929,105.567c-3.174,2.148 -6.104,4.59 -8.822,7.308c-2.702,2.702 -5.143,5.648 -7.292,8.821c-2.148,3.174 -3.987,6.527 -5.501,10.043c-1.514,3.532 -2.686,7.161 -3.532,10.905c-0.83,3.743 -1.302,7.519 -1.416,11.36c-0.114,3.825 0.147,7.634 0.749,11.426c0.602,3.792 1.562,7.487 2.864,11.084c1.302,3.613 2.946,7.064 4.899,10.352l125.196,216.943l-57.715,105.68c18.603,28.89 35.156,58.92 49.658,90.105c33.61,-34.278 61.621,-72.624 84.017,-115.088c22.689,24.788 78.906,44.384 107.796,36.474c53.972,-14.811 120.004,-38.948 179.639,-23.454c18.929,4.916 47.184,9.75 59.831,2.165c-1.628,-21.045 -48.747,-311.019 -52.279,-322.331l15.43,-403.71l-327.507,-31.153l1.921,-1.351l15.771,-173.177c0,0 -61.93,-156.51 -92.431,-46.891c-18.702,67.383 6.64,47.868 -22.559,74.316c10.303,-61.588 -8.089,-137.435 -47.493,-233.398c-3.923,-9.538 -55.274,-32.129 -58.952,38.297c-1.791,34.636 -4.395,82.406 -24.366,122.006c-36.035,71.451 -48.893,87.744 -27.962,169.222c-123.991,18.652 -121.305,-91.911 -121.305,-91.911l-109.05,-127.49l-21.435,-12.663l-930.241,840.055c-0,0 -17.301,393.278 555.159,537.647c0,-0 129.249,-82.731 219.174,-172.201Z" style="fill:#df7c73;fill-rule:nonzero;"/></g></g></g></g></g></g></g><g><g><clipPath id="_clip19"><path d="M933.122,468.75l3257.7,464.404l-464.42,3257.7l-3257.68,-464.404l464.405,-3257.7Z"/></clipPath><g clip-path="url(#_clip19)"><g><clipPath id="_clip20"><path d="M933.122,468.75l3257.7,464.404l-464.42,3257.7l-3257.68,-464.404l464.405,-3257.7Z"/></clipPath><g clip-path="url(#_clip20)"><g><clipPath id="_clip21"><path d="M933.122,468.75l3257.7,464.404l-464.42,3257.7l-3257.68,-464.404l464.405,-3257.7Z"/></clipPath><g clip-path="url(#_clip21)"><path d="M3380.09,3427.6l-20.133,-118.701c-7.406,-43.636 -9.684,-87.549 -6.852,-131.706l22.249,-346.419l-228.19,-199.886c-137.598,38.656 -290.251,133.366 -373.633,189.876c-4.508,3.044 -8.691,6.478 -12.581,10.287c-3.89,3.808 -7.422,7.942 -10.563,12.386c-3.158,4.427 -5.876,9.114 -8.187,14.046c-2.311,4.932 -4.167,10.026 -5.55,15.283c-1.4,5.274 -2.312,10.612 -2.751,16.048c-0.439,5.42 -0.391,10.84 0.146,16.26c0.538,5.42 1.547,10.742 3.044,15.983c1.497,5.225 3.434,10.287 5.843,15.169c2.718,5.583 5.648,11.524 8.773,17.725c3.874,-2.441 7.845,-4.736 11.914,-6.836c4.085,-2.116 8.236,-4.036 12.484,-5.778c4.248,-1.758 8.561,-3.304 12.939,-4.671c4.378,-1.367 8.806,-2.555 13.281,-3.532c4.493,-0.977 9.001,-1.774 13.558,-2.36c4.541,-0.586 9.115,-0.977 13.705,-1.172c4.573,-0.179 9.163,-0.179 13.753,0.033c4.574,0.211 9.147,0.618 13.688,1.237c4.558,0.602 9.066,1.416 13.542,2.409c4.476,1.009 8.903,2.197 13.281,3.597c4.362,1.383 8.675,2.962 12.907,4.72c4.232,1.774 8.382,3.71 12.451,5.843c4.069,2.132 8.041,4.427 11.898,6.901c3.874,2.474 7.617,5.11 11.247,7.91c3.646,2.799 7.145,5.745 10.53,8.854c3.37,3.109 6.608,6.348 9.701,9.733c8.382,8.285 15.723,17.399 22.021,27.36c6.299,9.961 11.394,20.492 15.284,31.608c3.906,11.117 6.494,22.543 7.78,34.245c1.285,11.719 1.237,23.421 -0.163,35.124c-0.668,6.25 -1.725,12.418 -3.158,18.538c-1.448,6.12 -3.255,12.109 -5.452,18.001c-2.181,5.892 -4.737,11.621 -7.634,17.188c-2.913,5.583 -6.152,10.954 -9.717,16.113c-3.58,5.176 -7.454,10.091 -11.637,14.779c-4.199,4.687 -8.659,9.098 -13.395,13.216c-4.736,4.134 -9.717,7.943 -14.925,11.458c-5.209,3.5 -10.612,6.673 -16.227,9.506c42.61,67.936 91.048,138.671 151.155,224.137c2.669,4.183 5.664,8.122 9.001,11.8c3.32,3.678 6.95,7.048 10.856,10.107c3.906,3.06 8.04,5.778 12.419,8.138c4.362,2.36 8.903,4.33 13.606,5.909c4.704,1.578 9.506,2.75 14.405,3.515c4.915,0.765 9.847,1.107 14.811,1.042c4.964,-0.081 9.879,-0.57 14.762,-1.497c4.883,-0.912 9.636,-2.23 14.291,-3.956c26.334,-8.333 53.222,-13.916 80.696,-16.764c27.458,-2.848 54.932,-2.897 82.406,-0.146c27.181,2.881 50.895,-15.56 46.321,-42.66Z" style="fill:#ecf6fe;fill-rule:nonzero;"/></g></g></g></g></g></g></g><g><g><clipPath id="_clip22"><path d="M933.122,468.75l3257.7,464.404l-464.42,3257.7l-3257.68,-464.404l464.405,-3257.7Z"/></clipPath><g clip-path="url(#_clip22)"><g><clipPath id="_clip23"><path d="M933.122,468.75l3257.7,464.404l-464.42,3257.7l-3257.68,-464.404l464.405,-3257.7Z"/></clipPath><g clip-path="url(#_clip23)"><g><clipPath id="_clip24"><path d="M933.122,468.75l3257.7,464.404l-464.42,3257.7l-3257.68,-464.404l464.405,-3257.7Z"/></clipPath><g clip-path="url(#_clip24)"><path d="M3375.36,2830.78l-228.206,-199.87c-92.09,25.879 -236.052,104.557 -316.358,152.393c4.541,40.853 152.995,252.409 392.188,294.71c2.816,0.488 5.648,0.57 8.496,0.26c2.848,-0.325 5.599,-1.009 8.252,-2.099c2.653,-1.074 5.11,-2.49 7.357,-4.264c2.262,-1.758 4.231,-3.793 5.908,-6.104c1.693,-2.327 3.027,-4.818 4.02,-7.503c0.977,-2.686 1.579,-5.469 1.79,-8.317c0.212,-2.849 0.033,-5.681 -0.537,-8.496c-0.586,-2.8 -1.53,-5.469 -2.848,-8.008c-13.119,-24.431 -23.096,-50.082 -29.932,-76.937c0,-0 27.165,26.888 136.149,46.908l13.721,-172.673Z" style="fill:#94a6c1;fill-rule:nonzero;"/></g></g></g></g></g></g></g><g><g><clipPath id="_clip25"><path d="M933.122,468.75l3257.7,464.404l-464.42,3257.7l-3257.68,-464.404l464.405,-3257.7Z"/></clipPath><g clip-path="url(#_clip25)"><g><clipPath id="_clip26"><path d="M933.122,468.75l3257.7,464.404l-464.42,3257.7l-3257.68,-464.404l464.405,-3257.7Z"/></clipPath><g clip-path="url(#_clip26)"><g><clipPath id="_clip27"><path d="M933.122,468.75l3257.7,464.404l-464.42,3257.7l-3257.68,-464.404l464.405,-3257.7Z"/></clipPath><g clip-path="url(#_clip27)"><path d="M1525.37,3483.95c0,-0 370.443,16.308 501.335,-389.925c-0,-0 -10.547,128.873 157.715,210.172c-0,0 -1.481,-117.513 40.462,-192.317c41.943,-74.789 131.299,-262.81 131.299,-262.81c5.192,24.577 13.753,47.917 25.683,70.02c11.931,22.103 26.742,42.057 44.434,59.896c125.228,-58.48 203.809,-133.35 213.412,-308.448c-0,0 5.778,-223.356 177.278,-311.002c0,-0 119.922,99.837 101.742,322.737c-0.863,9.473 -1.14,18.978 -0.83,28.483c0.309,9.506 1.204,18.962 2.685,28.37c1.481,9.391 3.548,18.668 6.169,27.815c2.637,9.131 5.827,18.083 9.57,26.84c3.744,8.74 8.008,17.22 12.793,25.455c4.785,8.22 10.075,16.114 15.837,23.666c5.778,7.568 11.995,14.746 18.652,21.549c6.657,6.804 13.721,13.151 21.159,19.076c20.915,15.625 43.131,29.101 66.634,40.446c23.503,11.344 47.884,20.328 73.128,26.985c0,0 -41.422,-78.043 -3.711,-211.67c0,0 99.349,272.217 407.683,138.965c-10.108,-8.431 -19.743,-17.35 -28.923,-26.79c-9.163,-9.424 -17.822,-19.32 -25.944,-29.655c-8.138,-10.335 -15.723,-21.061 -22.738,-32.194c-7.015,-11.133 -13.427,-22.591 -19.254,-34.391c-5.811,-11.801 -11.003,-23.861 -15.544,-36.198c-4.557,-12.354 -8.463,-24.886 -11.702,-37.647c-3.255,-12.744 -5.827,-25.618 -7.715,-38.639c-1.904,-13.021 -3.125,-26.091 -3.646,-39.242c-8.089,-181.038 -72.461,-433.772 -394.938,-407.78c-0,0 -285.173,-215.722 -514.258,147.836c0,-0 -184.31,-23.666 -248.112,186.198c0,-0 -195.215,-20.004 -301.383,194.254c-0,0 -539.372,144.678 -428.972,759.945Z" style="fill:#80909a;fill-rule:nonzero;"/></g></g></g></g></g></g></g><g><g><clipPath id="_clip28"><path d="M933.122,468.75l3257.7,464.404l-464.42,3257.7l-3257.68,-464.404l464.405,-3257.7Z"/></clipPath><g clip-path="url(#_clip28)"><g><clipPath id="_clip29"><path d="M933.122,468.75l3257.7,464.404l-464.42,3257.7l-3257.68,-464.404l464.405,-3257.7Z"/></clipPath><g clip-path="url(#_clip29)"><g><clipPath id="_clip30"><path d="M933.122,468.75l3257.7,464.404l-464.42,3257.7l-3257.68,-464.404l464.405,-3257.7Z"/></clipPath><g clip-path="url(#_clip30)"><path d="M1475.68,1941.36c-0,0 -311.654,-44.417 -406.136,184.652l308.951,497.07l372.884,271.761c0,0 237.582,-507.421 -117.415,-875.081l-158.284,-78.402Z" style="fill:#ecf6fe;fill-rule:nonzero;"/></g></g></g></g></g></g></g><g><g><clipPath id="_clip31"><path d="M933.122,468.75l3257.7,464.404l-464.42,3257.7l-3257.68,-464.404l464.405,-3257.7Z"/></clipPath><g clip-path="url(#_clip31)"><g><clipPath id="_clip32"><path d="M933.122,468.75l3257.7,464.404l-464.42,3257.7l-3257.68,-464.404l464.405,-3257.7Z"/></clipPath><g clip-path="url(#_clip32)"><g><clipPath id="_clip33"><path d="M933.122,468.75l3257.7,464.404l-464.42,3257.7l-3257.68,-464.404l464.405,-3257.7Z"/></clipPath><g clip-path="url(#_clip33)"><path d="M1606.02,2086.82c0,0 187.728,128.028 212.533,298.991l-13.867,-288.623l-193.246,-116.097l-5.42,105.729Z" style="fill:#94a6c1;fill-rule:nonzero;"/></g></g></g></g></g></g></g><g><g><clipPath id="_clip34"><path d="M933.122,468.75l3257.7,464.404l-464.42,3257.7l-3257.68,-464.404l464.405,-3257.7Z"/></clipPath><g clip-path="url(#_clip34)"><g><clipPath id="_clip35"><path d="M933.122,468.75l3257.7,464.404l-464.42,3257.7l-3257.68,-464.404l464.405,-3257.7Z"/></clipPath><g clip-path="url(#_clip35)"><g><clipPath id="_clip36"><path d="M933.122,468.75l3257.7,464.404l-464.42,3257.7l-3257.68,-464.404l464.405,-3257.7Z"/></clipPath><g clip-path="url(#_clip36)"><path d="M1498.01,2300.57c-95.54,-166.358 -321.5,-217.644 -321.5,-217.644l36.425,273.682l149.61,240.755c53.434,-54.996 98.177,-116.325 134.245,-184c2.425,-4.265 4.557,-8.676 6.412,-13.233c1.872,-4.541 3.435,-9.179 4.704,-13.932c1.286,-4.736 2.246,-9.538 2.914,-14.404c0.667,-4.867 1.041,-9.766 1.09,-14.665c0.049,-4.915 -0.212,-9.815 -0.765,-14.697c-0.57,-4.867 -1.432,-9.701 -2.604,-14.47c-1.172,-4.769 -2.637,-9.44 -4.411,-14.03c-1.758,-4.59 -3.808,-9.033 -6.12,-13.362Z" style="fill:#94a6c1;fill-rule:nonzero;"/></g></g></g></g></g></g></g><g><g><clipPath id="_clip37"><path d="M933.122,468.75l3257.7,464.404l-464.42,3257.7l-3257.68,-464.404l464.405,-3257.7Z"/></clipPath><g clip-path="url(#_clip37)"><g><clipPath id="_clip38"><path d="M933.122,468.75l3257.7,464.404l-464.42,3257.7l-3257.68,-464.404l464.405,-3257.7Z"/></clipPath><g clip-path="url(#_clip38)"><g><clipPath id="_clip39"><path d="M933.122,468.75l3257.7,464.404l-464.42,3257.7l-3257.68,-464.404l464.405,-3257.7Z"/></clipPath><g clip-path="url(#_clip39)"><path d="M2732.54,2425.83c-21.468,17.334 -41.39,36.279 -59.766,56.869c-18.392,20.589 -34.977,42.529 -49.772,65.82c-14.795,23.291 -27.604,47.624 -38.428,73.014c-10.84,25.375 -19.531,51.465 -26.09,78.272c-0,-0 -12.663,57.828 -85.352,121.37c-13.851,-29.215 -24.414,-59.586 -31.657,-91.113c-7.242,-31.527 -11.019,-63.46 -11.311,-95.801c-19.987,14.03 -38.884,29.362 -56.706,46.045c-17.822,16.667 -34.375,34.505 -49.691,53.516c-15.316,18.994 -29.215,38.981 -41.732,59.928c-12.5,20.964 -23.47,42.692 -32.926,65.186c-38.9,89.876 -83.399,176.904 -133.48,261.067c0,0 -41.406,-67.627 -36.344,-201.758c-0,0 -246.534,338.314 -444.19,329.802c-11.442,-0.537 -22.819,0.114 -34.131,1.953c-11.312,1.839 -22.298,4.818 -32.991,8.968c-10.677,4.134 -20.817,9.326 -30.42,15.593c-9.603,6.25 -18.441,13.444 -26.53,21.549c-1.986,63.135 2.783,125.732 14.323,187.842c-0,-0 370.443,16.308 501.334,-389.925c0,-0 -10.546,128.873 157.732,210.172c-0,0 -1.498,-117.513 40.446,-192.317c41.943,-74.805 131.298,-262.81 131.298,-262.81c5.192,24.577 13.754,47.917 25.684,70.004c11.93,22.102 26.741,42.073 44.434,59.895c125.244,-58.463 203.808,-133.349 213.411,-308.431c-0,0 3.776,-142.643 92.839,-244.694l0.016,-0.016Z" style="fill:#525c67;fill-rule:nonzero;"/></g></g></g></g></g></g></g><g><g><clipPath id="_clip40"><path d="M933.122,468.75l3257.7,464.404l-464.42,3257.7l-3257.68,-464.404l464.405,-3257.7Z"/></clipPath><g clip-path="url(#_clip40)"><g><clipPath id="_clip41"><path d="M933.122,468.75l3257.7,464.404l-464.42,3257.7l-3257.68,-464.404l464.405,-3257.7Z"/></clipPath><g clip-path="url(#_clip41)"><g><clipPath id="_clip42"><path d="M933.122,468.75l3257.7,464.404l-464.42,3257.7l-3257.68,-464.404l464.405,-3257.7Z"/></clipPath><g clip-path="url(#_clip42)"><path d="M1388.92,1792.69l-42.155,196.517c0,-0 26.677,99.951 269.564,175.488l41.732,-292.724l-269.141,-79.281Z" style="fill:#94a6c1;fill-rule:nonzero;"/></g></g></g></g></g></g></g><g><g><clipPath id="_clip43"><path d="M933.122,468.75l3257.7,464.404l-464.42,3257.7l-3257.68,-464.404l464.405,-3257.7Z"/></clipPath><g clip-path="url(#_clip43)"><g><clipPath id="_clip44"><path d="M933.122,468.75l3257.7,464.404l-464.42,3257.7l-3257.68,-464.404l464.405,-3257.7Z"/></clipPath><g clip-path="url(#_clip44)"><g><clipPath id="_clip45"><path d="M933.122,468.75l3257.7,464.404l-464.42,3257.7l-3257.68,-464.404l464.405,-3257.7Z"/></clipPath><g clip-path="url(#_clip45)"><path d="M1839.73,1330.21c-0,0 -44.238,-82.584 -172.835,-110.14c-12.549,-2.799 -25.212,-4.915 -37.972,-6.331c-12.777,-1.432 -25.586,-2.165 -38.444,-2.197c-12.842,-0.033 -25.668,0.634 -38.444,2.002c-12.777,1.351 -25.44,3.401 -38.005,6.136c-12.549,2.734 -24.919,6.136 -37.109,10.205c-12.191,4.085 -24.122,8.805 -35.791,14.176c-11.67,5.388 -23.015,11.377 -34.05,17.969c-11.019,6.608 -21.647,13.802 -31.901,21.549c-60.954,47.185 -121.908,124.984 -140.202,251.693c-1.92,12.11 -3.125,24.284 -3.597,36.524c-0.488,12.239 -0.26,24.463 0.684,36.686c0.944,12.207 2.604,24.333 4.98,36.344c2.36,12.028 5.42,23.861 9.18,35.531c3.76,11.653 8.187,23.063 13.281,34.196c5.095,11.149 10.807,21.956 17.171,32.422c6.364,10.481 13.314,20.54 20.85,30.208c7.536,9.652 15.609,18.831 24.219,27.539c51.888,50.863 135.254,83.431 261.247,94.775c335.953,30.306 328.401,-347.867 328.401,-347.867l-71.663,-221.42Z" style="fill:#ecf6fe;fill-rule:nonzero;"/></g></g></g></g></g></g></g><g><g><clipPath id="_clip46"><path d="M933.122,468.75l3257.7,464.404l-464.42,3257.7l-3257.68,-464.404l464.405,-3257.7Z"/></clipPath><g clip-path="url(#_clip46)"><g><clipPath id="_clip47"><path d="M933.122,468.75l3257.7,464.404l-464.42,3257.7l-3257.68,-464.404l464.405,-3257.7Z"/></clipPath><g clip-path="url(#_clip47)"><g><clipPath id="_clip48"><path d="M933.122,468.75l3257.7,464.404l-464.42,3257.7l-3257.68,-464.404l464.405,-3257.7Z"/></clipPath><g clip-path="url(#_clip48)"><path d="M951.676,2238.53c0,0 -113.574,119.662 -95.589,338.868l468.197,-41.602l36.198,-153.776l-408.806,-143.49Z" style="fill:#94a6c1;fill-rule:nonzero;"/></g></g></g></g></g></g></g><g><g><clipPath id="_clip49"><path d="M933.122,468.75l3257.7,464.404l-464.42,3257.7l-3257.68,-464.404l464.405,-3257.7Z"/></clipPath><g clip-path="url(#_clip49)"><g><clipPath id="_clip50"><path d="M933.122,468.75l3257.7,464.404l-464.42,3257.7l-3257.68,-464.404l464.405,-3257.7Z"/></clipPath><g clip-path="url(#_clip50)"><g><clipPath id="_clip51"><path d="M933.122,468.75l3257.7,464.404l-464.42,3257.7l-3257.68,-464.404l464.405,-3257.7Z"/></clipPath><g clip-path="url(#_clip51)"><path d="M894.759,2331.14c54.037,56.934 166.781,145.508 368.473,183.919l62.24,15.707l35.01,-148.731l-408.806,-143.506c-23.828,27.898 -42.806,58.757 -56.917,92.611Z" style="fill:#94a6c1;fill-rule:nonzero;"/></g></g></g></g></g></g></g><g><g><clipPath id="_clip52"><path d="M933.122,468.75l3257.7,464.404l-464.42,3257.7l-3257.68,-464.404l464.405,-3257.7Z"/></clipPath><g clip-path="url(#_clip52)"><g><clipPath id="_clip53"><path d="M933.122,468.75l3257.7,464.404l-464.42,3257.7l-3257.68,-464.404l464.405,-3257.7Z"/></clipPath><g clip-path="url(#_clip53)"><g><clipPath id="_clip54"><path d="M933.122,468.75l3257.7,464.404l-464.42,3257.7l-3257.68,-464.404l464.405,-3257.7Z"/></clipPath><g clip-path="url(#_clip54)"><path d="M925.26,2196.97c26.888,-55.648 77.458,-132.162 161.198,-162.972c8.155,-2.979 16.537,-5.062 25.131,-6.283c8.593,-1.221 17.22,-1.546 25.878,-0.96c8.659,0.586 17.172,2.067 25.521,4.443c8.35,2.36 16.374,5.567 24.04,9.619c55.485,29.037 105.859,65.17 151.156,108.415c-0,0 74.462,96.273 101.562,158.87c2.328,4.704 4.004,9.62 5.046,14.779c1.025,5.143 1.383,10.335 1.041,15.576c-0.341,5.225 -1.351,10.336 -3.027,15.3c-1.693,4.98 -3.988,9.651 -6.901,14.013l-37.272,64.763c-1.937,3.694 -4.199,7.178 -6.771,10.449c-2.555,3.288 -5.404,6.315 -8.496,9.098c-3.109,2.784 -6.429,5.274 -9.961,7.455c-3.548,2.197 -7.259,4.069 -11.133,5.599c-3.874,1.53 -7.845,2.718 -11.93,3.548c-4.085,0.846 -8.203,1.302 -12.37,1.416c-4.167,0.098 -8.301,-0.163 -12.419,-0.798c-4.117,-0.634 -8.154,-1.611 -12.093,-2.962c-63.883,-18.62 -270.019,-105.045 -270.019,-105.045c-31.608,-17.774 -62.061,-37.338 -91.341,-58.741c-3.988,-2.897 -7.715,-6.119 -11.149,-9.668c-3.435,-3.548 -6.543,-7.356 -9.31,-11.442c-2.767,-4.085 -5.176,-8.382 -7.194,-12.89c-2.019,-4.493 -3.646,-9.147 -4.867,-13.933c-1.221,-4.785 -2.002,-9.635 -2.376,-14.567c-0.375,-4.915 -0.326,-9.83 0.163,-14.746c0.488,-4.915 1.383,-9.749 2.718,-14.518c1.318,-4.753 3.043,-9.359 5.175,-13.818Z" style="fill:#ecf6fe;fill-rule:nonzero;"/></g></g></g></g></g></g></g><g><g><clipPath id="_clip55"><path d="M933.122,468.75l3257.7,464.404l-464.42,3257.7l-3257.68,-464.404l464.405,-3257.7Z"/></clipPath><g clip-path="url(#_clip55)"><g><clipPath id="_clip56"><path d="M933.122,468.75l3257.7,464.404l-464.42,3257.7l-3257.68,-464.404l464.405,-3257.7Z"/></clipPath><g clip-path="url(#_clip56)"><g><clipPath id="_clip57"><path d="M933.122,468.75l3257.7,464.404l-464.42,3257.7l-3257.68,-464.404l464.405,-3257.7Z"/></clipPath><g clip-path="url(#_clip57)"><path d="M1406.85,2438.25l36.996,-65.821c2.946,-5.175 5.241,-10.628 6.917,-16.324c1.676,-5.713 2.686,-11.54 3.011,-17.481c0.342,-5.941 -0.016,-11.833 -1.042,-17.692c-1.025,-5.859 -2.718,-11.523 -5.045,-16.992c-12.972,-29.151 -28.679,-56.722 -47.103,-82.764c-18.425,-26.042 -39.225,-50.016 -62.386,-71.94c1.888,2.295 64.827,81.152 -27.018,188.786c-85.564,100.244 -255.697,28.402 -267.709,23.161c87.028,48.112 178.304,85.986 273.845,113.623c4.183,1.22 8.431,2.083 12.76,2.588c4.346,0.504 8.675,0.651 13.037,0.423c4.346,-0.228 8.659,-0.814 12.907,-1.774c4.248,-0.944 8.399,-2.246 12.435,-3.89c4.036,-1.644 7.91,-3.63 11.605,-5.925c3.711,-2.295 7.194,-4.883 10.465,-7.78c3.272,-2.881 6.267,-6.022 9.017,-9.407c2.735,-3.386 5.176,-6.983 7.308,-10.791Z" style="fill:#94a6c1;fill-rule:nonzero;"/></g></g></g></g></g></g></g><g><g><clipPath id="_clip58"><path d="M933.122,468.75l3257.7,464.404l-464.42,3257.7l-3257.68,-464.404l464.405,-3257.7Z"/></clipPath><g clip-path="url(#_clip58)"><g><clipPath id="_clip59"><path d="M933.122,468.75l3257.7,464.404l-464.42,3257.7l-3257.68,-464.404l464.405,-3257.7Z"/></clipPath><g clip-path="url(#_clip59)"><g><clipPath id="_clip60"><path d="M933.122,468.75l3257.7,464.404l-464.42,3257.7l-3257.68,-464.404l464.405,-3257.7Z"/></clipPath><g clip-path="url(#_clip60)"><path d="M1824.09,3023.58l-454.297,-64.762l71.028,-498.145c-28.662,-22.184 -55.761,-46.142 -81.315,-71.842c-31.706,17.529 -64.42,32.959 -98.144,46.256l-71.013,498.145l-442.838,-63.135c-3.239,53.223 -5.42,114.209 -5.518,182.308l422.787,60.27l-90.072,631.82c26.904,18.278 55.16,34.196 84.733,47.754c32.194,-4.753 63.753,-12.142 94.71,-22.185l90.072,-631.803l434.245,61.898c18.945,-65.414 33.887,-124.577 45.622,-176.579Z" style="fill:#f65d5d;fill-rule:nonzero;"/></g></g></g></g></g></g></g><g><g><clipPath id="_clip61"><path d="M933.122,468.75l3257.7,464.404l-464.42,3257.7l-3257.68,-464.404l464.405,-3257.7Z"/></clipPath><g clip-path="url(#_clip61)"><g><clipPath id="_clip62"><path d="M933.122,468.75l3257.7,464.404l-464.42,3257.7l-3257.68,-464.404l464.405,-3257.7Z"/></clipPath><g clip-path="url(#_clip62)"><g><clipPath id="_clip63"><path d="M933.122,468.75l3257.7,464.404l-464.42,3257.7l-3257.68,-464.404l464.405,-3257.7Z"/></clipPath><g clip-path="url(#_clip63)"><path d="M3237.08,3659.65c-0.375,2.588 -0.993,5.143 -1.872,7.617c-0.863,2.474 -1.969,4.85 -3.304,7.113c-1.351,2.262 -2.897,4.361 -4.639,6.331c-1.757,1.953 -3.678,3.711 -5.794,5.29c-2.1,1.578 -4.329,2.946 -6.706,4.069c-2.36,1.139 -4.817,2.034 -7.373,2.685c-2.539,0.651 -5.127,1.058 -7.747,1.205c-2.621,0.146 -5.241,0.032 -7.829,-0.342c-2.604,-0.375 -5.143,-0.993 -7.633,-1.872c-2.474,-0.863 -4.851,-1.969 -7.113,-3.304c-2.262,-1.335 -4.362,-2.881 -6.315,-4.639c-1.969,-1.757 -3.727,-3.678 -5.306,-5.794c-1.579,-2.1 -2.93,-4.329 -4.069,-6.706c-1.139,-2.36 -2.035,-4.817 -2.686,-7.356c-0.651,-2.556 -1.058,-5.144 -1.204,-7.764c-0.13,-2.621 -0.016,-5.241 0.342,-7.829c0.374,-2.604 0.993,-5.143 1.872,-7.633c0.862,-2.474 1.969,-4.851 3.304,-7.113c1.35,-2.246 2.897,-4.362 4.638,-6.315c1.758,-1.969 3.695,-3.727 5.794,-5.306c2.1,-1.579 4.33,-2.93 6.706,-4.069c2.36,-1.139 4.818,-2.035 7.373,-2.686c2.539,-0.651 5.127,-1.058 7.748,-1.188c2.62,-0.146 5.241,-0.032 7.845,0.326c2.588,0.374 5.127,0.993 7.617,1.871c2.474,0.863 4.85,1.97 7.113,3.305c2.262,1.35 4.362,2.897 6.315,4.638c1.969,1.758 3.727,3.695 5.306,5.794c1.578,2.1 2.929,4.33 4.069,6.706c1.139,2.36 2.034,4.818 2.685,7.373c0.651,2.539 1.058,5.127 1.205,7.748c0.13,2.62 0.032,5.241 -0.342,7.845Z" style="fill:#525c67;fill-rule:nonzero;"/></g></g></g></g></g></g></g><g><g><clipPath id="_clip64"><path d="M933.122,468.75l3257.7,464.404l-464.42,3257.7l-3257.68,-464.404l464.405,-3257.7Z"/></clipPath><g clip-path="url(#_clip64)"><g><clipPath id="_clip65"><path d="M933.122,468.75l3257.7,464.404l-464.42,3257.7l-3257.68,-464.404l464.405,-3257.7Z"/></clipPath><g clip-path="url(#_clip65)"><g><clipPath id="_clip66"><path d="M933.122,468.75l3257.7,464.404l-464.42,3257.7l-3257.68,-464.404l464.405,-3257.7Z"/></clipPath><g clip-path="url(#_clip66)"><path d="M2549.56,3144.03l-0.489,-24.984c-0.016,-1.042 -0.211,-2.035 -0.602,-2.995c-0.391,-0.96 -0.928,-1.823 -1.628,-2.571c-0.699,-0.765 -1.513,-1.384 -2.441,-1.84c-0.928,-0.472 -1.904,-0.748 -2.93,-0.862c-1.025,-0.098 -2.034,-0.017 -3.043,0.244c-0.993,0.26 -1.921,0.7 -2.751,1.302c-0.846,0.602 -1.546,1.335 -2.132,2.197c-0.57,0.847 -0.96,1.791 -1.205,2.8c-2.392,10.774 -4.736,22.021 -6.722,32.991c0,0 -61.979,195.72 84.978,302.263c18.701,-16.537 69.791,-61.442 91.373,-75.912c-8.073,-3.662 -15.739,-7.519 -22.998,-11.588c-9.7,-5.567 -18.994,-11.735 -27.897,-18.506c-8.903,-6.787 -17.317,-14.112 -25.26,-21.989c-7.943,-7.878 -15.349,-16.227 -22.201,-25.065c-6.852,-8.838 -13.102,-18.083 -18.766,-27.735c-5.648,-9.651 -10.645,-19.645 -15.007,-29.948c-4.345,-10.302 -8.007,-20.849 -10.986,-31.624c-2.978,-10.775 -5.241,-21.712 -6.803,-32.796c-1.563,-11.068 -2.393,-22.201 -2.49,-33.382Z" style="fill:#df7c73;fill-rule:nonzero;"/></g></g></g></g></g></g></g><g><g><clipPath id="_clip67"><path d="M933.122,468.75l3257.7,464.404l-464.42,3257.7l-3257.68,-464.404l464.405,-3257.7Z"/></clipPath><g clip-path="url(#_clip67)"><g><clipPath id="_clip68"><path d="M933.122,468.75l3257.7,464.404l-464.42,3257.7l-3257.68,-464.404l464.405,-3257.7Z"/></clipPath><g clip-path="url(#_clip68)"><g><clipPath id="_clip69"><path d="M933.122,468.75l3257.7,464.404l-464.42,3257.7l-3257.68,-464.404l464.405,-3257.7Z"/></clipPath><g clip-path="url(#_clip69)"><path d="M1871.29,1744.26l-383.854,-152.247c-2.425,-0.96 -4.948,-1.546 -7.568,-1.741c-2.605,-0.195 -5.176,-0.016 -7.732,0.57c-2.555,0.586 -4.964,1.53 -7.226,2.832c-2.263,1.318 -4.281,2.929 -6.055,4.85c-1.774,1.92 -3.222,4.069 -4.362,6.429c-1.123,2.36 -1.872,4.834 -2.246,7.422c-0.374,2.588 -0.358,5.176 0.049,7.763c0.407,2.588 1.188,5.046 2.344,7.406c8.219,16.813 18.392,36.165 30.436,56.445c1.676,2.784 3.125,5.664 4.378,8.659c1.253,3.011 2.295,6.071 3.093,9.212c0.813,3.142 1.399,6.332 1.757,9.571c0.342,3.222 0.472,6.461 0.358,9.7c-0.113,3.239 -0.455,6.462 -1.025,9.668c-0.586,3.19 -1.383,6.332 -2.409,9.408c-1.025,3.076 -2.262,6.071 -3.727,8.968c-1.449,2.913 -3.109,5.697 -4.964,8.35c-1.856,2.669 -3.89,5.192 -6.104,7.552c-2.23,2.376 -4.606,4.573 -7.129,6.608c-2.539,2.034 -5.208,3.873 -8.007,5.517c-2.8,1.644 -5.697,3.076 -8.692,4.313c-3.011,1.237 -6.087,2.247 -9.245,3.028c-3.141,0.781 -6.331,1.351 -9.57,1.676c-3.223,0.326 -6.462,0.423 -9.7,0.293c-3.256,-0.146 -6.462,-0.504 -9.652,-1.107c-26.807,-5.338 -52.865,-13.134 -78.174,-23.421c-25.309,-10.286 -49.43,-22.868 -72.347,-37.728c14.697,30.111 33.968,56.95 57.829,80.469c51.888,50.863 132.747,95.134 258.707,106.494c167.155,15.088 249.87,-73.795 290.837,-166.959Z" style="fill:#94a6c1;fill-rule:nonzero;"/></g></g></g></g></g></g></g><g><g><clipPath id="_clip70"><path d="M933.122,468.75l3257.7,464.404l-464.42,3257.7l-3257.68,-464.404l464.405,-3257.7Z"/></clipPath><g clip-path="url(#_clip70)"><g><clipPath id="_clip71"><path d="M933.122,468.75l3257.7,464.404l-464.42,3257.7l-3257.68,-464.404l464.405,-3257.7Z"/></clipPath><g clip-path="url(#_clip71)"><g><clipPath id="_clip72"><path d="M933.122,468.75l3257.7,464.404l-464.42,3257.7l-3257.68,-464.404l464.405,-3257.7Z"/></clipPath><g clip-path="url(#_clip72)"><path d="M1462.09,1569.14c0,-0 206.413,-77.328 386.312,-299.659l158.74,250.31c0,-0 -268.603,164.925 -545.052,49.349Z" style="fill:#94a6c1;fill-rule:nonzero;"/></g></g></g></g></g></g></g><g><g><clipPath id="_clip73"><path d="M933.122,468.75l3257.7,464.404l-464.42,3257.7l-3257.68,-464.404l464.405,-3257.7Z"/></clipPath><g clip-path="url(#_clip73)"><g><clipPath id="_clip74"><path d="M933.122,468.75l3257.7,464.404l-464.42,3257.7l-3257.68,-464.404l464.405,-3257.7Z"/></clipPath><g clip-path="url(#_clip74)"><g><clipPath id="_clip75"><path d="M933.122,468.75l3257.7,464.404l-464.42,3257.7l-3257.68,-464.404l464.405,-3257.7Z"/></clipPath><g clip-path="url(#_clip75)"><path d="M1422.35,1558.2c0,0 317.188,51.97 604.671,-67.09c0,0 30.371,261.312 -148.519,425.163c0,-0.049 -308.366,-113.883 -456.152,-358.073Z" style="fill:#ecf6fe;fill-rule:nonzero;"/></g></g></g></g></g></g></g><g><g><clipPath id="_clip76"><path d="M933.122,468.75l3257.7,464.404l-464.42,3257.7l-3257.68,-464.404l464.405,-3257.7Z"/></clipPath><g clip-path="url(#_clip76)"><g><clipPath id="_clip77"><path d="M933.122,468.75l3257.7,464.404l-464.42,3257.7l-3257.68,-464.404l464.405,-3257.7Z"/></clipPath><g clip-path="url(#_clip77)"><g><clipPath id="_clip78"><path d="M933.122,468.75l3257.7,464.404l-464.42,3257.7l-3257.68,-464.404l464.405,-3257.7Z"/></clipPath><g clip-path="url(#_clip78)"><path d="M3456.27,2763.97c-1.92,2.962 -4.052,5.762 -6.38,8.398c-2.344,2.637 -4.85,5.095 -7.552,7.357c-2.702,2.279 -5.55,4.329 -8.561,6.169c-3.011,1.855 -6.136,3.466 -9.375,4.85c-3.255,1.367 -6.576,2.506 -9.994,3.385c-3.418,0.896 -6.868,1.514 -10.384,1.888c-3.499,0.375 -7.015,0.489 -10.53,0.342c-3.532,-0.146 -7.032,-0.553 -10.482,-1.221c-186.849,-46.923 -255.941,-239.241 -255.941,-239.241c-91.927,123.323 -85.254,214.551 -85.254,214.551c-27.93,-191.944 -186.816,-366.016 -186.865,-366.065c33.398,49.219 75.032,139.958 63.737,277.914c-0.863,9.472 -1.139,18.961 -0.83,28.466c0.309,9.522 1.204,18.962 2.702,28.37c1.481,9.391 3.532,18.668 6.168,27.815c2.637,9.147 5.811,18.083 9.554,26.84c3.744,8.74 8.008,17.236 12.81,25.455c4.785,8.22 10.058,16.114 15.836,23.682c5.762,7.568 11.979,14.746 18.652,21.533c6.657,6.804 13.705,13.167 21.159,19.076c20.915,15.625 43.116,29.101 66.634,40.446c23.503,11.344 47.885,20.328 73.112,26.985c0,0 -41.422,-78.06 -3.711,-211.686c0,0 99.366,272.233 407.683,138.965c-19.125,-15.674 -36.459,-33.122 -51.986,-52.376c-15.527,-19.255 -28.922,-39.893 -40.202,-61.898Z" style="fill:#525c67;fill-rule:nonzero;"/></g></g></g></g></g></g></g><g><g><clipPath id="_clip79"><path d="M933.122,468.75l3257.7,464.404l-464.42,3257.7l-3257.68,-464.404l464.405,-3257.7Z"/></clipPath><g clip-path="url(#_clip79)"><g><clipPath id="_clip80"><path d="M933.122,468.75l3257.7,464.404l-464.42,3257.7l-3257.68,-464.404l464.405,-3257.7Z"/></clipPath><g clip-path="url(#_clip80)"><g><clipPath id="_clip81"><path d="M933.122,468.75l3257.7,464.404l-464.42,3257.7l-3257.68,-464.404l464.405,-3257.7Z"/></clipPath><g clip-path="url(#_clip81)"><path d="M2501.04,2031.18c67.708,12.598 156.884,9.082 265.478,-38.867c266.878,-117.806 1220.7,-911.638 1220.7,-911.638c0,0 11.41,-9.798 30.03,-28.466l-1373.55,897.558c0,0 -55.338,33.171 -142.659,81.413Z" style="fill:#ecf6fe;fill-rule:nonzero;"/></g></g></g></g></g></g></g><g><g><clipPath id="_clip82"><path d="M933.122,468.75l3257.7,464.404l-464.42,3257.7l-3257.68,-464.404l464.405,-3257.7Z"/></clipPath><g clip-path="url(#_clip82)"><g><clipPath id="_clip83"><path d="M933.122,468.75l3257.7,464.404l-464.42,3257.7l-3257.68,-464.404l464.405,-3257.7Z"/></clipPath><g clip-path="url(#_clip83)"><g><clipPath id="_clip84"><path d="M933.122,468.75l3257.7,464.404l-464.42,3257.7l-3257.68,-464.404l464.405,-3257.7Z"/></clipPath><g clip-path="url(#_clip84)"><path d="M1803.43,3020.64l-433.642,-61.816l-205.013,153.857l-86.849,609.147c26.92,18.294 55.159,34.212 84.749,47.787c32.178,-4.769 63.753,-12.159 94.694,-22.201l86.849,-609.147l413.558,58.952c18.945,-65.414 33.887,-124.577 45.654,-176.579Z" style="fill:#c34444;fill-rule:nonzero;"/></g></g></g></g></g></g></g><g><g><clipPath id="_clip85"><path d="M933.122,468.75l3257.7,464.404l-464.42,3257.7l-3257.68,-464.404l464.405,-3257.7Z"/></clipPath><g clip-path="url(#_clip85)"><g><clipPath id="_clip86"><path d="M933.122,468.75l3257.7,464.404l-464.42,3257.7l-3257.68,-464.404l464.405,-3257.7Z"/></clipPath><g clip-path="url(#_clip86)"><g><clipPath id="_clip87"><path d="M933.122,468.75l3257.7,464.404l-464.42,3257.7l-3257.68,-464.404l464.405,-3257.7Z"/></clipPath><g clip-path="url(#_clip87)"><path d="M884.684,1484.41c-3.45,3.987 -6.803,8.056 -10.058,12.19c-3.256,4.151 -6.413,8.366 -9.473,12.663c-3.06,4.281 -6.022,8.643 -8.87,13.07c-2.865,4.427 -5.616,8.919 -8.252,13.476c-2.653,4.558 -5.192,9.164 -7.634,13.851c-2.425,4.671 -4.752,9.391 -6.95,14.177c-2.213,4.785 -4.313,9.619 -6.299,14.502c-1.985,4.866 -3.857,9.798 -5.615,14.762c-1.758,4.964 -3.401,9.977 -4.931,15.023c-1.514,5.045 -2.93,10.123 -4.216,15.234c-1.286,5.095 -2.458,10.238 -3.499,15.397c-1.058,5.176 -1.97,10.352 -2.783,15.56c-0.814,5.208 -1.498,10.433 -2.051,15.674c-0.57,5.241 -1.009,10.482 -1.335,15.739c-0.309,5.257 -0.504,10.531 -0.586,15.804c-0.065,5.257 -0.016,10.531 0.147,15.788c0.179,5.273 0.472,10.53 0.895,15.787c0.407,5.258 0.96,10.499 1.611,15.723c0.667,5.225 1.449,10.433 2.344,15.625c0.911,5.192 1.937,10.352 3.076,15.495c1.156,5.143 2.409,10.254 3.792,15.348c1.384,5.078 2.881,10.124 4.509,15.153c1.611,5.013 3.353,9.977 5.208,14.909c1.839,4.932 3.809,9.831 5.892,14.665c2.067,4.85 4.264,9.635 6.559,14.372c2.312,4.752 4.72,9.423 7.227,14.062c2.523,4.622 5.159,9.196 7.878,13.688c2.734,4.509 5.566,8.952 8.512,13.33c2.946,4.362 5.973,8.675 9.114,12.907c3.142,4.232 6.381,8.382 9.717,12.468c3.337,4.069 6.755,8.073 10.27,11.995c3.516,3.923 7.129,7.764 10.824,11.523c7.617,7.618 51.514,42.123 80.453,16.944c30.957,-26.921 -17.839,-67.546 -23.731,-73.47c-5.648,-5.746 -11.019,-11.735 -16.097,-17.969c-5.094,-6.234 -9.88,-12.695 -14.355,-19.368c-4.493,-6.69 -8.643,-13.558 -12.484,-20.638c-3.841,-7.064 -7.357,-14.307 -10.514,-21.696c-3.174,-7.406 -5.99,-14.926 -8.464,-22.592c-2.458,-7.649 -4.557,-15.413 -6.299,-23.274c-1.741,-7.845 -3.125,-15.772 -4.118,-23.763c-1.009,-7.976 -1.644,-15.983 -1.904,-24.04c-0.244,-8.04 -0.13,-16.081 0.358,-24.105c0.488,-8.04 1.367,-16.032 2.604,-23.974c1.237,-7.959 2.832,-15.837 4.818,-23.633c1.969,-7.797 4.297,-15.495 6.982,-23.08c2.686,-7.584 5.73,-15.022 9.115,-22.33c3.385,-7.292 7.096,-14.421 11.149,-21.371c4.053,-6.966 8.415,-13.704 13.086,-20.264c4.671,-6.543 9.652,-12.858 14.909,-18.945c37.418,-43.18 74.674,-52.897 75.749,-53.19c3.776,-0.846 7.356,-2.197 10.742,-4.085c3.369,-1.888 6.412,-4.216 9.131,-6.983c2.701,-2.767 4.964,-5.859 6.77,-9.293c1.807,-3.418 3.093,-7.032 3.858,-10.824c0.749,-3.792 0.96,-7.617 0.602,-11.474c-0.342,-3.858 -1.237,-7.585 -2.669,-11.182c-1.433,-3.597 -3.337,-6.917 -5.729,-9.961c-2.409,-3.044 -5.176,-5.68 -8.334,-7.91c-62.093,-43.832 -58.17,-117.643 -58.024,-120.036c10.043,-112.549 99.138,-114.779 116.585,-114.095c0.505,0.065 1.026,-0.081 1.482,-0.081c0.455,-0 0.992,0.13 1.464,0.13c10.743,0.325 21.257,2.051 31.543,5.176c10.287,3.125 19.987,7.535 29.102,13.248c2.181,1.433 4.508,2.653 6.934,3.646c2.441,0.977 4.931,1.709 7.519,2.214c2.572,0.488 5.176,0.732 7.796,0.699c2.637,-0.016 5.225,-0.292 7.797,-0.813c2.571,-0.537 5.061,-1.302 7.487,-2.328c2.425,-1.025 4.72,-2.278 6.884,-3.743c2.181,-1.481 4.183,-3.142 6.022,-5.013c1.856,-1.872 3.5,-3.89 4.932,-6.088c1.449,-2.197 2.669,-4.508 3.662,-6.933c0.993,-2.442 1.725,-4.932 2.23,-7.52c0.488,-2.571 0.732,-5.175 0.716,-7.796c-0.016,-2.637 -0.277,-5.225 -0.814,-7.796c-0.52,-2.572 -1.285,-5.078 -2.311,-7.487c-1.009,-2.425 -2.262,-4.72 -3.727,-6.901c-1.465,-2.165 -3.141,-4.183 -4.997,-6.022c-1.872,-1.856 -3.89,-3.5 -6.087,-4.948c-20.345,-13.216 -42.399,-22.298 -66.146,-27.23c0.212,-5.208 0.781,-10.384 1.742,-15.527c0.96,-5.127 2.278,-10.157 3.971,-15.105c1.693,-4.931 3.727,-9.733 6.12,-14.371c2.376,-4.639 5.094,-9.082 8.138,-13.33c3.027,-4.248 6.364,-8.252 9.977,-12.028c3.63,-3.76 7.503,-7.243 11.621,-10.433c4.134,-3.19 8.464,-6.071 13.021,-8.643c4.541,-2.571 9.245,-4.785 14.128,-6.673c0.341,-0.114 0.683,-0.212 1.058,-0.342c126.888,-43.864 187.841,58.887 194.27,70.557c1.986,3.678 4.476,6.982 7.487,9.879c3.011,2.914 6.381,5.29 10.14,7.129c3.76,1.839 7.699,3.076 11.849,3.679c4.134,0.602 8.268,0.569 12.403,-0.131c4.117,-0.683 8.04,-1.985 11.751,-3.906c3.727,-1.92 7.064,-4.362 10.01,-7.324c2.946,-2.962 5.387,-6.315 7.275,-10.042c1.904,-3.728 3.19,-7.65 3.857,-11.784l0.619,-3.516c0.602,-3.548 1.497,-7.015 2.669,-10.4c1.172,-3.386 2.621,-6.657 4.346,-9.815c1.709,-3.141 3.662,-6.136 5.876,-8.968c2.213,-2.832 4.638,-5.452 7.275,-7.877c2.637,-2.442 5.469,-4.639 8.464,-6.592c3.011,-1.97 6.152,-3.662 9.44,-5.111c3.287,-1.448 6.673,-2.62 10.14,-3.499c3.483,-0.879 7.015,-1.481 10.579,-1.791c3.418,-0.472 6.836,-0.667 10.27,-0.585c3.451,0.081 6.852,0.455 10.238,1.106c3.385,0.651 6.689,1.563 9.912,2.767c3.239,1.188 6.348,2.637 9.326,4.346c2.995,1.709 5.827,3.646 8.496,5.827c2.669,2.164 5.143,4.541 7.422,7.129c2.279,2.571 4.33,5.322 6.152,8.235c1.823,2.93 3.402,5.974 4.72,9.147c0.717,1.661 1.368,3.304 1.97,4.916c5.827,16.308 7.764,33.073 5.778,50.277c-2.751,24.495 -1.644,48.828 3.304,72.981c-23.21,-1.432 -46.354,-0.781 -69.434,1.953c-23.095,2.719 -45.752,7.487 -68.001,14.274c-22.233,6.788 -43.685,15.495 -64.372,26.124c-20.67,10.644 -40.234,23.03 -58.691,37.158c-84.815,65.722 -138.542,161.686 -155.339,277.636c-2.116,13.64 -3.434,27.377 -3.955,41.195c-0.504,13.802 -0.211,27.588 0.879,41.374c1.091,13.769 2.995,27.441 5.697,40.983c2.685,13.558 6.168,26.904 10.433,40.055c4.248,13.151 9.261,25.993 15.023,38.558c5.761,12.565 12.239,24.74 19.417,36.54c7.194,11.8 15.039,23.144 23.551,34.033c8.513,10.889 17.643,21.24 27.36,31.055c12.077,11.816 24.903,22.737 38.509,32.78l-8.252,38.427c-79.524,11.98 -147.965,40.04 -199.674,82.081c-17.757,0.455 -34.994,3.727 -51.693,9.814c-95.442,35.091 -152.392,118.945 -183.431,183.122c-3.304,6.852 -5.94,13.948 -7.942,21.273c-1.986,7.34 -3.288,14.794 -3.907,22.379c-0.618,7.568 -0.537,15.137 0.228,22.705c0.781,7.552 2.23,14.99 4.378,22.282c-22.542,39.014 -39.388,80.355 -50.553,124.007c-0.537,2.718 -0.797,5.453 -0.797,8.236c-0,2.767 0.26,5.517 0.813,8.219c0.537,2.718 1.335,5.371 2.393,7.927c1.058,2.555 2.36,4.996 3.906,7.291c1.53,2.312 3.288,4.444 5.241,6.397c1.953,1.969 4.085,3.711 6.38,5.257c2.311,1.546 4.737,2.848 7.292,3.906c2.555,1.075 5.192,1.872 7.91,2.425c2.425,0.342 4.85,0.456 7.275,0.359c2.442,-0.114 4.851,-0.424 7.227,-0.977c2.376,-0.537 4.688,-1.286 6.917,-2.262c2.246,-0.961 4.379,-2.116 6.413,-3.467c2.018,-1.351 3.906,-2.881 5.664,-4.59c1.742,-1.693 3.32,-3.532 4.736,-5.518c1.416,-2.002 2.637,-4.101 3.663,-6.298c1.025,-2.214 1.839,-4.509 2.457,-6.869c6.462,-25.065 15.153,-49.349 26.074,-72.819c36.247,25.96 74.073,49.382 113.493,70.247c2.328,1.254 4.737,2.279 7.276,3.06c2.523,0.782 5.094,1.302 7.715,1.579c2.636,0.261 5.257,0.277 7.893,0.033c2.637,-0.261 5.209,-0.765 7.748,-1.514c2.523,-0.765 4.948,-1.774 7.292,-3.011c2.327,-1.237 4.508,-2.702 6.559,-4.378c2.034,-1.677 3.906,-3.532 5.566,-5.583c1.677,-2.035 3.141,-4.232 4.378,-6.559c1.237,-2.328 2.247,-4.769 3.011,-7.292c0.749,-2.539 1.254,-5.111 1.498,-7.747c0.26,-2.637 0.244,-5.258 -0.033,-7.894c-0.276,-2.621 -0.797,-5.192 -1.578,-7.715c-0.782,-2.539 -1.807,-4.948 -3.077,-7.275c-1.253,-2.328 -2.734,-4.493 -4.427,-6.527c-1.692,-2.018 -3.564,-3.874 -5.631,-5.518c-2.051,-1.66 -4.248,-3.108 -6.592,-4.329c-38.411,-20.248 -75.163,-43.148 -110.254,-68.701c-2.132,-1.53 -4.118,-3.239 -5.941,-5.111c-1.823,-1.872 -3.483,-3.89 -4.964,-6.038c-1.481,-2.165 -2.767,-4.444 -3.841,-6.82c-1.091,-2.376 -1.969,-4.834 -2.62,-7.373c-0.651,-2.539 -1.091,-5.111 -1.303,-7.715c-0.211,-2.604 -0.195,-5.225 0.049,-7.829c0.228,-2.604 0.7,-5.159 1.384,-7.698c0.683,-2.523 1.595,-4.965 2.702,-7.341c24.593,-50.879 68.636,-116.959 138.981,-142.806c5.534,-2.018 11.214,-3.434 17.041,-4.264c5.827,-0.814 11.686,-1.026 17.562,-0.619c5.875,0.391 11.637,1.4 17.317,3.011c5.664,1.612 11.101,3.793 16.309,6.543c66.227,34.701 185.791,112.582 242.48,243.571c1.058,2.426 2.328,4.704 3.809,6.869c1.497,2.165 3.19,4.15 5.078,5.989c1.888,1.823 3.939,3.451 6.136,4.883c2.214,1.416 4.541,2.621 6.983,3.581c2.441,0.977 4.964,1.693 7.552,2.165c2.571,0.472 5.192,0.683 7.812,0.651c2.621,-0.049 5.225,-0.342 7.796,-0.895c2.572,-0.554 5.062,-1.351 7.471,-2.393c2.409,-1.042 4.704,-2.311 6.852,-3.809c2.165,-1.497 4.167,-3.19 5.99,-5.078c1.839,-1.888 3.467,-3.939 4.883,-6.136c1.432,-2.213 2.62,-4.541 3.597,-6.982c0.96,-2.442 1.676,-4.964 2.148,-7.536c0.472,-2.588 0.7,-5.192 0.651,-7.829c-0.032,-2.62 -0.342,-5.224 -0.895,-7.796c-0.553,-2.572 -1.351,-5.062 -2.393,-7.471c-60.953,-140.82 -180.843,-227.588 -258.626,-271.614c25.944,-12.386 52.979,-21.534 81.12,-27.458c-0.065,3.564 0.342,7.08 1.221,10.547c3.287,12.419 37.467,131.429 296.354,203.385c14.86,4.151 45.149,8.464 51.497,-32.568l11.133,-78.044c89.355,121.013 131.527,267.79 125.228,437.517c-0.13,2.636 -0,5.273 0.407,7.893c0.39,2.605 1.041,5.16 1.937,7.65c0.911,2.474 2.05,4.85 3.418,7.113c1.367,2.262 2.945,4.362 4.736,6.315c1.79,1.953 3.76,3.695 5.892,5.257c2.148,1.563 4.411,2.897 6.819,4.004c2.393,1.107 4.883,1.969 7.455,2.588c2.571,0.602 5.176,0.96 7.829,1.058c2.636,0.098 5.257,-0.065 7.877,-0.488c2.604,-0.407 5.143,-1.091 7.634,-2.019c2.474,-0.927 4.834,-2.083 7.08,-3.483c2.246,-1.399 4.329,-2.995 6.266,-4.801c1.921,-1.807 3.662,-3.792 5.192,-5.941c1.546,-2.165 2.848,-4.443 3.939,-6.852c1.074,-2.409 1.921,-4.899 2.506,-7.487c0.586,-2.572 0.912,-5.192 0.993,-7.829c1.547,-39.941 0.489,-79.818 -3.157,-119.629l35.465,-10.221c3.727,-1.091 7.406,-2.328 11.019,-3.744c3.63,-1.399 7.178,-2.962 10.661,-4.687c3.483,-1.709 6.868,-3.581 10.189,-5.599c3.32,-2.035 6.543,-4.183 9.668,-6.494c3.125,-2.311 6.136,-4.753 9.049,-7.324c2.914,-2.572 5.697,-5.258 8.366,-8.09c2.669,-2.815 5.208,-5.745 7.634,-8.789c2.408,-3.043 4.671,-6.185 6.803,-9.44c2.132,-3.239 4.118,-6.575 5.957,-9.993c1.839,-3.418 3.532,-6.918 5.062,-10.482c1.513,-3.581 2.881,-7.21 4.101,-10.905c1.205,-3.678 2.246,-7.422 3.125,-11.198c0.879,-3.792 1.579,-7.601 2.116,-11.458c0.537,-3.841 0.912,-7.699 1.107,-11.573c0.195,-3.89 0.228,-7.763 0.081,-11.637c-0.146,-3.89 -0.472,-7.764 -0.96,-11.605c-28.239,-207.568 -181.348,-288.786 -284.652,-320.182c21.452,-6.234 41.911,-14.86 61.361,-25.863c29.069,14.893 58.838,28.239 89.307,40.023c2.653,0.977 5.387,1.677 8.203,2.067c5.924,0.847 11.751,0.391 17.464,-1.383c5.729,-1.774 10.791,-4.671 15.202,-8.724c191.797,-175.651 162.581,-447.754 161.263,-459.294c-0.179,-1.497 -0.44,-2.995 -0.781,-4.476c-0.342,-1.481 -0.765,-2.946 -1.286,-4.378c-0.505,-1.432 -1.107,-2.832 -1.774,-4.199c-0.668,-1.351 -1.416,-2.686 -2.23,-3.955c-0.83,-1.286 -1.725,-2.507 -2.686,-3.679c-0.96,-1.188 -1.985,-2.295 -3.076,-3.369c-1.09,-1.058 -2.23,-2.051 -3.434,-2.978c-1.204,-0.928 -2.458,-1.791 -3.76,-2.572c-1.302,-0.781 -2.653,-1.497 -4.036,-2.116c-1.384,-0.635 -2.783,-1.188 -4.232,-1.66c-1.449,-0.472 -2.913,-0.846 -4.411,-1.156c-1.481,-0.309 -2.995,-0.52 -4.508,-0.651c-1.514,-0.13 -3.028,-0.179 -4.541,-0.13c-1.53,0.049 -3.044,0.179 -4.541,0.391c-1.514,0.211 -2.995,0.521 -4.46,0.911c-1.481,0.375 -2.913,0.847 -4.329,1.4l-130.551,-205.843c-0.846,-1.335 -1.774,-2.604 -2.766,-3.841c-1.01,-1.221 -2.084,-2.393 -3.207,-3.483c-1.139,-1.107 -2.344,-2.133 -3.597,-3.093c-1.269,-0.96 -2.571,-1.839 -3.939,-2.637c-1.367,-0.813 -2.783,-1.529 -4.231,-2.164c-1.449,-0.635 -2.93,-1.188 -4.444,-1.644c-1.513,-0.456 -3.043,-0.83 -4.606,-1.107c-1.562,-0.277 -3.125,-0.456 -4.704,-0.553c-1.595,-0.082 -3.174,-0.082 -4.752,0.016c-1.579,0.098 -3.142,0.293 -4.704,0.57c-1.563,0.276 -3.093,0.651 -4.606,1.123c-1.514,0.455 -2.995,1.009 -4.444,1.66c-1.448,0.635 -2.848,1.367 -4.215,2.165c-1.351,0.813 -2.669,1.692 -3.923,2.653c-1.253,0.96 -2.457,2.002 -3.58,3.108c-1.14,1.107 -2.198,2.263 -3.19,3.5c-0.342,0.423 -0.7,0.83 -1.042,1.253c-17.122,-13.428 -35.4,-25.033 -54.818,-34.815c-19.433,-9.798 -39.616,-17.594 -60.595,-23.388c-6.299,-12.24 -10.596,-25.163 -12.875,-38.737c-2.278,-13.591 -2.441,-27.197 -0.472,-40.837c1.612,-14.632 1.546,-29.264 -0.195,-43.88c-1.742,-14.632 -5.127,-28.857 -10.156,-42.692c-1.042,-2.848 -2.198,-5.729 -3.451,-8.643c-2.978,-7.112 -6.51,-13.948 -10.612,-20.491c-4.085,-6.543 -8.691,-12.695 -13.786,-18.49c-5.094,-5.794 -10.628,-11.133 -16.601,-16.015c-5.974,-4.899 -12.289,-9.261 -18.978,-13.119c-6.69,-3.857 -13.639,-7.145 -20.85,-9.863c-7.226,-2.718 -14.616,-4.834 -22.184,-6.348c-7.568,-1.513 -15.202,-2.409 -22.917,-2.669c-7.698,-0.26 -15.381,0.098 -23.047,1.074c-9.684,0.977 -19.189,2.881 -28.483,5.746c-9.309,2.864 -18.245,6.624 -26.79,11.279c-8.561,4.655 -16.569,10.107 -24.04,16.357c-7.454,6.25 -14.225,13.184 -20.312,20.801c-50.847,-48.486 -134.847,-89.014 -245.622,-50.944c-8.805,3.19 -17.318,7.015 -25.553,11.475c-8.252,4.443 -16.114,9.489 -23.584,15.12c-7.487,5.632 -14.519,11.784 -21.094,18.457c-6.576,6.673 -12.614,13.802 -18.115,21.371c-5.518,7.584 -10.433,15.511 -14.746,23.828c-4.33,8.301 -8.024,16.878 -11.068,25.748c-3.044,8.855 -5.42,17.888 -7.129,27.084c-1.709,9.212 -2.718,18.506 -3.044,27.864c-64.583,11.866 -146.386,58.887 -157.568,184.31c-0.537,13.168 0.065,26.302 1.758,39.372c1.693,13.07 4.492,25.895 8.366,38.509c3.873,12.598 8.773,24.772 14.713,36.54c5.941,11.767 12.826,22.949 20.655,33.561c-21.859,14.339 -41.309,31.429 -58.334,51.27Zm504.02,500.26l16.325,-76.204c41.097,18.505 153.028,44.645 201.123,44.287l-22.607,158.675c-139.665,-51.042 -183.285,-107.194 -194.841,-126.758Zm530.648,285.921c0.375,3.011 0.472,6.022 0.293,9.05c-0.179,3.011 -0.602,5.989 -1.302,8.935c-0.7,2.946 -1.66,5.811 -2.864,8.578c-1.205,2.783 -2.653,5.42 -4.33,7.942c-1.676,2.523 -3.564,4.867 -5.648,7.048c-2.099,2.197 -4.362,4.167 -6.819,5.957c-2.442,1.774 -5.03,3.337 -7.748,4.655c-2.718,1.318 -5.534,2.392 -8.447,3.223l-24.805,7.161c-5.338,-28.125 -12.353,-55.827 -21.061,-83.105c-8.708,-27.279 -19.043,-53.923 -30.989,-79.932c-11.947,-26.025 -25.424,-51.221 -40.43,-75.586c-15.007,-24.382 -31.445,-47.77 -49.3,-70.15c85.84,31.494 183.48,99.463 203.45,246.224Zm-50.016,-401.383c-63.119,-27.295 -241.911,-113.721 -363.428,-262.256c107.471,6.836 295.899,5.713 482.748,-58.594c-1.872,75.456 -19.939,216.569 -119.32,320.85Zm-234.391,-397.461c1.595,2.083 3.401,3.987 5.371,5.713c1.985,1.725 4.118,3.239 6.396,4.541c2.279,1.318 4.671,2.392 7.162,3.222c2.49,0.83 5.029,1.416 7.633,1.758c2.621,0.326 5.225,0.407 7.845,0.228c2.621,-0.179 5.209,-0.618 7.731,-1.302c2.539,-0.684 4.981,-1.611 7.341,-2.783c2.36,-1.172 4.573,-2.556 6.64,-4.167c55.258,-42.692 106.153,-90.072 152.67,-142.155l91.764,144.662c-250.863,77.229 -503.792,37.646 -506.689,37.239c-3.776,-0.618 -7.569,-0.7 -11.361,-0.228c-3.792,0.472 -7.438,1.465 -10.954,2.979c-3.499,1.513 -6.738,3.483 -9.668,5.924c-2.946,2.442 -5.485,5.241 -7.633,8.415c-2.132,3.158 -3.793,6.559 -4.948,10.205c-1.172,3.646 -1.807,7.373 -1.905,11.198c-0.097,3.809 0.359,7.568 1.335,11.263c0.977,3.695 2.458,7.178 4.443,10.449c78.597,129.932 198.438,223.845 298.357,285.238c-33.708,8.431 -67.823,10.84 -102.377,7.226c-100.211,-9.049 -179.085,-41.064 -234.277,-95.198c-7.503,-7.634 -14.518,-15.658 -21.061,-24.105c-6.559,-8.431 -12.598,-17.236 -18.115,-26.383c-5.534,-9.148 -10.499,-18.571 -14.909,-28.304c-4.427,-9.734 -8.269,-19.678 -11.524,-29.867c-3.255,-10.173 -5.908,-20.508 -7.942,-30.99c-2.051,-10.498 -3.484,-21.061 -4.297,-31.722c-0.814,-10.644 -0.993,-21.321 -0.554,-31.998c0.423,-10.677 1.481,-21.289 3.158,-31.836c13.948,-96.354 56.038,-172.331 125.114,-225.781c9.082,-6.885 18.522,-13.249 28.304,-19.109c9.782,-5.843 19.84,-11.149 30.208,-15.917c10.368,-4.753 20.947,-8.936 31.771,-12.549c10.807,-3.597 21.794,-6.608 32.926,-9.017c11.149,-2.409 22.38,-4.216 33.724,-5.404c11.345,-1.188 22.705,-1.758 34.115,-1.709c11.393,0.065 22.754,0.733 34.082,2.018c11.328,1.286 22.559,3.19 33.675,5.697c18.994,3.743 37.337,9.57 55.013,17.432c17.692,7.877 34.277,17.627 49.772,29.231c-37.532,39.714 -77.913,76.302 -121.142,109.766c-2.067,1.595 -3.972,3.385 -5.697,5.371c-1.725,1.986 -3.255,4.118 -4.557,6.397c-1.302,2.278 -2.377,4.655 -3.207,7.161c-0.846,2.49 -1.432,5.029 -1.757,7.634c-0.342,2.604 -0.424,5.224 -0.228,7.845c0.179,2.62 0.602,5.208 1.302,7.731c0.683,2.539 1.611,4.98 2.783,7.34c1.172,2.344 2.555,4.574 4.167,6.641Z" style="fill:#313744;fill-rule:nonzero;"/></g></g></g></g></g></g></g><g><g><clipPath id="_clip88"><path d="M933.122,468.75l3257.7,464.404l-464.42,3257.7l-3257.68,-464.404l464.405,-3257.7Z"/></clipPath><g clip-path="url(#_clip88)"><g><clipPath id="_clip89"><path d="M933.122,468.75l3257.7,464.404l-464.42,3257.7l-3257.68,-464.404l464.405,-3257.7Z"/></clipPath><g clip-path="url(#_clip89)"><g><clipPath id="_clip90"><path d="M933.122,468.75l3257.7,464.404l-464.42,3257.7l-3257.68,-464.404l464.405,-3257.7Z"/></clipPath><g clip-path="url(#_clip90)"><path d="M1980.44,2674.45c2.018,1.676 4.183,3.157 6.494,4.427c2.295,1.253 4.704,2.278 7.211,3.076c2.506,0.781 5.078,1.318 7.682,1.595c2.62,0.293 5.225,0.309 7.845,0.081c2.62,-0.228 5.192,-0.716 7.715,-1.465c2.523,-0.732 4.948,-1.709 7.275,-2.929c2.328,-1.205 4.525,-2.637 6.576,-4.297c2.051,-1.644 3.906,-3.467 5.599,-5.485c10.286,-12.647 21.614,-24.284 33.984,-34.896c12.37,-10.628 25.586,-20.052 39.632,-28.304c14.063,-8.252 28.744,-15.202 44.043,-20.817c15.3,-5.632 30.973,-9.847 47.022,-12.679c-8.236,24.398 -18.441,47.933 -30.632,70.605c-1.334,2.295 -2.425,4.688 -3.271,7.194c-0.847,2.507 -1.433,5.079 -1.758,7.699c-0.326,2.637 -0.391,5.257 -0.179,7.91c0.211,2.637 0.683,5.225 1.432,7.764c0.733,2.539 1.725,4.98 2.962,7.324c1.221,2.344 2.686,4.541 4.362,6.592c1.693,2.034 3.565,3.89 5.616,5.55c2.067,1.676 4.264,3.109 6.624,4.329c2.327,1.156 4.736,2.1 7.226,2.816c2.507,0.716 5.046,1.188 7.634,1.432c2.604,0.245 5.192,0.228 7.78,-0.016c2.588,-0.244 5.127,-0.732 7.633,-1.465c2.491,-0.716 4.899,-1.676 7.211,-2.848c2.327,-1.172 4.508,-2.555 6.575,-4.15c2.067,-1.579 3.955,-3.353 5.681,-5.29c1.725,-1.953 3.271,-4.037 4.606,-6.266c23.746,-44.939 41.52,-92.123 53.336,-141.553c53.028,-172.494 198.487,-157.829 204.411,-157.162c3.776,0.489 7.552,0.44 11.328,-0.146c3.776,-0.602 7.389,-1.709 10.84,-3.337c3.467,-1.627 6.624,-3.694 9.473,-6.233c2.864,-2.523 5.306,-5.404 7.356,-8.643c68.409,-108.577 147.803,-171.94 236.052,-188.379c119.938,-22.314 219.287,50.456 220.166,51.139c3.922,2.946 8.236,5.111 12.956,6.478c4.703,1.367 9.521,1.856 14.404,1.449c101.481,-8.171 181.771,13.102 238.639,63.281c68.685,60.563 106.722,163.656 113.102,306.413c0.993,23.502 3.939,46.761 8.822,69.792c4.899,23.014 11.686,45.459 20.345,67.334c8.675,21.891 19.092,42.887 31.283,63.02c12.207,20.118 25.992,39.095 41.373,56.901c-64.144,18.148 -121.207,16.814 -170.231,-4.052c-90.071,-38.33 -125.944,-131.836 -126.253,-132.634c-1.449,-3.971 -3.483,-7.617 -6.087,-10.954c-2.604,-3.336 -5.664,-6.184 -9.18,-8.544c-3.516,-2.361 -7.308,-4.118 -11.377,-5.274c-4.069,-1.156 -8.219,-1.66 -12.451,-1.497c-4.216,0.162 -8.317,0.976 -12.288,2.425c-3.972,1.465 -7.634,3.499 -10.954,6.12c-3.321,2.62 -6.169,5.68 -8.513,9.196c-2.36,3.515 -4.101,7.308 -5.257,11.393c-7.617,25.7 -12.695,51.904 -15.234,78.597c-2.539,26.693 -2.474,53.385 0.179,80.062c-20.589,-9.636 -39.893,-21.371 -57.943,-35.189c-6.152,-4.899 -11.979,-10.156 -17.48,-15.772c-5.502,-5.615 -10.645,-11.556 -15.397,-17.822c-4.769,-6.25 -9.115,-12.777 -13.07,-19.58c-3.955,-6.803 -7.455,-13.818 -10.531,-21.061c-3.076,-7.243 -5.696,-14.632 -7.845,-22.201c-2.148,-7.568 -3.825,-15.234 -5.013,-22.998c-1.204,-7.78 -1.904,-15.592 -2.132,-23.454c-0.228,-7.861 0.049,-15.706 0.798,-23.535c19.645,-240.869 -110.482,-352.148 -116.032,-356.771c-3.011,-2.49 -6.315,-4.508 -9.912,-6.038c-3.614,-1.546 -7.357,-2.523 -11.247,-2.962c-3.89,-0.423 -7.764,-0.293 -11.605,0.407c-3.857,0.7 -7.52,1.953 -11.003,3.727c-187.369,95.752 -198.502,327.718 -199.056,344.906c-8.138,146.142 -66.031,210.205 -163.867,260.905c-17.317,-23.161 -29.85,-48.666 -37.597,-76.53l19.026,-41.846c1.091,-2.393 1.953,-4.883 2.556,-7.438c0.618,-2.556 0.976,-5.16 1.074,-7.797c0.097,-2.636 -0.065,-5.24 -0.488,-7.845c-0.424,-2.604 -1.091,-5.143 -2.002,-7.617c-0.928,-2.457 -2.084,-4.817 -3.467,-7.064c-1.384,-2.229 -2.962,-4.313 -4.769,-6.25c-1.79,-1.92 -3.76,-3.662 -5.908,-5.192c-2.132,-1.546 -4.395,-2.864 -6.804,-3.955c-2.392,-1.09 -4.882,-1.937 -7.438,-2.522c-2.571,-0.603 -5.176,-0.944 -7.796,-1.042c-2.637,-0.082 -5.257,0.081 -7.861,0.521c-2.588,0.423 -5.127,1.106 -7.585,2.034c-2.474,0.928 -4.818,2.1 -7.064,3.483c-2.23,1.4 -4.313,2.995 -6.234,4.802c-1.92,1.806 -3.645,3.792 -5.159,5.924c-1.53,2.149 -2.848,4.427 -3.923,6.836l-24.479,53.841c-2.23,4.671 -89.469,188.021 -129.996,260.254c-24.935,44.483 -36.264,100.619 -41.374,144.027c-84.994,-63.119 -82.162,-135.856 -82.015,-139.03c0.211,-2.442 0.195,-4.867 -0.049,-7.292c-0.228,-2.425 -0.7,-4.817 -1.367,-7.161c-0.667,-2.344 -1.563,-4.606 -2.653,-6.787c-1.091,-2.181 -2.36,-4.248 -3.825,-6.202c-1.465,-1.936 -3.109,-3.743 -4.899,-5.387c-1.79,-1.66 -3.727,-3.125 -5.794,-4.427c-2.067,-1.302 -4.232,-2.393 -6.495,-3.304c-2.262,-0.895 -4.589,-1.595 -6.982,-2.067c-2.393,-0.472 -4.818,-0.732 -7.259,-0.765c-2.441,-0.033 -4.85,0.163 -7.259,0.57c-2.409,0.407 -4.753,1.025 -7.048,1.871c-2.295,0.83 -4.476,1.872 -6.592,3.109c-2.099,1.253 -4.069,2.669 -5.908,4.264c-1.839,1.595 -3.515,3.353 -5.045,5.258c-1.514,1.92 -2.849,3.938 -4.004,6.087c-1.14,2.165 -2.084,4.394 -2.832,6.722c-35.091,108.919 -91.651,195.459 -168.132,257.178c-2.051,1.66 -3.906,3.499 -5.582,5.501c-1.677,2.018 -3.142,4.183 -4.395,6.494c-1.253,2.311 -2.279,4.72 -3.06,7.227c-0.781,2.506 -1.302,5.061 -1.579,7.666c-0.276,2.62 -0.293,5.224 -0.065,7.845c0.244,2.604 0.733,5.175 1.481,7.698c0.733,2.507 1.709,4.932 2.93,7.259c1.221,2.328 2.653,4.509 4.313,6.56c1.644,2.034 3.467,3.89 5.485,5.582c2.018,1.677 4.183,3.142 6.478,4.411c2.311,1.253 4.72,2.279 7.227,3.06c2.506,0.781 5.062,1.318 7.666,1.595c2.604,0.277 5.224,0.309 7.845,0.065c2.604,-0.228 5.176,-0.716 7.698,-1.448c2.523,-0.749 4.932,-1.726 7.259,-2.93c2.328,-1.221 4.525,-2.653 6.56,-4.297c31.331,-25.57 59.635,-54.15 84.912,-85.742c25.276,-31.576 46.94,-65.462 65.023,-101.644c25.455,42.822 69.694,89.339 146.337,126.383c1.53,0.749 3.109,1.384 4.721,1.921c1.611,0.537 3.238,0.977 4.915,1.302c1.66,0.342 3.336,0.57 5.029,0.684c1.693,0.114 3.386,0.114 5.095,0.016c1.692,-0.098 3.369,-0.293 5.045,-0.602c1.66,-0.326 3.304,-0.733 4.916,-1.254c1.627,-0.52 3.206,-1.155 4.736,-1.871c1.53,-0.716 3.027,-1.547 4.459,-2.458c1.433,-0.911 2.8,-1.904 4.102,-2.995c1.302,-1.074 2.539,-2.246 3.695,-3.483c1.155,-1.253 2.23,-2.555 3.222,-3.939c0.993,-1.383 1.888,-2.815 2.702,-4.313c0.798,-1.497 1.514,-3.027 2.116,-4.606c0.619,-1.595 1.123,-3.206 1.53,-4.85c0.407,-1.66 0.716,-3.321 0.911,-5.013c0.18,-1.677 0.277,-3.369 0.245,-5.078c-0.375,-29.704 5.224,-118.506 35.351,-172.266c24.251,-43.262 63.298,-122.054 92.725,-182.601c12.614,21.794 27.946,41.455 46.012,58.985c2.914,2.799 6.185,5.094 9.798,6.901c3.614,1.806 7.406,3.043 11.394,3.71c3.987,0.652 7.975,0.7 11.979,0.147c4.004,-0.537 7.829,-1.676 11.491,-3.385c94.189,-43.995 183.772,-104.346 220.247,-237.631c3.125,1.97 38.753,21.631 63.77,-11.344c13.362,-17.594 2.653,-43.766 -16.96,-53.955c-4.053,-2.1 -7.829,-4.639 -11.279,-7.65c-3.451,-2.995 -6.511,-6.364 -9.164,-10.091c-2.653,-3.727 -4.818,-7.715 -6.51,-11.979c-1.693,-4.248 -2.865,-8.643 -3.516,-13.168c1.221,-20.849 14.323,-180.468 130.029,-259.195c27.312,33.87 74.268,111.425 70.525,241.015c-6.934,-11.214 -14.437,-22.021 -22.494,-32.438c-8.187,-9.961 -15.072,-20.768 -20.622,-32.406c-5.566,-11.637 -9.651,-23.779 -12.256,-36.409c-0.455,-2.588 -1.171,-5.111 -2.115,-7.552c-0.961,-2.442 -2.149,-4.785 -3.565,-6.999c-1.416,-2.213 -3.027,-4.264 -4.85,-6.152c-1.823,-1.905 -3.809,-3.597 -5.973,-5.111c-2.149,-1.497 -4.428,-2.783 -6.836,-3.825c-2.409,-1.058 -4.899,-1.872 -7.455,-2.441c-2.571,-0.554 -5.176,-0.863 -7.796,-0.912c-2.637,-0.065 -5.241,0.147 -7.829,0.603c-2.588,0.455 -5.094,1.171 -7.552,2.132c-2.441,0.96 -4.769,2.132 -6.982,3.548c-2.214,1.416 -4.281,3.044 -6.169,4.866c-1.888,1.807 -3.597,3.809 -5.094,5.957c-1.514,2.149 -2.784,4.444 -3.841,6.836c-1.058,2.409 -1.872,4.9 -2.426,7.471c-0.569,2.572 -0.879,5.16 -0.927,7.796c-0.049,2.621 0.146,5.225 0.602,7.813c3.743,19.01 9.717,37.305 17.903,54.866c8.187,17.546 18.36,33.871 30.518,48.959c15.999,20.508 28.857,42.822 38.558,66.943c-27.311,16.748 -54.769,34.343 -82.129,52.881c-3.223,2.213 -6.348,4.557 -9.359,7.031c-3.011,2.49 -5.908,5.095 -8.691,7.845c-2.783,2.735 -5.436,5.599 -7.959,8.578c-2.539,2.978 -4.915,6.054 -7.178,9.245c-2.246,3.19 -4.362,6.477 -6.315,9.847c-1.969,3.385 -3.776,6.835 -5.436,10.367c-1.644,3.549 -3.141,7.146 -4.476,10.824c-1.335,3.662 -2.506,7.389 -3.499,11.165c-1.009,3.776 -1.839,7.585 -2.507,11.426c-0.667,3.857 -1.155,7.731 -1.465,11.621c-0.325,3.89 -0.472,7.78 -0.439,11.686c0.016,3.907 0.228,7.813 0.602,11.687c0.374,3.89 0.912,7.763 1.628,11.588c0.716,3.841 1.611,7.65 2.653,11.41c1.058,3.759 2.278,7.454 3.662,11.116c1.383,3.646 2.93,7.227 4.638,10.742c2.767,5.697 23.096,35.629 33.985,38.705c5.452,1.513 10.97,1.855 16.569,1.041c5.583,-0.83 10.775,-2.75 15.56,-5.778c3.353,-2.115 6.803,-4.069 10.351,-5.859c3.565,-1.774 7.194,-3.369 10.905,-4.769c3.727,-1.416 7.504,-2.637 11.345,-3.662c3.825,-1.025 7.715,-1.872 11.637,-2.506c3.923,-0.635 7.861,-1.058 11.833,-1.303c3.971,-0.244 7.942,-0.276 11.914,-0.113c3.955,0.179 7.91,0.537 11.849,1.106c3.939,0.554 7.829,1.319 11.686,2.279c3.857,0.96 7.65,2.116 11.393,3.45c3.744,1.351 7.406,2.881 10.987,4.59c3.58,1.709 7.08,3.614 10.465,5.681c3.402,2.067 6.673,4.297 9.847,6.689c3.174,2.409 6.201,4.948 9.115,7.666c2.913,2.702 5.68,5.55 8.3,8.529c2.621,2.995 5.078,6.103 7.39,9.342c2.311,3.239 4.443,6.576 6.412,10.026c1.97,3.451 3.76,6.999 5.372,10.629c1.611,3.645 3.027,7.34 4.264,11.116c1.237,3.776 2.279,7.617 3.125,11.491c0.846,3.89 1.497,7.796 1.953,11.751c0.456,3.939 0.7,7.91 0.749,11.882c0.049,3.971 -0.098,7.942 -0.456,11.898c-0.342,3.955 -0.895,7.893 -1.644,11.783c-0.749,3.907 -1.693,7.764 -2.832,11.573c-1.139,3.808 -2.458,7.552 -3.988,11.214c-1.513,3.678 -3.206,7.259 -5.094,10.775c-1.872,3.499 -3.923,6.884 -6.152,10.188c-2.23,3.288 -4.606,6.462 -7.146,9.522c-2.555,3.043 -5.24,5.957 -8.089,8.74c-2.832,2.783 -5.81,5.404 -8.919,7.894c-3.109,2.474 -6.331,4.785 -9.668,6.95c-3.337,2.148 -6.771,4.118 -10.319,5.924c-2.474,1.27 -4.769,2.784 -6.934,4.525c-2.148,1.742 -4.101,3.695 -5.843,5.843c-1.757,2.149 -3.255,4.46 -4.524,6.934c-1.27,2.457 -2.279,5.029 -3.011,7.698c-0.733,2.67 -1.189,5.388 -1.351,8.155c-0.179,2.767 -0.049,5.533 0.341,8.268c0.407,2.751 1.091,5.42 2.051,8.024c0.961,2.604 2.165,5.078 3.646,7.422c27.572,43.961 57.048,88.981 87.695,134.619c-20.247,40.56 -43.164,79.541 -68.766,116.943c-83.577,-106.917 -273.926,-185.693 -303.336,-357.389l-1.612,-88.249c-0.065,-2.62 -0.374,-5.224 -0.928,-7.78c-0.569,-2.571 -1.367,-5.061 -2.425,-7.47c-1.058,-2.393 -2.327,-4.672 -3.825,-6.836c-1.497,-2.149 -3.206,-4.134 -5.094,-5.957c-1.888,-1.823 -3.939,-3.451 -6.152,-4.867c-2.214,-1.416 -4.541,-2.604 -6.983,-3.564c-2.441,-0.961 -4.948,-1.677 -7.536,-2.132c-2.587,-0.472 -5.192,-0.668 -7.812,-0.635c-2.637,0.049 -5.225,0.358 -7.796,0.911c-2.572,0.57 -5.046,1.367 -7.455,2.425c-2.409,1.042 -4.687,2.312 -6.852,3.809c-2.148,1.497 -4.15,3.19 -5.973,5.078c-1.823,1.888 -3.451,3.939 -4.867,6.152c-1.416,2.214 -2.604,4.525 -3.58,6.983c-0.961,2.441 -1.677,4.948 -2.133,7.536c-0.472,2.588 -0.683,5.192 -0.651,7.812l1.628,88.249c0.163,11.458 0.96,22.868 2.425,34.228c1.465,11.345 3.581,22.591 6.331,33.708c2.751,11.117 6.137,22.038 10.14,32.78c4.004,10.726 8.594,21.191 13.802,31.396c5.209,10.206 10.971,20.085 17.302,29.623c6.331,9.538 13.184,18.701 20.573,27.458c7.373,8.756 15.234,17.057 23.568,24.918c8.333,7.861 17.073,15.218 26.253,22.07c-47.038,39.828 -89.307,84.18 -126.839,133.057c-62.582,81.38 -132.911,155.42 -210.97,222.103c-2.019,1.693 -3.842,3.548 -5.502,5.599c-1.644,2.034 -3.092,4.215 -4.313,6.543c-1.221,2.327 -2.197,4.753 -2.946,7.275c-0.732,2.523 -1.237,5.095 -1.465,7.715c-0.244,2.604 -0.228,5.225 0.065,7.845c0.277,2.604 0.798,5.16 1.579,7.682c0.781,2.507 1.807,4.916 3.06,7.211c1.253,2.311 2.718,4.476 4.411,6.494c1.676,2.018 3.548,3.857 5.583,5.501c2.05,1.66 4.231,3.093 6.559,4.313c2.327,1.221 4.752,2.214 7.275,2.946c2.523,0.749 5.078,1.237 7.699,1.481c2.62,0.228 5.241,0.212 7.845,-0.065c2.62,-0.276 5.176,-0.813 7.682,-1.595c2.507,-0.781 4.915,-1.79 7.227,-3.043c2.311,-1.27 4.476,-2.735 6.494,-4.411c82.519,-70.41 156.852,-148.617 222.998,-234.587c0.211,-0.276 0.456,-0.586 0.667,-0.911c39.518,-51.205 84.733,-96.761 135.645,-136.67c54.118,40.283 100.976,87.711 140.608,142.318c-23.405,29.183 -48.437,56.901 -75.097,83.154c-181.983,178.711 -398.356,245.215 -643.408,197.64c-0.163,-0.016 -0.326,-0.049 -0.489,-0.065c-0.146,-0.017 -0.276,-0.098 -0.423,-0.114c-176.611,-30.095 -311.002,-102.279 -399.495,-214.551c-1.628,-2.067 -3.435,-3.955 -5.437,-5.664c-1.985,-1.693 -4.134,-3.19 -6.429,-4.476c-2.294,-1.286 -4.687,-2.344 -7.194,-3.141c-2.49,-0.814 -5.045,-1.384 -7.666,-1.693c-2.604,-0.309 -5.224,-0.358 -7.845,-0.146c-2.604,0.195 -5.192,0.667 -7.714,1.383c-2.523,0.7 -4.965,1.66 -7.308,2.848c-2.344,1.205 -4.541,2.605 -6.608,4.232c-2.068,1.628 -3.956,3.434 -5.648,5.436c-1.709,2.002 -3.207,4.151 -4.492,6.446c-1.286,2.278 -2.328,4.687 -3.142,7.177c-0.814,2.507 -1.383,5.062 -1.676,7.666c-0.309,2.605 -0.375,5.225 -0.163,7.845c0.212,2.621 0.667,5.193 1.384,7.732c0.716,2.522 1.66,4.964 2.848,7.291c1.204,2.344 2.604,4.558 4.232,6.608c100.992,128.125 251.692,210.091 447.933,243.75l0.065,0.017c14.957,2.897 29.817,5.403 44.612,7.503c251.254,35.823 482.162,-42.041 670.134,-226.611c74.788,-74.17 137.679,-157.325 188.688,-249.48c5.208,7.487 10.286,14.925 15.56,22.429c5.436,7.763 11.621,14.909 18.522,21.403c6.901,6.51 14.388,12.239 22.477,17.204c8.073,4.947 16.585,9.049 25.505,12.255c8.919,3.223 18.066,5.502 27.457,6.836c21.534,3.044 42.627,1.205 63.298,-5.517c23.372,-7.748 47.282,-13.054 71.728,-15.886c24.447,-2.848 48.942,-3.19 73.454,-1.009c0.309,0.049 0.619,0.016 0.928,0.033c6.836,61.621 12.353,114.03 12.63,143.522c0.261,15.478 -2.816,30.257 -9.245,44.352c-59.017,126.139 -185.547,109.375 -281.25,73.08c-3.727,-1.368 -7.242,-3.142 -10.563,-5.306c-3.32,-2.181 -6.364,-4.688 -9.114,-7.553c-2.751,-2.848 -5.16,-5.973 -7.194,-9.375c-2.051,-3.401 -3.695,-6.982 -4.932,-10.758c-6.087,-18.75 -12.939,-37.484 -20.361,-55.664c-0.977,-2.474 -2.181,-4.818 -3.614,-7.048c-1.432,-2.213 -3.076,-4.28 -4.915,-6.184c-1.855,-1.905 -3.857,-3.597 -6.038,-5.095c-2.181,-1.497 -4.493,-2.767 -6.934,-3.808c-2.441,-1.042 -4.948,-1.84 -7.536,-2.377c-2.604,-0.553 -5.224,-0.83 -7.861,-0.846c-2.653,-0.033 -5.274,0.211 -7.878,0.7c-2.604,0.504 -5.127,1.253 -7.584,2.262c-2.458,0.993 -4.786,2.23 -6.983,3.695c-2.213,1.465 -4.248,3.125 -6.136,4.997c-1.872,1.871 -3.548,3.906 -5.029,6.103c-1.465,2.197 -2.702,4.525 -3.711,6.966c-1.026,2.458 -1.774,4.981 -2.295,7.569c-0.505,2.604 -0.749,5.224 -0.749,7.877c0.017,2.653 0.277,5.274 0.814,7.861c0.537,2.605 1.318,5.111 2.344,7.553c6.673,16.39 12.858,33.268 18.327,50.113c3.092,9.473 7.177,18.49 12.288,27.035c5.127,8.545 11.117,16.423 18.018,23.617c6.884,7.194 14.485,13.525 22.802,19.01c8.334,5.469 17.155,9.961 26.481,13.444c33.822,13.102 68.669,22.363 104.525,27.783c127.214,18.132 225.733,-30.924 277.621,-141.829c11.539,-25.082 17.138,-51.433 16.764,-79.053c-0.342,-36.849 -6.999,-96.777 -15.462,-172.656l-0.863,-8.122c5.387,-8.529 9.066,-17.725 11.035,-27.62c1.97,-9.88 2.1,-19.792 0.391,-29.737l-20.15,-118.701c-6.868,-40.56 -8.984,-81.38 -6.347,-122.445l14.453,-225.13c54.671,-3.792 106.966,-17.008 156.884,-39.632c1.595,-0.7 3.142,-1.497 4.639,-2.393c1.497,-0.911 2.93,-1.904 4.297,-2.994c1.367,-1.091 2.653,-2.263 3.874,-3.516c1.204,-1.253 2.343,-2.588 3.369,-3.988c1.041,-1.399 1.985,-2.864 2.832,-4.394c0.846,-1.53 1.595,-3.109 2.246,-4.736c0.635,-1.612 1.172,-3.272 1.595,-4.965c0.423,-1.692 0.732,-3.418 0.944,-5.143c0.195,-1.741 0.277,-3.483 0.26,-5.224c-0.032,-1.742 -0.179,-3.484 -0.423,-5.209c-0.26,-1.741 -0.618,-3.434 -1.09,-5.111c-0.489,-1.692 -1.075,-3.336 -1.758,-4.931c-0.684,-1.611 -1.481,-3.158 -2.376,-4.655c-0.896,-1.514 -1.888,-2.946 -2.963,-4.313c-1.074,-1.367 -2.246,-2.67 -3.499,-3.89c-1.253,-1.221 -2.572,-2.344 -3.971,-3.402c-8.936,-7.503 -17.465,-15.462 -25.586,-23.861c-8.106,-8.414 -15.755,-17.22 -22.949,-26.416c-7.195,-9.212 -13.884,-18.766 -20.069,-28.662c-6.201,-9.912 -11.865,-20.101 -16.992,-30.599c-5.127,-10.498 -9.684,-21.24 -13.688,-32.21c-4.004,-10.97 -7.422,-22.119 -10.27,-33.447c-2.832,-11.328 -5.062,-22.787 -6.706,-34.343c-1.644,-11.572 -2.686,-23.193 -3.109,-34.863c-7.373,-165.267 -51.074,-291.439 -140.104,-362.842c-121.012,-97.103 -237.305,-69.417 -291.846,-89.062l1147.48,-1149.61c1.725,-1.725 3.271,-3.613 4.638,-5.631c1.384,-2.035 2.572,-4.167 3.548,-6.397c0.993,-2.246 1.758,-4.557 2.328,-6.933c0.553,-2.377 0.895,-4.802 1.025,-7.243c0.114,-2.441 0.017,-4.883 -0.325,-7.308c-0.326,-2.425 -0.863,-4.785 -1.628,-7.113c-0.765,-2.327 -1.725,-4.573 -2.897,-6.722c-1.188,-2.148 -2.539,-4.166 -4.085,-6.054c-1.547,-1.905 -3.239,-3.646 -5.111,-5.241c-1.872,-1.579 -3.857,-2.979 -5.973,-4.199c-2.132,-1.221 -4.346,-2.247 -6.641,-3.06c-2.311,-0.814 -4.671,-1.4 -7.096,-1.791c-2.409,-0.374 -4.851,-0.537 -7.292,-0.472c-2.441,0.065 -4.866,0.358 -7.259,0.863c-2.393,0.521 -4.72,1.237 -6.982,2.181c-2.263,0.928 -4.428,2.067 -6.478,3.402l-1495.9,977.457c-179.15,105.453 -363.346,201.221 -552.555,287.321c-2.442,1.042 -4.736,2.328 -6.917,3.825c-2.165,1.514 -4.183,3.223 -6.006,5.127c-1.839,1.904 -3.483,3.971 -4.899,6.201c-1.433,2.23 -2.621,4.574 -3.581,7.032c-0.96,2.473 -1.677,5.013 -2.132,7.617c-0.456,2.604 -0.651,5.224 -0.586,7.877c0.049,2.653 0.374,5.257 0.96,7.845c0.586,2.572 1.416,5.078 2.49,7.487c1.075,2.425 2.377,4.704 3.907,6.869c1.529,2.165 3.255,4.15 5.192,5.957c1.92,1.823 4.004,3.434 6.25,4.834c2.246,1.4 4.606,2.571 7.08,3.499c2.474,0.944 5.013,1.612 7.633,2.051c2.604,0.423 5.241,0.586 7.878,0.505c2.653,-0.098 5.257,-0.44 7.829,-1.058c2.587,-0.603 5.078,-1.465 7.47,-2.572c192.383,-87.533 379.655,-184.912 561.8,-292.155c0.44,-0.26 0.879,-0.537 1.302,-0.814l1174.89,-767.741l-896.517,898.226c-29.395,-10.612 -59.652,-17.285 -90.772,-20.019c-31.136,-2.751 -62.093,-1.449 -92.887,3.873c-105.648,19.304 -198.861,88.119 -277.344,204.737c-76.449,0.293 -198.21,39.192 -255.664,187.304c-12.109,0.7 -24.154,2.019 -36.133,3.972c-11.963,1.937 -23.812,4.492 -35.514,7.666c-11.719,3.174 -23.226,6.933 -34.538,11.312c-11.328,4.362 -22.38,9.293 -33.187,14.811c-10.807,5.501 -21.305,11.556 -31.478,18.164c-10.188,6.592 -19.987,13.704 -29.427,21.322c-9.44,7.617 -18.473,15.706 -27.067,24.251c-8.61,8.561 -16.748,17.529 -24.414,26.92c-1.693,2.019 -3.174,4.167 -4.427,6.478c-1.27,2.295 -2.295,4.704 -3.092,7.211c-0.782,2.506 -1.319,5.061 -1.612,7.682c-0.293,2.604 -0.325,5.224 -0.097,7.829c0.227,2.62 0.716,5.192 1.448,7.714c0.733,2.523 1.709,4.948 2.914,7.276c1.22,2.344 2.653,4.525 4.296,6.575c1.644,2.051 3.467,3.923 5.469,5.616Zm1358.81,762.223c-9.082,-0.96 -18.051,-1.563 -26.888,-1.807l-32.601,-161.133c-6.983,-34.537 -10.124,-69.401 -9.408,-104.622l2.686,-130.469c0.081,-2.636 -0.098,-5.273 -0.538,-7.877c-0.439,-2.604 -1.123,-5.16 -2.067,-7.617c-0.944,-2.474 -2.115,-4.834 -3.531,-7.081c-1.416,-2.229 -3.028,-4.313 -4.851,-6.233c-1.823,-1.921 -3.808,-3.63 -5.973,-5.16c-2.165,-1.53 -4.46,-2.816 -6.869,-3.89c-2.425,-1.058 -4.931,-1.888 -7.503,-2.457c-2.588,-0.57 -5.208,-0.896 -7.845,-0.944c-2.653,-0.049 -5.273,0.146 -7.877,0.618c-2.605,0.472 -5.144,1.188 -7.601,2.148c-2.458,0.977 -4.802,2.181 -7.032,3.614c-2.213,1.432 -4.28,3.06 -6.184,4.899c-1.889,1.855 -3.598,3.857 -5.095,6.038c-1.497,2.181 -2.767,4.492 -3.808,6.918c-1.042,2.425 -1.84,4.931 -2.393,7.535c-0.537,2.588 -0.83,5.192 -0.846,7.845l-2.686,130.453c-0.846,41.129 2.816,81.852 10.97,122.168l30.469,150.586c-23.975,3.808 -47.51,9.407 -70.638,16.829c-2.995,0.993 -6.055,1.742 -9.18,2.263c-3.125,0.504 -6.266,0.765 -9.44,0.765c-3.158,-0 -6.299,-0.245 -9.424,-0.733c-3.125,-0.504 -6.201,-1.237 -9.196,-2.23c-3.011,-0.992 -5.924,-2.213 -8.74,-3.662c-2.799,-1.448 -5.485,-3.108 -8.024,-4.997c-2.555,-1.871 -4.932,-3.955 -7.145,-6.201c-2.214,-2.262 -4.232,-4.687 -6.055,-7.275c-46.615,-66.26 -90.69,-131.885 -131.38,-195.573c4.394,-3.662 8.61,-7.487 12.679,-11.507c4.053,-4.02 7.926,-8.203 11.621,-12.549c3.695,-4.346 7.194,-8.854 10.498,-13.509c3.304,-4.655 6.396,-9.44 9.294,-14.356c2.897,-4.931 5.566,-9.96 8.024,-15.12c2.441,-5.143 4.671,-10.4 6.673,-15.739c2.002,-5.355 3.776,-10.775 5.306,-16.276c1.53,-5.501 2.816,-11.051 3.857,-16.667c1.058,-5.615 1.856,-11.246 2.425,-16.927c0.554,-5.68 0.879,-11.377 0.944,-17.09c0.066,-5.712 -0.113,-11.409 -0.537,-17.089c-0.423,-5.697 -1.09,-11.361 -2.018,-16.993c-0.911,-5.631 -2.067,-11.23 -3.467,-16.764c-1.399,-5.534 -3.027,-10.986 -4.899,-16.39c-1.872,-5.387 -3.971,-10.693 -6.299,-15.902c-2.343,-5.208 -4.882,-10.302 -7.666,-15.299c-2.767,-4.981 -5.745,-9.847 -8.935,-14.583c-3.207,-4.72 -6.592,-9.31 -10.189,-13.754c-3.581,-4.427 -7.357,-8.707 -11.312,-12.825c-3.971,-4.102 -8.089,-8.041 -12.402,-11.784c-4.297,-3.76 -8.74,-7.324 -13.363,-10.693c-4.606,-3.37 -9.342,-6.527 -14.225,-9.489c-4.883,-2.946 -9.88,-5.697 -15.007,-8.22c-5.11,-2.523 -10.335,-4.817 -15.657,-6.901c-5.322,-2.067 -10.71,-3.906 -16.195,-5.517c-5.469,-1.595 -11.019,-2.963 -16.601,-4.086c-5.599,-1.123 -11.231,-2.018 -16.911,-2.653c-5.664,-0.634 -11.361,-1.025 -17.057,-1.171c-5.713,-0.147 -11.41,-0.049 -17.107,0.292c-5.696,0.359 -11.377,0.944 -17.024,1.791c-5.648,0.83 -11.247,1.92 -16.797,3.239c-5.55,1.318 -11.035,2.881 -16.455,4.687c-0.293,-4.443 -0,-8.854 0.846,-13.216c0.863,-4.362 2.262,-8.545 4.199,-12.549c1.953,-4.004 4.379,-7.682 7.276,-11.051c2.913,-3.369 6.201,-6.315 9.879,-8.822c32.308,-21.907 64.746,-42.545 96.859,-61.751c8.236,24.333 19.808,46.989 34.684,67.936c14.893,20.947 32.471,39.323 52.751,55.111c22.949,17.171 47.314,31.999 73.112,44.499c25.781,12.5 52.523,22.444 80.208,29.817c3.76,1.026 7.569,1.514 11.459,1.433c3.89,-0.082 7.682,-0.717 11.376,-1.889c3.711,-1.188 7.178,-2.864 10.385,-5.045c3.222,-2.181 6.054,-4.785 8.512,-7.796c2.474,-3.011 4.46,-6.299 5.957,-9.88c1.497,-3.597 2.474,-7.308 2.897,-11.181c0.423,-3.858 0.277,-7.715 -0.407,-11.54c-0.7,-3.825 -1.92,-7.471 -3.678,-10.938c-10.71,-25.683 -15.755,-52.425 -15.153,-80.257c14.73,16.992 31.152,32.162 49.267,45.492c18.116,13.33 37.468,24.511 58.057,33.528c17.887,7.666 36.361,13.444 55.42,17.334l-14.502,225.863c-3.011,47.282 -0.57,94.271 7.341,140.967l20.149,118.701c0.049,0.26 0.196,1.09 -1.399,2.36Z" style="fill:#313744;fill-rule:nonzero;"/></g></g></g></g></g></g></g><g><g><clipPath id="_clip91"><path d="M933.122,468.75l3257.7,464.404l-464.42,3257.7l-3257.68,-464.404l464.405,-3257.7Z"/></clipPath><g clip-path="url(#_clip91)"><g><clipPath id="_clip92"><path d="M933.122,468.75l3257.7,464.404l-464.42,3257.7l-3257.68,-464.404l464.405,-3257.7Z"/></clipPath><g clip-path="url(#_clip92)"><g><clipPath id="_clip93"><path d="M933.122,468.75l3257.7,464.404l-464.42,3257.7l-3257.68,-464.404l464.405,-3257.7Z"/></clipPath><g clip-path="url(#_clip93)"><path d="M1165.37,3823.36c19.189,2.734 473.942,-69.368 606.998,-483.463c126.742,-394.418 145.98,-644.483 146.729,-654.948c0.163,-2.328 0.13,-4.672 -0.114,-6.999c-0.244,-2.344 -0.7,-4.639 -1.335,-6.885c-0.651,-2.262 -1.497,-4.443 -2.523,-6.543c-1.025,-2.099 -2.229,-4.101 -3.613,-6.006c-1.383,-1.888 -2.913,-3.645 -4.606,-5.273c-1.693,-1.628 -3.516,-3.093 -5.469,-4.395c-1.953,-1.302 -3.987,-2.425 -6.136,-3.369c-2.148,-0.944 -4.362,-1.709 -6.64,-2.262c-2.8,-0.684 -283.008,-70.654 -499.724,-289.307c-1.513,-1.546 -3.157,-2.946 -4.915,-4.232c-1.742,-1.269 -3.597,-2.392 -5.534,-3.369c-1.937,-0.96 -3.939,-1.774 -6.006,-2.425c-2.067,-0.651 -4.166,-1.123 -6.315,-1.432c-2.148,-0.309 -4.297,-0.44 -6.461,-0.391c-2.181,0.049 -4.33,0.261 -6.446,0.651c-2.132,0.407 -4.232,0.961 -6.266,1.693c-2.035,0.732 -4.004,1.628 -5.892,2.686c-268.311,148.942 -557.812,138.265 -560.661,138.151c-2.344,-0.114 -4.687,-0.017 -7.015,0.293c-2.327,0.309 -4.606,0.813 -6.836,1.513c-2.246,0.716 -4.394,1.612 -6.478,2.702c-2.083,1.074 -4.052,2.344 -5.908,3.776c-1.872,1.432 -3.581,3.011 -5.159,4.753c-1.579,1.725 -2.995,3.597 -4.248,5.582c-1.254,1.986 -2.328,4.053 -3.223,6.234c-0.879,2.165 -1.562,4.411 -2.067,6.706c-2.197,10.238 -53.63,255.713 -42.139,669.84c12.012,434.782 444.597,633.383 468.002,636.719Zm624.397,-850.586c0,0 -201.985,-367.383 -141.438,-337.207c60.546,30.192 123.079,55.469 187.581,75.847c-5.273,45.035 -18.099,135.611 -46.143,261.36Zm-1010.76,-63.232l992.383,141.471c-8.236,33.382 -17.481,68.636 -27.718,105.729l-390.446,-55.648c-2.605,-0.374 -5.225,-0.488 -7.845,-0.341c-2.621,0.146 -5.209,0.537 -7.748,1.188c-2.555,0.651 -5.013,1.546 -7.373,2.685c-2.376,1.14 -4.606,2.491 -6.706,4.069c-2.099,1.579 -4.036,3.353 -5.794,5.306c-1.741,1.954 -3.288,4.069 -4.622,6.332c-1.351,2.262 -2.458,4.622 -3.321,7.112c-0.878,2.474 -1.497,5.013 -1.871,7.618l-65.463,459.309c-0.374,2.588 -0.488,5.209 -0.341,7.829c0.13,2.621 0.537,5.209 1.188,7.748c0.651,2.555 1.546,5.013 2.685,7.373c1.14,2.376 2.491,4.606 4.069,6.705c1.579,2.116 3.353,4.037 5.306,5.795c1.953,1.741 4.069,3.287 6.332,4.638c2.262,1.335 4.622,2.442 7.096,3.304c2.49,0.879 5.029,1.498 7.634,1.872c2.604,0.375 5.208,0.488 7.828,0.342c2.621,-0.147 5.209,-0.553 7.764,-1.204c2.539,-0.652 4.997,-1.547 7.373,-2.686c2.36,-1.139 4.59,-2.49 6.706,-4.069c2.099,-1.579 4.02,-3.337 5.778,-5.306c1.758,-1.953 3.304,-4.053 4.638,-6.315c1.335,-2.262 2.442,-4.639 3.304,-7.113c0.879,-2.49 1.498,-5.029 1.872,-7.617l59.831,-419.694l339.73,48.438c-64.209,268.326 -366.455,485.628 -553.451,498.99c-10.302,-4.996 -28.287,-14.225 -50.895,-27.653l83.529,-586.018c0.374,-2.588 0.488,-5.209 0.342,-7.829c-0.131,-2.621 -0.538,-5.209 -1.189,-7.764c-0.651,-2.539 -1.546,-4.997 -2.685,-7.373c-1.139,-2.36 -2.49,-4.59 -4.069,-6.706c-1.579,-2.099 -3.353,-4.02 -5.306,-5.778c-1.953,-1.757 -4.069,-3.304 -6.332,-4.638c-2.262,-1.335 -4.622,-2.442 -7.112,-3.304c-2.474,-0.879 -5.013,-1.498 -7.617,-1.872l-390.414,-55.648c0.489,-38.476 1.465,-74.902 2.93,-109.277Zm-3.141,190.088l339.729,48.437l-72.46,508.285c-127.165,-85.14 -280.892,-246.485 -267.269,-556.722Z" style="fill:#313744;fill-rule:nonzero;"/></g></g></g></g></g></g></g><g><g><clipPath id="_clip94"><path d="M933.122,468.75l3257.7,464.404l-464.42,3257.7l-3257.68,-464.404l464.405,-3257.7Z"/></clipPath><g clip-path="url(#_clip94)"><g><clipPath id="_clip95"><path d="M933.122,468.75l3257.7,464.404l-464.42,3257.7l-3257.68,-464.404l464.405,-3257.7Z"/></clipPath><g clip-path="url(#_clip95)"><g><clipPath id="_clip96"><path d="M933.122,468.75l3257.7,464.404l-464.42,3257.7l-3257.68,-464.404l464.405,-3257.7Z"/></clipPath><g clip-path="url(#_clip96)"><path d="M2853.03,3139.7c1.579,0.228 3.142,0.358 4.72,0.407c1.579,0.033 3.158,-0.016 4.737,-0.163c1.579,-0.146 3.141,-0.39 4.687,-0.732c1.546,-0.326 3.06,-0.749 4.558,-1.27c1.497,-0.504 2.945,-1.106 4.378,-1.79c1.432,-0.684 2.799,-1.448 4.134,-2.311c1.335,-0.846 2.62,-1.774 3.841,-2.767c1.221,-1.009 2.376,-2.067 3.483,-3.206c1.091,-1.14 2.116,-2.344 3.076,-3.614c0.944,-1.253 1.823,-2.571 2.621,-3.922c0.814,-1.367 1.53,-2.783 2.148,-4.232c0.635,-1.449 1.188,-2.93 1.644,-4.443c0.456,-1.514 0.814,-3.044 1.091,-4.606c0.276,-1.547 0.455,-3.125 0.553,-4.704c0.081,-1.579 0.081,-3.158 -0.016,-4.737c-0.098,-1.578 -0.293,-3.141 -0.57,-4.687l-6.689,-36.637c-0.472,-2.588 -1.189,-5.111 -2.165,-7.553c-0.96,-2.425 -2.165,-4.752 -3.581,-6.966c-1.432,-2.197 -3.06,-4.248 -4.883,-6.136c-1.839,-1.888 -3.825,-3.564 -5.989,-5.062c-2.165,-1.497 -4.444,-2.767 -6.853,-3.808c-2.408,-1.042 -4.899,-1.839 -7.47,-2.393c-2.556,-0.553 -5.16,-0.846 -7.78,-0.879c-2.637,-0.048 -5.241,0.163 -7.813,0.635c-2.588,0.472 -5.11,1.188 -7.552,2.149c-2.441,0.976 -4.752,2.164 -6.966,3.597c-2.213,1.416 -4.248,3.043 -6.136,4.866c-1.888,1.823 -3.581,3.825 -5.078,5.973c-1.497,2.165 -2.767,4.444 -3.809,6.853c-1.041,2.408 -1.855,4.899 -2.409,7.47c-0.553,2.556 -0.846,5.16 -0.895,7.78c-0.049,2.621 0.163,5.241 0.635,7.813l6.673,36.637c0.749,4.134 2.116,8.04 4.102,11.735c1.985,3.711 4.492,7.015 7.503,9.929c3.027,2.897 6.429,5.273 10.189,7.128c3.776,1.84 7.731,3.06 11.881,3.646Z" style="fill:#313744;fill-rule:nonzero;"/></g></g></g></g></g></g></g><g><g><clipPath id="_clip97"><path d="M933.122,468.75l3257.7,464.404l-464.42,3257.7l-3257.68,-464.404l464.405,-3257.7Z"/></clipPath><g clip-path="url(#_clip97)"><g><clipPath id="_clip98"><path d="M933.122,468.75l3257.7,464.404l-464.42,3257.7l-3257.68,-464.404l464.405,-3257.7Z"/></clipPath><g clip-path="url(#_clip98)"><g><clipPath id="_clip99"><path d="M933.122,468.75l3257.7,464.404l-464.42,3257.7l-3257.68,-464.404l464.405,-3257.7Z"/></clipPath><g clip-path="url(#_clip99)"><path d="M1894.4,1636.28c-2.474,-0.895 -4.997,-1.546 -7.601,-1.937c-2.604,-0.39 -5.208,-0.537 -7.829,-0.406c-2.636,0.113 -5.224,0.488 -7.78,1.123c-2.539,0.618 -5.013,1.497 -7.389,2.604c-2.376,1.123 -4.622,2.457 -6.754,4.02c-2.116,1.562 -4.053,3.304 -5.827,5.241c-1.774,1.953 -3.337,4.036 -4.688,6.299c-1.367,2.246 -2.49,4.606 -3.385,7.08c-8.724,24.381 -19.515,47.802 -32.373,70.296c-1.335,2.262 -2.425,4.639 -3.304,7.113c-0.863,2.49 -1.481,5.029 -1.856,7.633c-0.358,2.604 -0.472,5.208 -0.325,7.845c0.146,2.621 0.553,5.208 1.204,7.747c0.651,2.556 1.563,5.014 2.702,7.374c1.139,2.376 2.49,4.606 4.085,6.705c1.579,2.1 3.353,4.037 5.306,5.778c1.953,1.758 4.069,3.304 6.332,4.639c2.278,1.335 4.638,2.441 7.129,3.304c2.473,0.879 5.029,1.497 7.633,1.855c2.604,0.375 5.208,0.472 7.829,0.326c2.636,-0.147 5.224,-0.537 7.763,-1.204c2.556,-0.652 5.013,-1.547 7.373,-2.686c2.377,-1.139 4.607,-2.507 6.706,-4.085c2.1,-1.579 4.037,-3.353 5.778,-5.323c1.758,-1.953 3.304,-4.069 4.639,-6.331c15.364,-26.774 28.255,-54.687 38.688,-83.74c0.895,-2.474 1.546,-5.013 1.937,-7.617c0.391,-2.588 0.537,-5.209 0.407,-7.829c-0.114,-2.637 -0.488,-5.225 -1.123,-7.78c-0.635,-2.555 -1.498,-5.013 -2.621,-7.389c-1.123,-2.393 -2.457,-4.639 -4.02,-6.755c-1.562,-2.116 -3.304,-4.053 -5.257,-5.827c-1.937,-1.774 -4.037,-3.336 -6.283,-4.704c-2.262,-1.35 -4.622,-2.474 -7.096,-3.369Z" style="fill:#313744;fill-rule:nonzero;"/></g></g></g></g></g></g></g><g><g><clipPath id="_clip100"><path d="M933.122,468.75l3257.7,464.404l-464.42,3257.7l-3257.68,-464.404l464.405,-3257.7Z"/></clipPath><g clip-path="url(#_clip100)"><g><clipPath id="_clip101"><path d="M933.122,468.75l3257.7,464.404l-464.42,3257.7l-3257.68,-464.404l464.405,-3257.7Z"/></clipPath><g clip-path="url(#_clip101)"><g><clipPath id="_clip102"><path d="M933.122,468.75l3257.7,464.404l-464.42,3257.7l-3257.68,-464.404l464.405,-3257.7Z"/></clipPath><g clip-path="url(#_clip102)"><path d="M1777,1626.32c-2.425,-0.992 -4.932,-1.741 -7.503,-2.246c-2.588,-0.488 -5.192,-0.732 -7.813,-0.732c-2.637,0.016 -5.224,0.277 -7.796,0.814c-2.588,0.52 -5.078,1.285 -7.503,2.295c-2.425,1.025 -4.72,2.262 -6.901,3.727c-2.181,1.465 -4.183,3.141 -6.039,4.997c-1.855,1.871 -3.499,3.906 -4.948,6.087c-1.448,2.197 -2.685,4.508 -3.678,6.933c-4.281,10.498 -8.805,20.557 -13.444,29.916c-1.188,2.343 -2.116,4.801 -2.816,7.34c-0.7,2.539 -1.155,5.111 -1.334,7.748c-0.196,2.62 -0.114,5.241 0.211,7.845c0.342,2.62 0.928,5.175 1.774,7.666c0.847,2.49 1.921,4.882 3.239,7.161c1.319,2.279 2.848,4.411 4.59,6.38c1.725,1.97 3.646,3.76 5.745,5.355c2.1,1.595 4.33,2.962 6.69,4.118c2.376,1.058 4.834,1.904 7.357,2.507c2.522,0.602 5.094,0.96 7.682,1.09c2.604,0.114 5.192,0 7.764,-0.358c2.571,-0.358 5.094,-0.96 7.552,-1.79c2.474,-0.831 4.834,-1.872 7.096,-3.158c2.262,-1.27 4.395,-2.734 6.38,-4.411c2.002,-1.676 3.809,-3.515 5.469,-5.534c1.644,-2.002 3.092,-4.15 4.329,-6.445c5.485,-11.068 10.808,-22.884 15.805,-35.124c0.992,-2.441 1.741,-4.948 2.246,-7.519c0.504,-2.588 0.748,-5.192 0.732,-7.813c-0.016,-2.62 -0.293,-5.224 -0.814,-7.796c-0.521,-2.588 -1.302,-5.078 -2.311,-7.503c-1.025,-2.425 -2.262,-4.72 -3.727,-6.901c-1.481,-2.165 -3.141,-4.183 -5.013,-6.039c-1.856,-1.839 -3.89,-3.499 -6.087,-4.948c-2.181,-1.448 -4.493,-2.669 -6.934,-3.662Z" style="fill:#313744;fill-rule:nonzero;"/></g></g></g></g></g></g></g><g><g><clipPath id="_clip103"><path d="M933.122,468.75l3257.7,464.404l-464.42,3257.7l-3257.68,-464.404l464.405,-3257.7Z"/></clipPath><g clip-path="url(#_clip103)"><g><clipPath id="_clip104"><path d="M933.122,468.75l3257.7,464.404l-464.42,3257.7l-3257.68,-464.404l464.405,-3257.7Z"/></clipPath><g clip-path="url(#_clip104)"><g><clipPath id="_clip105"><path d="M933.122,468.75l3257.7,464.404l-464.42,3257.7l-3257.68,-464.404l464.405,-3257.7Z"/></clipPath><g clip-path="url(#_clip105)"><path d="M3237.08,3659.65c-0.375,2.588 -0.993,5.143 -1.872,7.617c-0.863,2.474 -1.969,4.85 -3.304,7.113c-1.351,2.262 -2.897,4.361 -4.639,6.331c-1.757,1.953 -3.678,3.711 -5.794,5.29c-2.1,1.578 -4.329,2.946 -6.706,4.069c-2.36,1.139 -4.817,2.034 -7.373,2.685c-2.539,0.651 -5.127,1.058 -7.747,1.205c-2.621,0.146 -5.241,0.032 -7.829,-0.342c-2.604,-0.375 -5.143,-0.993 -7.633,-1.872c-2.474,-0.863 -4.851,-1.969 -7.113,-3.304c-2.262,-1.335 -4.362,-2.881 -6.315,-4.639c-1.969,-1.757 -3.727,-3.678 -5.306,-5.794c-1.579,-2.1 -2.93,-4.329 -4.069,-6.706c-1.139,-2.36 -2.035,-4.817 -2.686,-7.356c-0.651,-2.556 -1.058,-5.144 -1.204,-7.764c-0.13,-2.621 -0.016,-5.241 0.342,-7.829c0.374,-2.604 0.993,-5.143 1.872,-7.633c0.862,-2.474 1.969,-4.851 3.304,-7.113c1.35,-2.246 2.897,-4.362 4.638,-6.315c1.758,-1.969 3.695,-3.727 5.794,-5.306c2.1,-1.579 4.33,-2.93 6.706,-4.069c2.36,-1.139 4.818,-2.035 7.373,-2.686c2.539,-0.651 5.127,-1.058 7.748,-1.188c2.62,-0.146 5.241,-0.032 7.845,0.326c2.588,0.374 5.127,0.993 7.617,1.871c2.474,0.863 4.85,1.97 7.113,3.305c2.262,1.35 4.362,2.897 6.315,4.638c1.969,1.758 3.727,3.695 5.306,5.794c1.578,2.1 2.929,4.33 4.069,6.706c1.139,2.36 2.034,4.818 2.685,7.373c0.651,2.539 1.058,5.127 1.205,7.748c0.13,2.62 0.032,5.241 -0.342,7.845Z" style="fill:#313744;fill-rule:nonzero;"/></g></g></g></g></g></g></g><g><clipPath id="_clip106"><path d="M933.122,468.75l3257.7,464.404l-464.42,3257.7l-3257.68,-464.404l464.405,-3257.7Z"/></clipPath><g clip-path="url(#_clip106)"><g><clipPath id="_clip107"><path d="M933.122,468.75l3257.7,464.404l-464.42,3257.7l-3257.68,-464.404l464.405,-3257.7Z"/></clipPath><g clip-path="url(#_clip107)"><g><clipPath id="_clip108"><path d="M933.122,468.75l3257.7,464.404l-464.42,3257.7l-3257.68,-464.404l464.405,-3257.7Z"/></clipPath><g clip-path="url(#_clip108)"><path d="M1879.18,2682.06c-0,-0 -291.537,-70.785 -518.701,-300.049c-282.178,156.657 -581.885,143.148 -581.885,143.148c0,-0 -52.718,246.273 -41.26,660.368c11.475,414.078 424.61,589.209 424.61,589.209c-0,-0 445.621,-52.751 572.33,-447.136c126.726,-394.368 144.906,-645.54 144.906,-645.54Z" style="fill:#c34444;fill-rule:nonzero;"/></g></g></g></g></g></g></g><g><g><g><clipPath id="_clip109"><path d="M769.108,2368.22l1146.61,195.317l-222.387,1305.55l-1146.63,-195.317l222.407,-1305.55Z"/></clipPath><g clip-path="url(#_clip109)"><g><clipPath id="_clip110"><path d="M769.108,2368.22l1146.61,195.317l-222.387,1305.55l-1146.63,-195.317l222.407,-1305.55Z"/></clipPath><g clip-path="url(#_clip110)"><path d="M1530.98,3595.4l243.032,-927.923l-448.507,-102.402l-187.959,1103.48l393.434,-73.155Z" style="fill:#f65d5d;fill-rule:nonzero;"/></g></g></g></g></g><g><g><clipPath id="_clip111"><path d="M769.108,2368.22l1146.61,195.317l-222.387,1305.55l-1146.63,-195.317l222.407,-1305.55Z"/></clipPath><g clip-path="url(#_clip111)"><g><clipPath id="_clip112"><path d="M769.108,2368.22l1146.61,195.317l-222.387,1305.55l-1146.63,-195.317l222.407,-1305.55Z"/></clipPath><g clip-path="url(#_clip112)"><path d="M1300.62,2708.29l-359.683,-61.26l-35.068,439.997l321.415,54.762l24.412,-143.313l-190.058,-32.37l11.876,-148.991l203.174,34.609l24.412,-143.354l-0.48,-0.08Zm-112.243,661.924l-0.64,0.06l-152.63,-70.337l9.316,-116.022l-144.272,-24.572l-18.194,228.446l280.388,131.257l0.68,-0.08l25.352,-148.752Z" style="fill:#ebebeb;fill-rule:nonzero;"/></g></g></g></g></g><g><g><clipPath id="_clip113"><path d="M769.108,2368.22l1146.61,195.317l-222.387,1305.55l-1146.63,-195.317l222.407,-1305.55Z"/></clipPath><g clip-path="url(#_clip113)"><g><clipPath id="_clip114"><path d="M769.108,2368.22l1146.61,195.317l-222.387,1305.55l-1146.63,-195.317l222.407,-1305.55Z"/></clipPath><g clip-path="url(#_clip114)"><path d="M1226.78,3141.71l176.882,30.13l-47.924,183.04l-167.545,15.855l-25.392,149.112l308.319,-31.29l114.403,-433.299l-333.831,-56.861l-24.912,143.313Zm423.622,-334.251l9.976,-37.888l-359.842,-61.3l-24.412,143.314l346.907,59.1l8.337,-31.729l19.034,-71.497Z" style="fill:#fefefe;fill-rule:nonzero;"/></g></g></g></g></g></g></svg>