<?xml version="1.0" encoding="UTF-8" standalone="no"?><!DOCTYPE svg PUBLIC "-//W3C//DTD SVG 1.1//EN" "http://www.w3.org/Graphics/SVG/1.1/DTD/svg11.dtd"><svg width="100%" height="100%" viewBox="0 0 3009 2956" version="1.1" xmlns="http://www.w3.org/2000/svg" xmlns:xlink="http://www.w3.org/1999/xlink" xml:space="preserve" xmlns:serif="http://www.serif.com/" style="fill-rule:evenodd;clip-rule:evenodd;stroke-linejoin:round;stroke-miterlimit:2;"><g><path d="M1597.46,1611.91l-137.483,-1382.06c-1.628,-16.373 -0.83,-32.633 2.409,-48.763c3.239,-16.129 8.772,-31.445 16.601,-45.914l56.12,-103.744l214.779,1566.37l-152.426,14.111Z" style="fill:#e3effe;fill-rule:nonzero;"/><path d="M1597.46,1611.91l13.005,130.599l187.874,-18.669l-150.488,-1512.69c-1.627,-16.374 -5.615,-32.145 -11.979,-47.331c-6.348,-15.169 -14.795,-29.085 -25.309,-41.731l-75.44,-90.691l147.51,1477.38c0.472,4.671 0.358,9.342 -0.309,13.997c-0.684,4.639 -1.921,9.147 -3.711,13.493c-1.791,4.346 -4.085,8.415 -6.869,12.191c-2.799,3.776 -6.006,7.161 -9.635,10.156l-64.649,53.304Z" style="fill:#7e90be;fill-rule:nonzero;"/><path d="M2188.18,1126.4c0,-0 -72.477,-20.215 -135.417,11.556c0,-0 -62.239,34.765 -93.05,124.349c-5.013,14.453 -7.438,29.329 -7.242,44.629c0.195,15.299 2.978,30.11 8.365,44.417c2.849,7.519 6.104,14.844 9.766,21.989c3.662,7.145 7.715,14.079 12.158,20.768c4.444,6.69 9.245,13.119 14.421,19.271c5.159,6.152 10.644,11.995 16.455,17.529c5.827,5.55 11.93,10.742 18.327,15.593c6.396,4.866 13.053,9.342 19.954,13.46c6.901,4.101 14.014,7.812 21.322,11.133c7.324,3.304 14.811,6.201 22.444,8.675c0,-0 118.246,-158.871 92.497,-353.369Z" style="fill:#7e90be;fill-rule:nonzero;"/><rect x="1549.85" y="1787.06" width="400.081" height="192.773" style="fill:#3b3b4e;fill-rule:nonzero;"/><path d="M1474.79,1730.45l-0,121.973l188.721,-18.148c90.527,-52.49 165.853,-108.659 202.864,-174.056l-351.692,27.133c-2.686,0.195 -5.339,0.651 -7.943,1.367c-2.604,0.7 -5.127,1.644 -7.552,2.815c-2.425,1.172 -4.737,2.556 -6.901,4.167c-2.165,1.595 -4.167,3.402 -6.006,5.371c-1.823,1.986 -3.467,4.118 -4.899,6.397c-1.433,2.295 -2.637,4.687 -3.614,7.21c-0.992,2.506 -1.741,5.094 -2.229,7.731c-0.505,2.653 -0.749,5.339 -0.749,8.04Z" style="fill:#fec261;fill-rule:nonzero;"/><path d="M1658.51,1778.17l4.997,56.103l277.474,-26.676l-0,-153.125l-74.528,5.745l-161.882,49.626c-3.564,1.091 -6.999,2.458 -10.335,4.134c-3.32,1.677 -6.478,3.63 -9.473,5.843c-2.995,2.214 -5.778,4.655 -8.349,7.357c-2.572,2.686 -4.9,5.566 -6.983,8.659c-2.083,3.092 -3.89,6.331 -5.42,9.733c-1.53,3.385 -2.75,6.885 -3.678,10.498c-0.944,3.597 -1.563,7.259 -1.856,10.97c-0.309,3.711 -0.293,7.422 0.033,11.133Z" style="fill:#fa873d;fill-rule:nonzero;"/><path d="M334.944,950.96c-1.139,-0.895 -2.392,-1.627 -3.727,-2.213c-1.335,-0.602 -2.718,-1.026 -4.15,-1.27c-1.433,-0.26 -2.881,-0.342 -4.33,-0.244c-1.448,0.081 -2.881,0.358 -4.264,0.781c-1.4,0.44 -2.718,1.042 -3.955,1.791c-1.253,0.765 -2.393,1.66 -3.418,2.685c-1.026,1.026 -1.921,2.165 -2.669,3.418c-0.765,1.237 -1.351,2.556 -1.791,3.955c-15.316,47.624 -25.081,96.371 -29.329,146.224c-4.964,81.918 17.383,191.146 -35.987,258.171l273.064,-161.361c-0,0 -53.793,-154.476 -179.444,-251.937Z" style="fill:#864e4e;fill-rule:nonzero;"/><path d="M713.802,1173.96c-4.997,-119.238 -60.368,-212.076 -88.314,-251.709c-0.863,-1.237 -1.872,-2.343 -3.028,-3.336c-1.139,-0.977 -2.392,-1.807 -3.759,-2.474c-1.351,-0.668 -2.767,-1.172 -4.248,-1.481c-1.481,-0.31 -2.979,-0.44 -4.493,-0.375c-1.513,0.065 -2.994,0.31 -4.443,0.749c-1.448,0.423 -2.816,1.025 -4.118,1.807c-1.302,0.781 -2.49,1.709 -3.548,2.783c-1.074,1.074 -1.986,2.262 -2.751,3.564c-59.261,100.196 -19.987,173.422 -134.586,242.009c-0,-0 -204.59,344.58 -305.42,726.758c-0,-0 -53.532,373.323 -50.977,382.861c1.563,5.859 3.597,11.556 6.136,17.057c2.556,5.518 5.551,10.759 9.017,15.755c3.451,4.981 7.325,9.636 11.589,13.949c4.264,4.313 8.887,8.219 13.835,11.719c4.947,3.515 10.172,6.559 15.657,9.163c5.485,2.588 11.149,4.704 17.009,6.299c5.843,1.611 11.8,2.702 17.838,3.271c6.039,0.57 12.093,0.603 18.132,0.131c105.729,-8.985 253.239,-58.968 278.515,-264.095c1.026,-9.05 3.011,-17.904 5.925,-26.53c2.913,-8.643 6.689,-16.879 11.344,-24.707c4.671,-7.845 10.091,-15.105 16.292,-21.794c6.185,-6.673 13.021,-12.646 20.476,-17.887c46.012,-31.82 110.368,-85.303 133.756,-148.259l-14.762,180.729c-6.755,195.427 12.223,494.239 175.488,608.106l292.953,279.02l899.039,0l0,-625.488c-446.842,-109.066 -825.569,-294.922 -920.28,-800.912c-172.037,-107.291 -321.761,-218.375 -398.274,-316.683Z" style="fill:#d88682;fill-rule:nonzero;"/><path d="M1499.82,2081.76l-0.066,0.309l0,-0.261c-192.903,-125.276 -334.733,-308.154 -387.711,-591.162c-115.837,-72.265 -221.501,-146.24 -301.595,-216.894l-124.984,26.172c0,-0 -49.691,147.216 138.9,338.476c87.256,88.46 138.981,235.905 169.368,368.832c7.894,29.541 17.839,58.382 29.834,86.523c12.012,28.125 25.944,55.273 41.813,81.413c15.87,26.155 33.513,51.041 52.93,74.674c19.417,23.633 40.397,45.785 62.972,66.423c6.364,5.859 12.435,11.995 18.213,18.441c5.762,6.445 11.214,13.151 16.341,20.117c5.127,6.966 9.896,14.16 14.323,21.598c4.427,7.422 8.48,15.055 12.158,22.884c3.695,7.829 6.983,15.804 9.896,23.942c2.914,8.154 5.42,16.423 7.536,24.805c2.116,8.382 3.808,16.862 5.094,25.407c1.302,8.561 2.165,17.155 2.621,25.781c0.455,8.643 0.504,17.285 0.114,25.928c-0.375,8.642 -1.172,17.236 -2.393,25.797c-1.221,8.561 -2.848,17.058 -4.883,25.456c-2.034,8.398 -4.476,16.699 -7.308,24.87c-2.848,8.154 -6.071,16.178 -9.684,24.023c-3.629,7.862 -7.617,15.528 -11.979,22.998c-4.362,7.471 -9.066,14.714 -14.128,21.729c-5.062,6.999 -10.449,13.753 -16.162,20.247c-46.745,52.897 -97.298,101.856 -151.66,146.875l83.887,79.932l769.954,-0l129.134,-625.521c-196.924,-48.079 -380.55,-111.1 -532.535,-209.814Z" style="fill:#864e4e;fill-rule:nonzero;"/><path d="M713.85,1173.96c-47.005,115.951 -32.861,190.3 22.852,263.607c50.928,48.633 91.602,86.686 126.351,122.363c4.704,1.091 9.131,2.849 13.314,5.258c4.166,2.425 7.894,5.403 11.165,8.935c3.288,3.532 5.973,7.471 8.073,11.816c2.116,4.346 3.532,8.887 4.264,13.656c39.844,45.231 73.666,94.564 101.481,148.031c12.484,9.83 20.362,26.286 24.366,48.34c19.905,41.552 40.901,90.315 64.664,149.479c4.72,11.784 9.701,23.047 14.942,33.789c11.295,14.355 20.084,30.094 26.383,47.249c80.567,126.058 196.826,165.414 278.369,179.59l64.779,-313.135c-40.137,-21.647 -75.96,-48.974 -107.422,-81.998c-19.971,-6.853 -31.51,-22.803 -37.76,-44.45c-20.736,-27.881 -37.565,-57.943 -50.505,-90.186c-10.921,-27.344 -22.07,-53.271 -33.48,-77.799c-16.455,-11.475 -25.667,-35.401 -32.145,-64.03c-36.784,-70.02 -83.17,-132.959 -139.176,-188.819c-20.378,-5.55 -35.808,-20.719 -47.803,-42.529c-20.101,-16.227 -41.016,-31.331 -62.728,-45.313c-76.188,-49.137 -159.391,-86.246 -249.984,-83.854Z" style="fill:#e3effe;fill-rule:nonzero;"/><path d="M2032.36,1968.99c0,0 -359.57,22.705 -532.812,-49.219l-0,163.689c-0,-0 -103.19,370.459 210.075,451.513c74.756,19.336 190.267,24.561 322.754,21.306l-0.017,-587.289Z" style="fill:#3b3b4e;fill-rule:nonzero;"/><path d="M1006.35,2584.44c177.311,-93.555 385.417,-300.993 436.182,-745.931c0.244,-2.034 0.602,-4.036 1.09,-6.022c0.505,-1.986 1.123,-3.939 1.856,-5.843c0.749,-1.904 1.611,-3.744 2.571,-5.55c0.977,-1.791 2.067,-3.516 3.256,-5.176c1.204,-1.66 2.49,-3.239 3.89,-4.736c1.383,-1.498 2.88,-2.897 4.443,-4.2c1.579,-1.318 3.223,-2.522 4.948,-3.613c1.725,-1.107 3.499,-2.083 5.355,-2.962c1.839,-0.879 3.743,-1.628 5.68,-2.262c1.953,-0.635 3.923,-1.14 5.925,-1.53c2.018,-0.375 4.036,-0.635 6.087,-0.765c2.034,-0.114 4.069,-0.114 6.12,0.016c2.034,0.13 4.052,0.391 6.071,0.781c2.001,0.391 3.971,0.895 5.924,1.53c1.937,0.635 3.825,1.4 5.68,2.279c1.84,0.879 3.63,1.871 5.339,2.962l21.793,13.949c6.381,4.069 12.11,8.903 17.188,14.485c5.094,5.583 9.359,11.735 12.809,18.457c3.451,6.722 5.974,13.77 7.552,21.159c1.595,7.389 2.181,14.86 1.774,22.412c-2.278,43.278 -7.78,112.175 -21.012,197.559c0,-0 -106.559,352.767 -291.65,503.939c-185.091,151.171 -258.871,-10.938 -258.871,-10.938Z" style="fill:#e3effe;fill-rule:nonzero;"/><path d="M1844.92,2718.12c27.279,64.03 46.713,130.339 58.301,198.959l437.158,-0l-216.324,-341.016l-279.135,142.057Z" style="fill:#7e90be;fill-rule:nonzero;"/><path d="M2257.14,2785.86l-133.089,-209.798l-351.937,-0c28.19,45.345 52.457,92.708 72.786,142.074c66.097,25.569 203.711,66.341 412.24,67.724Z" style="fill:#7e90be;fill-rule:nonzero;"/><path d="M1722.04,2238.79c6.071,-0.016 12.061,0.618 18.002,1.92c5.924,1.302 11.637,3.239 17.138,5.795c5.502,2.555 10.661,5.696 15.479,9.391c4.818,3.695 9.179,7.861 13.069,12.516c8.692,10.466 17.904,20.443 27.637,29.948c67.253,117.985 102.946,237.988 102.669,360.401c-65.559,-3.109 -140.657,-14.144 -203.173,-43.23c-7.471,-3.564 -14.486,-7.877 -21.045,-12.923c-6.576,-5.062 -12.533,-10.742 -17.888,-17.073c-5.354,-6.316 -9.977,-13.119 -13.883,-20.427c-3.923,-7.308 -7.015,-14.941 -9.294,-22.9c-16.422,-55.664 -35.661,-152.751 -8.089,-245.296c1.302,-4.2 2.93,-8.285 4.883,-12.224c1.953,-3.939 4.199,-7.715 6.754,-11.295c2.556,-3.581 5.388,-6.934 8.48,-10.075c3.093,-3.125 6.413,-5.99 9.961,-8.594c3.548,-2.604 7.276,-4.899 11.198,-6.901c3.923,-2.002 7.975,-3.678 12.158,-5.046c4.2,-1.35 8.464,-2.36 12.81,-3.027c4.362,-0.667 8.724,-0.993 13.134,-0.96Z" style="fill:#e3effe;fill-rule:nonzero;"/><rect x="2292.53" y="1381.79" width="426.432" height="350.521" style="fill:#7e90be;fill-rule:nonzero;"/><path d="M2152.15,997.51c-0,-0 30.827,170.019 -6.543,249.43l324.17,-217.676l-60.71,-177.49l-256.917,145.736Z" style="fill:#7e90be;fill-rule:nonzero;"/><path d="M2551.27,1020.87l-91.748,-0c-16.064,-0.016 -31.868,1.986 -47.412,6.022c-15.56,4.036 -30.339,9.977 -44.369,17.806c-55.468,30.99 -150.992,91.406 -227.88,176.204c-9.278,10.222 -17.758,21.094 -25.407,32.585c-7.65,11.507 -14.405,23.519 -20.264,36.019c-5.859,12.516 -10.742,25.391 -14.665,38.639c-3.922,13.249 -6.836,26.709 -8.74,40.397c-5.664,40.804 -6.787,81.722 -3.369,122.771c3.418,41.048 11.312,81.233 23.649,120.524l78.223,26.562c-0,0 287.239,-52.588 372.672,-270.491c85.417,-217.92 9.31,-347.038 9.31,-347.038Z" style="fill:#e3effe;fill-rule:nonzero;"/><path d="M2360.92,1296.71c24.625,80.225 37.5,239.486 -191.634,341.683l111.784,37.94c-0,-0 207.438,-102.849 292.871,-320.769c35.921,-91.585 37.565,-165.234 27.506,-219.921l-202.506,18.066l-23.34,37.142c-4.948,7.78 -9.017,15.999 -12.191,24.642c-3.19,8.659 -5.404,17.562 -6.673,26.692c-1.27,9.131 -1.546,18.295 -0.847,27.491c0.7,9.196 2.377,18.196 5.03,27.034Z" style="fill:#7e90be;fill-rule:nonzero;"/><path d="M2595.3,1477.41c11.279,41.471 18.668,83.642 22.151,126.481c3.467,42.855 2.995,85.661 -1.432,128.418l182.52,-6.934c36.735,-123.453 59.717,-242.643 -40.267,-323.795l-162.972,75.83Z" style="fill:#e3effe;fill-rule:nonzero;"/><path d="M2892.9,1721.79c0,-0 26.172,-209.62 -58.138,-401.628l-272.005,67.415c13.656,28.907 24.495,58.838 32.52,89.795l109.44,-16.162c2.783,-0.423 5.566,-0.683 8.382,-0.83c2.799,-0.13 5.599,-0.114 8.414,0.033c2.8,0.146 5.599,0.423 8.366,0.862c2.784,0.423 5.518,0.993 8.252,1.693c2.718,0.7 5.388,1.53 8.024,2.507c2.637,0.976 5.209,2.067 7.748,3.304c2.523,1.237 4.98,2.587 7.357,4.052c2.392,1.481 4.703,3.076 6.933,4.785c2.23,1.709 4.362,3.516 6.413,5.453c2.051,1.92 4.004,3.939 5.843,6.055c1.839,2.115 3.581,4.329 5.192,6.608c1.628,2.295 3.141,4.671 4.525,7.112c1.383,2.442 2.637,4.948 3.776,7.52c1.139,2.571 2.132,5.176 3.011,7.861c0.879,2.669 1.611,5.371 2.213,8.106c0.603,2.75 1.058,5.517 1.384,8.3c7.78,63.656 7.096,127.214 -2.018,190.674l94.368,-3.515Z" style="fill:#7e90be;fill-rule:nonzero;"/><path d="M2310.12,218.555c-13.069,58.268 -31.868,114.616 -56.38,169.043l179.606,-42.465c0,0 9.229,-27.49 46.566,-50.065c3.092,-1.871 6.282,-3.564 9.57,-5.078c3.272,-1.513 6.641,-2.848 10.059,-4.004c3.434,-1.139 6.917,-2.099 10.449,-2.881c3.532,-0.765 7.096,-1.35 10.693,-1.725c3.597,-0.39 7.194,-0.569 10.808,-0.553c3.629,-0 7.226,0.211 10.823,0.618c3.597,0.407 7.145,0.993 10.677,1.791c3.532,0.797 6.999,1.774 10.433,2.946c3.418,1.172 6.755,2.522 10.043,4.069c3.271,1.53 6.445,3.239 9.537,5.127c3.077,1.888 6.055,3.938 8.92,6.136c2.864,2.213 5.599,4.573 8.203,7.08c2.604,2.506 5.078,5.143 7.389,7.926c2.311,2.767 4.476,5.664 6.478,8.675c2.002,3.011 3.841,6.12 5.501,9.326c1.66,3.223 3.142,6.511 4.444,9.88c3.483,8.057 6.25,16.341 8.3,24.854c2.067,8.528 3.386,17.155 3.955,25.911c0.586,8.74 0.424,17.48 -0.504,26.204c-0.912,8.708 -2.555,17.286 -4.932,25.733c0,-0 99.121,-3.695 155.241,-137.451c56.12,-133.757 -76.269,-252.979 -76.269,-252.979c-18.392,-8.349 -37.484,-14.648 -57.227,-18.896c-19.759,-4.265 -39.73,-6.364 -59.945,-6.332c-44.873,0.586 -88.639,7.829 -131.331,21.68c-9.326,2.979 -18.408,6.559 -27.262,10.726c-8.855,4.167 -17.399,8.887 -25.651,14.16c-8.236,5.29 -16.097,11.068 -23.584,17.383c-7.471,6.299 -14.519,13.07 -21.127,20.296c-6.591,7.227 -12.695,14.844 -18.294,22.868c-5.615,8.024 -10.677,16.374 -15.185,25.065c-4.525,8.675 -8.448,17.611 -11.801,26.807c-3.352,9.196 -6.087,18.571 -8.203,28.125Z" style="fill:#fe6a83;fill-rule:nonzero;"/><path d="M2102.88,1038.48c0,-0 221.501,-76.84 359.847,-204.802c3.142,-2.946 5.795,-6.282 7.976,-9.993c2.181,-3.728 3.792,-7.683 4.817,-11.866c1.026,-4.183 1.449,-8.414 1.237,-12.727c-0.195,-4.297 -1.009,-8.497 -2.425,-12.566c-12.483,-38.378 -22.184,-77.457 -29.101,-117.22c-6.918,-39.762 -10.987,-79.817 -12.207,-120.166c-1.205,-40.348 0.439,-80.582 4.948,-120.686c4.508,-40.105 11.849,-79.704 21.988,-118.767l-405.517,45.117c-5.355,0.489 -10.661,1.384 -15.886,2.686c-5.224,1.302 -10.319,3.011 -15.283,5.094c-4.964,2.084 -9.749,4.525 -14.339,7.341c-4.59,2.816 -8.935,5.973 -13.037,9.456c-4.102,3.483 -7.926,7.259 -11.458,11.328c-3.532,4.069 -6.722,8.383 -9.587,12.94c-2.865,4.557 -5.371,9.31 -7.503,14.258c-2.149,4.931 -3.89,10.009 -5.257,15.218c-16.879,64.404 -25.977,129.899 -27.295,196.468l168.082,408.887Z" style="fill:#e3effe;fill-rule:nonzero;"/><path d="M1934.81,629.59l33.447,377.295c0.228,2.669 0.912,5.224 2.051,7.666c1.123,2.425 2.637,4.606 4.541,6.51c1.888,1.904 4.053,3.418 6.478,4.574c2.425,1.139 4.98,1.839 7.65,2.099l113.899,10.775l-12.565,-308.545l64.519,-20.377c3.938,-1.237 7.763,-2.784 11.442,-4.639c3.694,-1.839 7.226,-3.971 10.579,-6.38c3.353,-2.393 6.494,-5.046 9.424,-7.959c2.946,-2.897 5.631,-6.022 8.073,-9.343c2.441,-3.336 4.59,-6.836 6.478,-10.514c1.888,-3.662 3.466,-7.471 4.752,-11.393c1.286,-3.923 2.246,-7.927 2.897,-11.996c0.651,-4.085 0.977,-8.187 0.977,-12.304l-0,-65.658l-274.642,60.189Z" style="fill:#3b3b4e;fill-rule:nonzero;"/><path d="M664.876,2029.91c39.355,-32.47 80.062,-78.873 90.234,-136.979c11.882,-67.92 -10.97,-127.295 -33.089,-166.081c-0.749,-1.35 -1.709,-2.539 -2.865,-3.564c-1.139,-1.025 -2.441,-1.839 -3.873,-2.425c-1.416,-0.586 -2.914,-0.912 -4.444,-0.993c-1.546,-0.081 -3.059,0.098 -4.541,0.521c-1.481,0.439 -2.848,1.107 -4.101,2.002c-1.27,0.895 -2.328,1.969 -3.223,3.239c-0.895,1.269 -1.546,2.636 -1.969,4.118c-0.423,1.497 -0.586,3.011 -0.489,4.541c1.596,19.547 0.961,39.013 -1.888,58.414c-2.848,19.385 -7.845,38.216 -14.99,56.478c-7.959,59.994 -12.874,120.248 -14.762,180.729Z" style="fill:#864e4e;fill-rule:nonzero;"/><path d="M376.318,1820.36l-229.216,103.386c-27.229,105.436 -42.74,212.565 -46.549,321.386c-0.212,10.157 1.025,20.134 3.711,29.932c279.85,27.116 301.725,-184.977 301.725,-184.977l33.285,-206.38c0.537,-3.288 0.748,-6.592 0.634,-9.929c-0.097,-3.32 -0.52,-6.608 -1.269,-9.847c-0.749,-3.255 -1.79,-6.396 -3.125,-9.44c-1.351,-3.043 -2.979,-5.941 -4.883,-8.675c-1.904,-2.718 -4.053,-5.241 -6.445,-7.568c-2.377,-2.312 -4.981,-4.379 -7.764,-6.201c-2.783,-1.823 -5.729,-3.353 -8.805,-4.607c-3.093,-1.253 -6.267,-2.213 -9.522,-2.848l-21.777,-4.232Z" style="fill:#864e4e;fill-rule:nonzero;"/><path d="M244.335,2051.47c0,2.099 -0.211,4.183 -0.618,6.234c-0.407,2.067 -1.009,4.052 -1.823,5.989c-0.797,1.953 -1.774,3.792 -2.946,5.534c-1.172,1.742 -2.49,3.353 -3.971,4.85c-1.481,1.481 -3.109,2.8 -4.85,3.972c-1.742,1.155 -3.581,2.148 -5.518,2.946c-1.937,0.813 -3.939,1.416 -6.006,1.822c-2.051,0.407 -4.134,0.619 -6.234,0.619c-2.099,-0 -4.166,-0.212 -6.233,-0.619c-2.051,-0.406 -4.053,-1.009 -5.99,-1.822c-1.937,-0.798 -3.776,-1.791 -5.534,-2.946c-1.741,-1.172 -3.353,-2.491 -4.834,-3.972c-1.481,-1.497 -2.816,-3.108 -3.971,-4.85c-1.172,-1.742 -2.149,-3.581 -2.962,-5.534c-0.798,-1.937 -1.4,-3.922 -1.823,-5.989c-0.407,-2.051 -0.603,-4.135 -0.603,-6.234c0,-2.1 0.196,-4.183 0.603,-6.234c0.423,-2.067 1.025,-4.053 1.823,-5.989c0.813,-1.954 1.79,-3.793 2.962,-5.534c1.155,-1.742 2.49,-3.353 3.971,-4.834c1.481,-1.498 3.093,-2.816 4.834,-3.988c1.758,-1.156 3.597,-2.148 5.534,-2.946c1.937,-0.797 3.939,-1.416 5.99,-1.823c2.067,-0.407 4.134,-0.618 6.233,-0.618c2.1,-0 4.183,0.211 6.234,0.618c2.067,0.407 4.069,1.026 6.006,1.823c1.937,0.798 3.776,1.79 5.518,2.946c1.741,1.172 3.369,2.49 4.85,3.988c1.481,1.481 2.799,3.092 3.971,4.834c1.172,1.741 2.149,3.58 2.946,5.534c0.814,1.936 1.416,3.922 1.823,5.989c0.407,2.051 0.618,4.134 0.618,6.234Z" style="fill:#110d0d;fill-rule:nonzero;"/><path d="M902.653,1399.85c-0,2.099 -0.212,4.182 -0.619,6.233c-0.407,2.067 -1.009,4.069 -1.823,6.006c-0.797,1.937 -1.774,3.776 -2.946,5.518c-1.172,1.757 -2.49,3.369 -3.971,4.85c-1.481,1.481 -3.109,2.799 -4.85,3.971c-1.742,1.172 -3.581,2.149 -5.518,2.963c-1.937,0.797 -3.939,1.399 -6.006,1.806c-2.051,0.407 -4.134,0.619 -6.234,0.619c-2.099,-0 -4.166,-0.212 -6.233,-0.619c-2.051,-0.407 -4.053,-1.009 -5.99,-1.806c-1.937,-0.814 -3.776,-1.791 -5.534,-2.963c-1.741,-1.172 -3.353,-2.49 -4.834,-3.971c-1.481,-1.481 -2.815,-3.093 -3.971,-4.85c-1.172,-1.742 -2.149,-3.581 -2.962,-5.518c-0.798,-1.937 -1.4,-3.939 -1.823,-6.006c-0.407,-2.051 -0.602,-4.134 -0.602,-6.233c-0,-2.1 0.195,-4.167 0.602,-6.234c0.423,-2.051 1.025,-4.053 1.823,-5.99c0.813,-1.937 1.79,-3.776 2.962,-5.534c1.156,-1.741 2.49,-3.353 3.971,-4.834c1.481,-1.481 3.093,-2.815 4.834,-3.971c1.758,-1.172 3.597,-2.148 5.534,-2.962c1.937,-0.798 3.939,-1.4 5.99,-1.807c2.067,-0.423 4.134,-0.618 6.233,-0.618c2.1,-0 4.183,0.195 6.234,0.618c2.067,0.407 4.069,1.009 6.006,1.807c1.937,0.814 3.776,1.79 5.518,2.962c1.741,1.156 3.369,2.49 4.85,3.971c1.481,1.481 2.799,3.093 3.971,4.834c1.172,1.758 2.149,3.597 2.946,5.534c0.814,1.937 1.416,3.939 1.823,5.99c0.407,2.067 0.619,4.134 0.619,6.234Z" style="fill:#3b3b4e;fill-rule:nonzero;"/><path d="M1067.53,1597.8c-0,2.099 -0.212,4.166 -0.619,6.233c-0.407,2.051 -1.009,4.053 -1.823,5.99c-0.797,1.937 -1.79,3.792 -2.946,5.534c-1.171,1.741 -2.49,3.353 -3.971,4.834c-1.497,1.481 -3.109,2.816 -4.85,3.971c-1.742,1.172 -3.581,2.165 -5.534,2.962c-1.937,0.798 -3.923,1.416 -5.99,1.823c-2.05,0.407 -4.134,0.603 -6.233,0.603c-2.1,-0 -4.183,-0.196 -6.234,-0.603c-2.051,-0.407 -4.053,-1.025 -5.99,-1.823c-1.953,-0.797 -3.792,-1.79 -5.533,-2.962c-1.742,-1.155 -3.353,-2.49 -4.834,-3.971c-1.498,-1.481 -2.816,-3.093 -3.988,-4.834c-1.156,-1.742 -2.149,-3.597 -2.946,-5.534c-0.798,-1.937 -1.416,-3.939 -1.823,-5.99c-0.407,-2.067 -0.618,-4.134 -0.618,-6.233c-0,-2.1 0.211,-4.183 0.618,-6.234c0.407,-2.067 1.025,-4.069 1.823,-6.006c0.797,-1.937 1.79,-3.776 2.946,-5.517c1.172,-1.742 2.49,-3.37 3.988,-4.851c1.481,-1.481 3.092,-2.799 4.834,-3.971c1.741,-1.172 3.58,-2.148 5.533,-2.946c1.937,-0.814 3.939,-1.416 5.99,-1.823c2.051,-0.407 4.134,-0.618 6.234,-0.618c2.099,-0 4.183,0.211 6.233,0.618c2.067,0.407 4.053,1.009 5.99,1.823c1.953,0.798 3.792,1.774 5.534,2.946c1.741,1.172 3.353,2.49 4.85,3.971c1.481,1.481 2.8,3.109 3.971,4.851c1.156,1.741 2.149,3.58 2.946,5.517c0.814,1.937 1.416,3.939 1.823,6.006c0.407,2.051 0.619,4.134 0.619,6.234Z" style="fill:#3b3b4e;fill-rule:nonzero;"/><path d="M1198.44,1827.7c0,2.099 -0.195,4.166 -0.602,6.234c-0.423,2.05 -1.026,4.052 -1.823,5.989c-0.814,1.937 -1.79,3.792 -2.962,5.534c-1.156,1.742 -2.491,3.353 -3.972,4.834c-1.481,1.481 -3.092,2.816 -4.834,3.988c-1.757,1.155 -3.597,2.148 -5.534,2.946c-1.936,0.797 -3.938,1.416 -5.989,1.822c-2.067,0.407 -4.134,0.603 -6.234,0.603c-2.099,-0 -4.183,-0.196 -6.234,-0.603c-2.067,-0.406 -4.069,-1.025 -6.005,-1.822c-1.937,-0.798 -3.776,-1.791 -5.518,-2.946c-1.742,-1.172 -3.369,-2.507 -4.85,-3.988c-1.481,-1.481 -2.8,-3.092 -3.972,-4.834c-1.171,-1.742 -2.148,-3.597 -2.946,-5.534c-0.813,-1.937 -1.416,-3.939 -1.822,-5.989c-0.407,-2.068 -0.619,-4.135 -0.619,-6.234c0,-2.1 0.212,-4.183 0.619,-6.234c0.406,-2.067 1.009,-4.069 1.822,-6.006c0.798,-1.937 1.775,-3.776 2.946,-5.517c1.172,-1.742 2.491,-3.353 3.972,-4.851c1.481,-1.481 3.108,-2.799 4.85,-3.971c1.742,-1.156 3.581,-2.148 5.518,-2.946c1.936,-0.814 3.938,-1.416 6.005,-1.823c2.051,-0.407 4.135,-0.618 6.234,-0.618c2.1,-0 4.167,0.211 6.234,0.618c2.051,0.407 4.053,1.009 5.989,1.823c1.937,0.798 3.777,1.774 5.534,2.946c1.742,1.172 3.353,2.49 4.834,3.971c1.481,1.498 2.816,3.109 3.972,4.851c1.172,1.741 2.148,3.58 2.962,5.517c0.797,1.937 1.4,3.939 1.823,6.006c0.407,2.051 0.602,4.134 0.602,6.234Z" style="fill:#3b3b4e;fill-rule:nonzero;"/><path d="M1329.13,2039.18c-0,2.1 -0.212,4.183 -0.619,6.234c-0.407,2.067 -1.009,4.069 -1.806,6.006c-0.814,1.937 -1.791,3.776 -2.963,5.518c-1.155,1.741 -2.49,3.369 -3.971,4.85c-1.481,1.481 -3.093,2.799 -4.85,3.971c-1.742,1.172 -3.581,2.149 -5.518,2.946c-1.937,0.814 -3.939,1.416 -5.989,1.823c-2.068,0.407 -4.151,0.619 -6.25,0.619c-2.084,-0 -4.167,-0.212 -6.234,-0.619c-2.051,-0.407 -4.053,-1.009 -5.99,-1.823c-1.937,-0.797 -3.776,-1.774 -5.517,-2.946c-1.758,-1.172 -3.37,-2.49 -4.851,-3.971c-1.481,-1.481 -2.815,-3.109 -3.971,-4.85c-1.172,-1.742 -2.148,-3.581 -2.962,-5.518c-0.798,-1.937 -1.4,-3.939 -1.807,-6.006c-0.423,-2.051 -0.618,-4.134 -0.618,-6.234c-0,-2.099 0.195,-4.166 0.618,-6.233c0.407,-2.051 1.009,-4.053 1.807,-5.99c0.814,-1.937 1.79,-3.776 2.962,-5.534c1.156,-1.741 2.49,-3.353 3.971,-4.834c1.481,-1.481 3.093,-2.815 4.851,-3.971c1.741,-1.172 3.58,-2.165 5.517,-2.962c1.937,-0.798 3.939,-1.4 5.99,-1.823c2.067,-0.407 4.15,-0.602 6.234,-0.602c2.099,-0 4.182,0.195 6.25,0.602c2.05,0.423 4.052,1.025 5.989,1.823c1.937,0.797 3.776,1.79 5.518,2.962c1.757,1.156 3.369,2.49 4.85,3.971c1.481,1.481 2.816,3.093 3.971,4.834c1.172,1.758 2.149,3.597 2.963,5.534c0.797,1.937 1.399,3.939 1.806,5.99c0.407,2.067 0.619,4.134 0.619,6.233Z" style="fill:#3b3b4e;fill-rule:nonzero;"/><path d="M2847.95,1232.86c8.675,18.067 16.325,36.556 22.933,55.469c0.748,2.116 1.367,4.264 1.871,6.462c0.489,2.181 0.879,4.378 1.14,6.608c0.276,2.213 0.423,4.459 0.439,6.689c0.033,2.246 -0.065,4.476 -0.276,6.706c-0.212,2.23 -0.554,4.443 -1.01,6.641c-0.455,2.197 -1.025,4.362 -1.709,6.494c-0.683,2.132 -1.481,4.215 -2.392,6.266c-0.912,2.051 -1.937,4.036 -3.06,5.973c-1.123,1.937 -2.36,3.809 -3.678,5.616c-1.335,1.79 -2.751,3.531 -4.265,5.175c-1.53,1.644 -3.125,3.223 -4.801,4.688c-1.693,1.481 -3.451,2.864 -5.274,4.15c-1.839,1.302 -3.727,2.49 -5.696,3.565c-1.953,1.09 -3.972,2.067 -6.039,2.929c-2.067,0.863 -4.166,1.628 -6.315,2.263c-2.148,0.634 -4.313,1.172 -6.526,1.578l-250.44,42.107c-3.564,0.602 -7.145,0.944 -10.758,1.041c-3.614,0.098 -7.227,-0.049 -10.808,-0.455c-3.597,-0.407 -7.145,-1.058 -10.644,-1.954c-3.5,-0.895 -6.917,-2.034 -10.27,-3.418c-3.337,-1.367 -6.576,-2.978 -9.685,-4.801c-3.125,-1.823 -6.103,-3.874 -8.935,-6.104c-2.832,-2.246 -5.501,-4.671 -7.992,-7.291c-2.49,-2.621 -4.801,-5.388 -6.901,-8.334l-34,-47.363c13.704,-27.767 30.371,-53.613 50.032,-77.539c19.662,-23.926 41.781,-45.296 66.358,-64.127c105.371,-13.656 195.882,-1.644 268.701,40.966Z" style="fill:#e3effe;fill-rule:nonzero;"/><path d="M2603.04,1237.35c68.343,-20.785 155.827,-32.536 244.857,-4.493c-21.794,-46.37 -49.805,-88.59 -84.066,-126.692c-33.642,7.031 -66.048,17.773 -97.217,32.242c-31.168,14.47 -60.286,32.276 -87.369,53.435c-2.409,1.871 -4.444,4.101 -6.071,6.689c-1.628,2.588 -2.767,5.371 -3.418,8.366c-0.651,2.995 -0.782,6.006 -0.375,9.033c0.407,3.028 1.319,5.892 2.735,8.61c1.416,2.718 3.255,5.095 5.517,7.162c2.263,2.067 4.802,3.678 7.617,4.85c2.832,1.172 5.778,1.823 8.822,1.953c3.06,0.147 6.055,-0.244 8.968,-1.155Z" style="fill:#7e90be;fill-rule:nonzero;"/><path d="M2398.94,1153.71c10.823,-21.224 23.372,-41.374 37.63,-60.449c14.241,-19.076 30.013,-36.817 47.298,-53.207c17.269,-16.406 35.807,-31.217 55.615,-44.45c19.808,-13.232 40.576,-24.69 62.337,-34.391c7.374,-3.401 14.991,-6.217 22.819,-8.415c7.829,-2.181 15.772,-3.743 23.861,-4.654c8.073,-0.928 16.179,-1.189 24.3,-0.814c8.122,0.39 16.162,1.416 24.105,3.092c7.959,1.66 15.739,3.955 23.324,6.885c7.584,2.913 14.892,6.413 21.924,10.498c7.031,4.102 13.688,8.724 19.97,13.883c6.283,5.16 12.126,10.775 17.497,16.879c19.824,22.835 37.907,46.972 54.264,72.412c2.425,3.678 4.346,7.617 5.729,11.816c1.384,4.183 2.214,8.48 2.458,12.891c0.244,4.411 -0.081,8.773 -0.993,13.102c-0.911,4.313 -2.36,8.447 -4.362,12.386c-2.002,3.939 -4.476,7.552 -7.438,10.824c-2.946,3.287 -6.282,6.119 -9.993,8.512c-3.711,2.393 -7.666,4.264 -11.882,5.615c-4.199,1.351 -8.512,2.132 -12.923,2.344c-79.639,3.125 -203.564,37.061 -331.592,185.075l-52.978,-68.652c-3.011,-3.874 -5.746,-7.959 -8.203,-12.224c-2.442,-4.264 -4.574,-8.675 -6.397,-13.248c-1.823,-4.574 -3.32,-9.245 -4.476,-14.03c-1.172,-4.769 -1.986,-9.603 -2.474,-14.502c-0.488,-4.899 -0.618,-9.799 -0.407,-14.714c0.196,-4.915 0.749,-9.798 1.644,-14.632c0.895,-4.834 2.132,-9.587 3.695,-14.242c1.562,-4.671 3.45,-9.196 5.648,-13.59Z" style="fill:#e3effe;fill-rule:nonzero;"/><path d="M593.066,1558.5c-0.586,9.277 -1.725,18.473 -3.402,27.604c-0.39,2.035 -1.058,3.972 -2.002,5.811c-0.944,1.839 -2.132,3.515 -3.564,5.013c-1.432,1.514 -3.044,2.783 -4.834,3.808c-1.79,1.042 -3.695,1.807 -5.713,2.295c-2.002,0.489 -4.053,0.7 -6.12,0.603c-2.067,-0.098 -4.085,-0.489 -6.038,-1.156c-1.97,-0.684 -3.793,-1.611 -5.469,-2.816c-1.693,-1.204 -3.19,-2.604 -4.46,-4.232c-21.793,-27.05 -59.147,-61.425 -112.255,-69.205c-74.48,-10.905 -150.7,17.838 -205.42,121.549l43.929,-177.93l148.86,-38.02l166.488,126.676Z" style="fill:#864e4e;fill-rule:nonzero;"/><path d="M2724.35,793.099c120.8,-0 174.902,-70.036 198.323,-121.452c1.009,-2.148 1.693,-4.411 2.051,-6.754c0.358,-2.36 0.374,-4.704 0.049,-7.064c-0.326,-2.36 -0.977,-4.623 -1.953,-6.787c-0.977,-2.181 -2.247,-4.167 -3.793,-5.974c-1.546,-1.806 -3.32,-3.353 -5.322,-4.638c-1.986,-1.302 -4.134,-2.295 -6.413,-2.963c-2.278,-0.683 -4.606,-1.025 -6.982,-1.025c-2.377,0 -4.72,0.326 -6.999,0.993c-19.287,5.697 -38.981,9.131 -59.066,10.286c-76.497,4.297 -102.897,-85.53 -48.681,-160.742c7.438,-10.498 14.258,-21.37 20.459,-32.633c6.201,-11.263 11.751,-22.852 16.65,-34.733c4.899,-11.898 9.115,-24.024 12.63,-36.394c3.532,-12.353 6.348,-24.886 8.464,-37.565c2.116,-12.679 3.515,-25.455 4.183,-38.297c0.683,-12.842 0.635,-25.668 -0.147,-38.509c-0.781,-12.842 -2.278,-25.586 -4.492,-38.249c-2.213,-12.679 -5.127,-25.179 -8.756,-37.516c-17.383,-62.321 -65.739,-109.473 -124.821,-136.345c42.659,75.082 78.125,267.66 -78.955,390.365c-10.238,38.509 -31.429,74.723 -42.855,122.298c-38.558,160.726 68.18,223.698 136.426,223.698Z" style="fill:#c35078;fill-rule:nonzero;"/><path d="M1143.78,2924.8c6.397,-0.114 12.761,-0.603 19.108,-1.481c6.332,-0.879 12.598,-2.149 18.783,-3.776c6.201,-1.644 12.256,-3.646 18.213,-6.006c5.94,-2.377 11.718,-5.095 17.334,-8.155c5.615,-3.06 11.035,-6.461 16.243,-10.172c5.208,-3.727 10.173,-7.748 14.893,-12.061c4.736,-4.313 9.179,-8.903 13.346,-13.769c4.167,-4.85 8.024,-9.945 11.589,-15.267c177.718,-265.804 252.229,-560.449 283.544,-762.663c-3.792,-0.814 -7.617,-1.269 -11.49,-1.335c-3.858,-0.065 -7.699,0.245 -11.508,0.928c-3.808,0.684 -7.519,1.725 -11.132,3.141c-3.597,1.4 -7.032,3.158 -10.287,5.241c-3.271,2.067 -6.299,4.46 -9.098,7.129c-2.783,2.67 -5.306,5.599 -7.52,8.757c-2.229,3.174 -4.118,6.526 -5.696,10.075c-1.563,3.532 -2.767,7.194 -3.63,10.97c-110.775,494.124 -390.82,469.58 -480.143,448.095c-49.365,26.205 -101.188,45.899 -155.485,59.131c-3.369,0.765 -6.69,1.742 -9.945,2.914c-3.255,1.172 -6.429,2.539 -9.505,4.101c-3.092,1.563 -6.071,3.304 -8.952,5.225c-2.881,1.92 -5.631,4.02 -8.252,6.282c-2.62,2.263 -5.094,4.672 -7.405,7.227c-2.328,2.572 -4.493,5.257 -6.494,8.089c-1.986,2.816 -3.809,5.762 -5.453,8.805c-1.628,3.044 -3.076,6.185 -4.329,9.408c-1.27,3.223 -2.312,6.51 -3.174,9.863c-0.847,3.353 -1.498,6.755 -1.937,10.189c-0.44,3.434 -0.667,6.869 -0.684,10.335c-0.016,3.467 0.163,6.901 0.57,10.352c0.407,3.434 1.009,6.836 1.839,10.189c0.814,3.369 1.823,6.673 3.044,9.912c1.221,3.223 2.637,6.38 4.248,9.44c1.595,3.076 3.385,6.022 5.355,8.87c93.522,130.941 248.128,151.498 344.01,150.017Z" style="fill:#7e90be;fill-rule:nonzero;"/><path d="M245.572,1631.35c0.44,-3.614 0.993,-7.211 1.661,-10.791c0.667,-3.565 1.448,-7.129 2.343,-10.661c0.879,-3.516 1.888,-7.015 2.995,-10.482c1.123,-3.467 2.344,-6.901 3.662,-10.286c1.335,-3.386 2.767,-6.739 4.297,-10.026c1.546,-3.304 3.19,-6.543 4.932,-9.75c1.741,-3.19 3.581,-6.331 5.517,-9.407c1.953,-3.077 3.988,-6.088 6.12,-9.05c2.132,-2.946 4.346,-5.827 6.657,-8.642c2.311,-2.8 4.72,-5.534 7.194,-8.204c2.49,-2.653 5.062,-5.224 7.715,-7.731c2.637,-2.49 5.371,-4.899 8.17,-7.226c2.8,-2.328 5.665,-4.557 8.611,-6.706c2.929,-2.148 5.94,-4.199 9.016,-6.152c3.06,-1.953 6.202,-3.809 9.375,-5.567c3.191,-1.757 6.429,-3.418 9.734,-4.964c3.287,-1.562 6.624,-2.995 10.009,-4.346c3.386,-1.334 6.804,-2.571 10.254,-3.711c3.467,-1.123 6.966,-2.132 10.482,-3.043c3.532,-0.912 7.08,-1.693 10.661,-2.376c3.564,-0.684 7.161,-1.254 10.775,-1.709c3.613,-0.456 7.226,-0.798 10.856,-1.026c3.645,-0.228 7.275,-0.342 10.921,-0.342c3.629,0 7.275,0.114 10.905,0.342c3.629,0.228 7.243,0.586 10.856,1.042c3.613,0.456 7.21,1.025 10.775,1.709c3.58,0.7 7.129,1.497 10.66,2.392c3.516,0.912 7.015,1.937 10.466,3.06c3.467,1.14 6.885,2.377 10.27,3.728c3.386,1.334 6.722,2.783 10.01,4.345c3.288,1.563 6.527,3.207 9.717,4.981c3.174,1.758 6.299,3.613 9.375,5.566l31.38,-54.834l-79.915,-148.161c-6.332,-15.853 -10.271,-32.275 -11.801,-49.267c-1.546,-16.992 -0.634,-33.854 2.735,-50.586c1.074,-12.923 3.581,-25.57 7.503,-37.94c-18.262,7.08 -36.1,15.072 -53.548,23.959c-17.432,8.903 -34.391,18.668 -50.83,29.28c-16.455,10.612 -32.324,22.038 -47.608,34.278c-15.299,12.223 -29.915,25.195 -43.896,38.916c-13.965,13.72 -27.214,28.108 -39.714,43.18c-12.516,15.055 -24.218,30.713 -35.14,46.973c-10.921,16.259 -20.979,33.024 -30.192,50.293c-9.212,17.285 -17.529,34.977 -24.951,53.092c-11.93,29.427 -17.236,60.01 -15.902,91.732l6.674,160.14c1.367,31.933 -2.816,63.118 -12.582,93.538c-25.683,79.476 -46.81,160.124 -63.379,241.976c0,0 69.239,135.368 220.769,7.178c151.546,-128.19 69.775,-272.982 69.775,-272.982c-7.943,-3.971 -15.527,-8.529 -22.77,-13.656c-7.243,-5.143 -14.046,-10.807 -20.41,-16.992c-6.364,-6.168 -12.224,-12.809 -17.579,-19.889c-5.338,-7.096 -10.107,-14.535 -14.306,-22.363c-4.199,-7.813 -7.78,-15.918 -10.726,-24.284c-2.962,-8.366 -5.257,-16.911 -6.885,-25.635c-1.644,-8.724 -2.604,-17.513 -2.881,-26.383c-0.293,-8.871 0.114,-17.725 1.188,-26.53Z" style="fill:#e3effe;fill-rule:nonzero;"/><path d="M355.875,2051.47l32.243,-154.037c2.637,-12.597 5.99,-24.983 10.075,-37.19c0.7,-2.019 1.172,-4.102 1.448,-6.218c0.261,-2.132 0.293,-4.264 0.114,-6.396c-0.179,-2.132 -0.586,-4.216 -1.204,-6.267c-0.619,-2.05 -1.449,-4.02 -2.474,-5.892c-1.025,-1.888 -2.246,-3.629 -3.646,-5.257c-1.383,-1.627 -2.946,-3.092 -4.638,-4.394c-1.709,-1.302 -3.516,-2.409 -5.453,-3.321c-1.937,-0.927 -3.939,-1.643 -6.022,-2.132c-12.598,-3.125 -24.675,-7.617 -36.247,-13.476c5.355,17.317 6.38,41.845 -2.685,76.562c-26.758,102.946 -62.452,238.981 -287.972,189.421c-13.656,68.213 -18.034,108.968 -18.034,108.968c33.952,8.154 68.392,11.865 103.304,11.116c34.912,-0.732 69.157,-5.908 102.734,-15.511c7.324,-2.002 14.486,-4.492 21.468,-7.47c6.983,-2.979 13.721,-6.429 20.231,-10.336c6.511,-3.922 12.728,-8.252 18.636,-13.02c5.909,-4.769 11.459,-9.913 16.667,-15.446c5.192,-5.534 9.994,-11.394 14.388,-17.595c4.395,-6.185 8.35,-12.663 11.849,-19.385c3.499,-6.738 6.527,-13.688 9.082,-20.833c2.539,-7.161 4.59,-14.453 6.136,-21.891Z" style="fill:#8999c3;fill-rule:nonzero;"/><path d="M565.673,1562.89c0.765,1.285 1.693,2.441 2.8,3.466c1.107,1.01 2.327,1.84 3.695,2.474c1.35,0.651 2.766,1.075 4.264,1.286c1.481,0.212 2.962,0.196 4.443,-0.032c1.481,-0.245 2.897,-0.7 4.248,-1.351c1.335,-0.668 2.556,-1.514 3.646,-2.556c1.091,-1.025 2.002,-2.197 2.734,-3.515c0.733,-1.302 1.254,-2.686 1.563,-4.167c5.159,-26.986 4.362,-53.792 -2.393,-80.436l-13.265,-52.507c-1.66,-6.364 -3.922,-12.516 -6.77,-18.457c-2.832,-5.94 -6.218,-11.556 -10.124,-16.845c-3.923,-5.29 -8.301,-10.173 -13.151,-14.633c-4.834,-4.443 -10.059,-8.414 -15.658,-11.865c-6.787,-4.02 -13.248,-8.512 -19.384,-13.476c-6.137,-4.948 -11.882,-10.336 -17.237,-16.13c-5.355,-5.778 -10.254,-11.93 -14.713,-18.441c-4.46,-6.51 -8.431,-13.297 -11.914,-20.377c-3.467,-7.08 -6.413,-14.372 -8.838,-21.875c-2.409,-7.52 -4.281,-15.153 -5.583,-22.933c-1.302,-7.78 -2.051,-15.609 -2.214,-23.503c-0.179,-7.894 0.228,-15.739 1.189,-23.567c-0,-0 -26.498,89.388 37.646,184.488c5.583,8.676 10.238,17.823 13.949,27.458c3.727,9.619 6.429,19.531 8.138,29.704c1.709,10.172 2.376,20.41 2.002,30.729c-0.375,10.319 -1.791,20.475 -4.232,30.501c22.786,14.567 41.162,33.415 55.159,56.56Z" style="fill:#8999c3;fill-rule:nonzero;"/><path d="M1958.66,2383.71c-26.66,-7.422 -51.953,-18.067 -75.911,-31.901c-23.958,-13.835 -45.817,-30.453 -65.56,-49.821c4.297,62.174 14.762,123.291 31.397,183.366c16.65,60.058 39.127,117.838 67.447,173.372c52.898,2.506 105.648,0.537 158.22,-5.908l-115.593,-269.108Z" style="fill:#7e90be;fill-rule:nonzero;"/><path d="M2088.02,1536.49c137.549,69.433 414.209,174.886 784.424,144.254c3.223,-0.276 6.429,-0.39 9.652,-0.325c3.223,0.049 6.429,0.277 9.635,0.651c3.19,0.391 6.364,0.928 9.506,1.644c3.157,0.7 6.25,1.562 9.309,2.588c3.06,1.025 6.055,2.197 8.985,3.532c2.929,1.318 5.794,2.799 8.577,4.41c2.783,1.628 5.485,3.386 8.089,5.274c2.605,1.904 5.111,3.922 7.52,6.071c2.393,2.148 4.671,4.411 6.852,6.803c2.165,2.377 4.216,4.867 6.12,7.455c1.921,2.588 3.695,5.273 5.339,8.04c1.643,2.783 3.141,5.632 4.492,8.545c1.351,2.93 2.555,5.924 3.597,8.968c1.058,3.044 1.937,6.136 2.669,9.277c0.732,3.142 1.302,6.299 1.725,9.506c0.407,3.19 0.651,6.396 0.733,9.619c6.51,265.543 -35.14,965.153 -634.88,1144.27c0,-0 -699.154,-270.638 -386.1,-1323.29c1.009,-3.304 2.181,-6.56 3.532,-9.75c1.334,-3.174 2.864,-6.282 4.557,-9.293c1.677,-3.028 3.532,-5.941 5.534,-8.757c2.018,-2.816 4.167,-5.518 6.478,-8.089c2.295,-2.588 4.736,-5.029 7.308,-7.341c2.571,-2.311 5.257,-4.476 8.073,-6.51c2.799,-2.018 5.713,-3.874 8.724,-5.566c3.011,-1.709 6.103,-3.239 9.293,-4.607c3.174,-1.35 6.413,-2.539 9.733,-3.548c3.304,-1.009 6.657,-1.823 10.059,-2.474c3.402,-0.634 6.82,-1.09 10.27,-1.351c3.451,-0.276 6.901,-0.341 10.352,-0.227c3.466,0.113 6.901,0.406 10.335,0.895c3.418,0.488 6.803,1.155 10.156,2.018c3.353,0.863 6.641,1.904 9.88,3.125c3.239,1.221 6.396,2.604 9.472,4.183Z" style="fill:#0177bd;fill-rule:nonzero;"/><g><g><clipPath id="_clip1"><path d="M1943.78,1530.68l1099.05,199.37l-222.374,1225.86l-1099.05,-199.37l222.374,-1225.86Z"/></clipPath><g clip-path="url(#_clip1)"><path d="M2963.36,1712.24l-158.774,-36.605l-845.301,-149.347l-61.063,490.959l-1.173,356.479l88.737,247.487c100.12,101.757 211.089,209.009 297.109,303.627c102.561,0.435 241.503,-67.472 391.391,-155.94l178.961,-312.926l109.039,-417.835l1.074,-325.899Z" style="fill:#0177bd;fill-rule:nonzero;"/></g></g><path d="M2475.75,1727.12l-186.678,1029.08l380.669,-37.554l248.754,-911.212l-442.745,-80.315Z" style="fill:#039ae4;fill-rule:nonzero;"/><path d="M2740.58,1941.79l-294.092,-53.349l-23.407,129.037l158.362,28.727l-33.117,127.276l-148.653,-26.967l-23.408,129.037l142.203,25.796l-36.044,143.414l-140.685,21.12l-24.578,135.488l270.516,-37.57l89.928,-366.867l62.975,-255.142Z" style="fill:#fefefe;fill-rule:nonzero;"/><path d="M2446.49,1888.44l-23.407,129.037l-287.598,-52.171l13.699,-130.798l297.306,53.932Zm-195.468,231.107l-16.935,130.211l142.18,25.792l23.408,-129.037l-148.653,-26.966Zm-22.186,195.889l-129.257,-23.448l-22.499,179.186l240.083,130.194l24.578,-135.488l-124.302,-69.19l11.397,-81.254Z" style="fill:#ededed;fill-rule:nonzero;"/></g><g><path d="M23.518,2212.3c15.267,3.906 30.73,6.884 46.371,8.919c-12.419,88.623 54.687,170.15 146.142,162.533c34.375,-2.784 67.904,-9.668 100.586,-20.655c18.555,207.536 120.28,421.599 352.002,443.962c2.051,0.211 4.102,0.244 6.136,0.065c2.051,-0.179 4.069,-0.553 6.039,-1.139c1.969,-0.57 3.874,-1.335 5.696,-2.279c1.823,-0.944 3.532,-2.051 5.144,-3.337c1.611,-1.285 3.076,-2.718 4.394,-4.28c1.335,-1.579 2.49,-3.255 3.483,-5.062c0.993,-1.79 1.807,-3.662 2.442,-5.632c0.618,-1.953 1.058,-3.955 1.285,-5.989c0.245,-2.051 0.277,-4.085 0.114,-6.136c-0.179,-2.051 -0.537,-4.069 -1.09,-6.039c-0.57,-1.985 -1.318,-3.89 -2.246,-5.713c-0.944,-1.839 -2.051,-3.548 -3.32,-5.175c-1.27,-1.612 -2.686,-3.077 -4.249,-4.427c-1.562,-1.335 -3.238,-2.507 -5.029,-3.5c-1.79,-1.009 -3.662,-1.839 -5.615,-2.474c-1.953,-0.651 -3.955,-1.09 -5.99,-1.334c-208.724,-19.808 -285.563,-224.919 -298.323,-409.327c76.758,-45.312 143.278,-130.224 149.17,-288.069c39.762,-23.568 76.383,-51.27 109.847,-83.154c-12.37,182.405 -10.205,523.535 155.957,675.569c-2.637,2.344 -5.16,4.785 -7.569,7.357c-2.408,2.572 -4.703,5.241 -6.884,8.008c-2.165,2.783 -4.2,5.648 -6.12,8.61c-1.904,2.946 -3.679,5.989 -5.306,9.114c-1.644,3.125 -3.125,6.315 -4.476,9.571c-1.335,3.255 -2.523,6.559 -3.565,9.928c-1.041,3.369 -1.936,6.771 -2.669,10.221c-0.732,3.435 -1.302,6.918 -1.725,10.417c-0.407,3.483 -0.667,6.999 -0.765,10.514c-0.098,3.532 -0.033,7.048 0.179,10.564c0.228,3.515 0.618,7.015 1.156,10.498c0.537,3.483 1.237,6.933 2.099,10.335c0.847,3.418 1.856,6.803 3.011,10.124c1.172,3.32 2.474,6.591 3.939,9.798c1.465,3.206 3.06,6.331 4.802,9.391c1.741,3.076 3.629,6.038 5.647,8.936c90.739,127.083 234.05,157.812 331.25,162.532c304.476,-2.458 945.785,-7.064 1244.48,-8.561c518.652,-140.234 674.495,-743.685 656.738,-1174.97c-0.146,-6.103 -0.732,-12.174 -1.758,-18.18c-1.025,-6.022 -2.49,-11.93 -4.378,-17.741c-1.888,-5.81 -4.199,-11.442 -6.901,-16.911c-2.718,-5.468 -5.811,-10.709 -9.294,-15.722c-3.467,-5.029 -7.291,-9.766 -11.458,-14.225c-4.167,-4.46 -8.643,-8.594 -13.412,-12.403c-4.768,-3.808 -9.798,-7.243 -15.071,-10.319c-5.274,-3.076 -10.742,-5.762 -16.406,-8.04c1.058,-49.512 -1.937,-98.796 -8.985,-147.819c-7.047,-49.04 -18.066,-97.168 -33.024,-144.385c51.677,-61.393 -15.43,-156.771 -41.667,-205.013c68.165,-62.549 1.709,-131.543 -41.064,-183.398c-91.341,-100.538 -216.309,-63.802 -308.464,11.556l-5.403,-0l-36.247,-105.876c20.589,-21.126 74.43,-50.065 59.831,-83.399c-0.895,-2.115 -89.649,-211.425 -25.065,-472.607c32.243,-27.913 90.56,-13.525 105.957,26.286c33.952,79.752 -20.524,131.559 -36.524,208.252c-23.649,98.779 3.728,160.563 30.876,194.971c8.154,10.302 17.334,19.596 27.539,27.848c10.205,8.268 21.191,15.316 32.959,21.159c11.768,5.827 24.023,10.302 36.784,13.427c12.76,3.109 25.7,4.802 38.835,5.046c172.412,-0 236.507,-131.917 246.289,-201.66c0.358,-2.914 0.309,-5.827 -0.131,-8.74c-0.455,-2.914 -1.285,-5.697 -2.522,-8.366c-1.221,-2.686 -2.784,-5.144 -4.688,-7.373c-1.92,-2.23 -4.101,-4.167 -6.543,-5.795c-2.441,-1.643 -5.078,-2.897 -7.877,-3.808c-2.8,-0.895 -5.665,-1.4 -8.611,-1.498c-2.929,-0.097 -5.826,0.196 -8.691,0.896c-2.848,0.716 -5.55,1.79 -8.105,3.255c-28.532,14.876 -58.855,23.161 -90.983,24.853c-54.135,1.97 -55.193,-64.046 -21.827,-110.449c113.558,-143.945 115.088,-494.499 -218.326,-505.843c-140.642,0.911 -278.663,61.068 -313.005,212.028c-6.803,30.094 -15.202,59.717 -25.212,88.9l-202.555,22.575c-6.95,0.651 -13.818,1.823 -20.605,3.532c-6.771,1.708 -13.379,3.906 -19.825,6.624c-6.429,2.718 -12.63,5.892 -18.587,9.554c-5.941,3.662 -11.588,7.747 -16.911,12.272c-5.338,4.508 -10.286,9.408 -14.86,14.697c-4.59,5.274 -8.74,10.856 -12.467,16.781c-3.727,5.908 -6.983,12.06 -9.766,18.473c-2.783,6.397 -5.078,12.988 -6.852,19.743c-17.448,66.846 -26.888,134.814 -28.304,203.906c-0.895,3.776 35.579,395.817 35.238,399.61c0.162,1.823 0.488,3.597 0.96,5.371c0.472,1.758 1.09,3.45 1.855,5.11c0.765,1.661 1.677,3.223 2.718,4.72c1.042,1.498 2.214,2.881 3.5,4.183c1.269,1.286 2.669,2.458 4.15,3.516c1.498,1.042 3.06,1.969 4.704,2.734c1.644,0.782 3.353,1.416 5.111,1.905c1.757,0.472 3.548,0.797 5.354,0.976l132.943,12.565c12.761,0.179 12.988,-1.79 29.118,-7.373c1.074,11.198 2.035,23.503 2.686,36.312c-80.111,-0.293 -148.959,17.969 -204.672,153.793c-28.45,83.138 17.969,174.593 107.992,225.618c0.325,5.68 0.716,11.377 1.204,17.074c-74.202,5.436 -110.547,62.581 -123.6,129.98l-91.862,7.08l-141.65,-1424.25c-1.921,-19.515 -6.657,-38.298 -14.242,-56.38c-7.568,-18.067 -17.627,-34.636 -30.176,-49.675l-75.439,-90.706c-0.814,-0.977 -1.709,-1.888 -2.637,-2.751c-0.944,-0.863 -1.92,-1.676 -2.962,-2.409c-1.025,-0.748 -2.116,-1.432 -3.223,-2.051c-1.123,-0.618 -2.262,-1.155 -3.45,-1.643c-1.188,-0.472 -2.393,-0.879 -3.614,-1.205c-1.236,-0.325 -2.49,-0.586 -3.743,-0.765c-1.27,-0.179 -2.539,-0.293 -3.809,-0.309c-1.269,-0.033 -2.539,0.016 -3.808,0.146c-1.27,0.131 -2.539,0.326 -3.776,0.603c-1.237,0.276 -2.474,0.634 -3.662,1.058c-1.205,0.423 -2.377,0.927 -3.516,1.481c-1.156,0.569 -2.246,1.204 -3.32,1.904c-1.058,0.7 -2.084,1.465 -3.06,2.295c-0.96,0.814 -1.888,1.693 -2.751,2.637c-0.879,0.927 -1.676,1.92 -2.425,2.946c-0.749,1.025 -1.432,2.099 -2.051,3.222c-31.429,62.158 -91.097,142.774 -78.743,216.488l141.113,1418.6l-97.477,7.52c-1.953,0.146 -3.874,0.488 -5.778,0.993c-1.888,0.521 -3.711,1.188 -5.485,2.051c-1.758,0.846 -3.434,1.871 -5.013,3.027c-1.579,1.172 -3.028,2.474 -4.362,3.922c-1.335,1.433 -2.523,2.979 -3.565,4.639c-1.041,1.677 -1.92,3.418 -2.636,5.241c-0.717,1.823 -1.254,3.711 -1.612,5.631c-0.374,1.937 -0.553,3.874 -0.553,5.844l-0,89.534c-5.99,4.346 -11.279,9.44 -15.837,15.283c-4.557,5.843 -8.219,12.191 -10.97,19.06c-23.763,-20.264 -44.791,-43.034 -63.086,-68.344c-18.294,-25.293 -33.366,-52.392 -45.166,-81.282c-107.405,-275.326 -295.817,-488.265 -565.332,-521.664c-2.815,-23.86 -7.291,-47.428 -13.395,-70.67c-6.103,-23.242 -13.786,-45.964 -23.063,-68.132c-9.261,-22.184 -20.036,-43.603 -32.292,-64.274c-12.256,-20.687 -25.879,-40.413 -40.885,-59.179c-1.563,-1.774 -3.304,-3.37 -5.225,-4.753c-1.92,-1.383 -3.971,-2.539 -6.152,-3.467c-2.165,-0.928 -4.427,-1.595 -6.755,-2.018c-2.327,-0.407 -4.687,-0.57 -7.047,-0.456c-2.36,0.098 -4.688,0.472 -6.966,1.107c-2.279,0.619 -4.476,1.497 -6.56,2.62c-2.083,1.124 -4.02,2.458 -5.794,4.004c-1.79,1.563 -3.385,3.288 -4.785,5.209c-36.719,51.188 -47.835,95.459 -57.65,134.57c-7.536,29.997 -13.639,54.004 -29.769,76.123c-34.912,-59.977 -88.378,-131.754 -164.339,-183.577c-1.985,-1.335 -4.085,-2.409 -6.315,-3.272c-2.23,-0.846 -4.525,-1.432 -6.885,-1.774c-2.36,-0.325 -4.72,-0.391 -7.096,-0.195c-2.376,0.211 -4.704,0.683 -6.982,1.399c-2.263,0.733 -4.428,1.709 -6.478,2.93c-2.051,1.221 -3.939,2.637 -5.664,4.297c-1.726,1.644 -3.239,3.451 -4.558,5.436c-1.318,2.002 -2.392,4.102 -3.239,6.332c-1.383,3.776 -33.903,93.392 -39.095,178.906c-3.141,52.002 3.972,112.044 -2.034,163.883c-93.278,94.711 -160.938,209.994 -156.576,310.433l6.674,160.156c1.253,28.191 -2.442,55.713 -11.052,82.569c-65.853,204.264 -82.145,351.123 -82.796,357.275c-0.212,1.856 -0.244,3.711 -0.13,5.583c0.13,1.872 0.423,3.711 0.879,5.534c0.455,1.823 1.074,3.581 1.855,5.289c0.765,1.693 1.676,3.321 2.751,4.867c1.058,1.546 2.246,2.979 3.564,4.313c1.318,1.319 2.751,2.523 4.281,3.597c1.53,1.074 3.157,2.018 4.85,2.8c1.709,0.781 3.467,1.416 5.273,1.888Zm187.224,108.838c-55.046,3.89 -86.214,-45.704 -78.125,-96.566c58.821,-2.621 129.817,-11.507 179.329,-49.121c-1.79,36.23 -2.392,77.913 -0.358,122.265c-32.406,13.021 -66.016,20.817 -100.846,23.422Zm614.599,435.351c-22.282,-29.492 -2.685,-75.032 32.829,-82.389c183.903,-40.414 533.724,-212.305 625,-845.231c2.669,-1.286 5.485,-1.839 8.447,-1.66c2.963,0.179 5.697,1.09 8.187,2.701l21.794,13.933c78.662,35.026 -53.483,683.203 -274.463,992.806c-26.937,41.78 -76.042,60.156 -124.17,56.689c-96.826,-1.855 -220.378,-28.662 -297.624,-136.849Zm1040.14,-70.052c51.156,5.225 102.393,6.218 153.695,3.011c27.653,38.184 58.333,73.747 92.057,106.69c33.724,32.942 70.003,62.776 108.822,89.518l-290.479,-0c-14.046,-68.766 -35.4,-135.189 -64.095,-199.235l0,0.016Zm-139.355,-99.381c-5.453,-2.621 -10.58,-5.778 -15.365,-9.489c-4.785,-3.695 -9.131,-7.862 -13.021,-12.5c-3.906,-4.623 -7.275,-9.603 -10.107,-14.958c-2.849,-5.339 -5.078,-10.921 -6.739,-16.748c-10.774,-25.342 -58.105,-262.581 41.146,-263.119c3.76,-0.016 7.487,0.358 11.166,1.172c3.678,0.798 7.21,1.986 10.628,3.565c3.418,1.579 6.624,3.515 9.603,5.81c2.995,2.295 5.696,4.883 8.105,7.764c16.211,19.613 34.115,37.532 53.695,53.776c19.596,16.243 40.511,30.534 62.793,42.839c21.712,85.839 55.208,166.796 100.488,242.903c-69.629,1.286 -173.34,-4.248 -252.392,-41.048l-0,0.033Zm83.772,-338.705c-5.371,-6.429 -11.36,-12.207 -18.001,-17.318c-6.641,-5.127 -13.753,-9.44 -21.354,-12.988c-7.585,-3.548 -15.479,-6.217 -23.665,-8.008c-8.187,-1.806 -16.456,-2.685 -24.838,-2.669c-165.853,4.85 -127.978,259.066 -101.481,343.766c22.119,79.558 97.038,106.576 169.873,123.031c33.545,67.578 58.545,138.2 75,211.849l-581.624,5.745c226.448,-314.762 299.593,-709.033 318.945,-910.709c80.453,13.818 161.491,21.191 243.099,22.103c-6.901,98.535 -2.409,196.549 13.477,294.043c-18.034,-14.714 -34.522,-30.99 -49.431,-48.861l0,0.016Zm41.309,-307.943c-81.738,-0.748 -162.858,-8.203 -243.359,-22.363c1.839,-15.609 1.855,-31.217 0.065,-46.826l255.729,-24.593c-5.095,32.145 -9.229,63.395 -12.402,93.766l-0.033,0.016Zm250.977,-431.949c-0.472,-0.245 -0.977,-0.407 -1.449,-0.651c-10.254,-92.042 -4.313,-195.069 62.402,-265.805c75.098,-82.828 170.02,-141.992 219.922,-169.889c13.477,-7.503 27.767,-12.89 42.839,-16.162c-57.927,70.41 -100.163,148.324 -40.951,228.092l52.669,68.197c16.439,21.484 40.284,62.858 64.763,75.7c-21.257,33.431 -45.378,64.632 -72.396,93.587c-27.034,28.972 -56.478,55.192 -88.346,78.711c-82.78,-22.884 -162.582,-53.483 -239.437,-91.813l-0.016,0.033Zm679.85,-327.702c24.674,36.832 44.401,76.139 59.163,117.952c0.716,2.084 1.188,4.216 1.433,6.397c0.26,2.197 0.276,4.378 0.065,6.575c-0.228,2.181 -0.668,4.33 -1.335,6.429c-0.667,2.1 -1.546,4.102 -2.637,6.006c-1.09,1.904 -2.376,3.678 -3.857,5.322c-1.465,1.644 -3.093,3.109 -4.867,4.395c-1.79,1.286 -3.678,2.376 -5.696,3.271c-2.019,0.896 -4.102,1.563 -6.25,2.002l-250.423,42.106c-32.406,6.462 -48.845,-23.128 -64.519,-45.491c106.869,-115.56 207.943,-149.024 278.939,-154.997l-0.016,0.033Zm83.219,469.01c-71.338,5.729 -142.724,6.462 -214.16,2.23c-0.83,-73.486 -12.549,-145.199 -35.156,-215.12c4.394,-0.896 210.596,-35.108 215.071,-36.312c23.926,81.331 35.336,164.388 34.278,249.17l-0.033,0.032Zm-308.203,-190.674c19.45,61.101 29.802,123.715 31.055,187.826c-57.145,-5.827 -113.77,-14.958 -169.857,-27.393c54.639,-46.24 100.911,-99.723 138.818,-160.449l-0.016,0.016Zm57.829,-469.271c5.843,-2.685 11.881,-4.882 18.083,-6.608c6.217,-1.725 12.516,-2.946 18.912,-3.662c6.397,-0.716 12.826,-0.927 19.255,-0.618c6.429,0.293 12.809,1.107 19.108,2.425c6.299,1.318 12.467,3.125 18.49,5.42c6.005,2.295 11.8,5.062 17.382,8.284c5.583,3.207 10.873,6.853 15.869,10.922c4.997,4.052 9.636,8.496 13.933,13.297c18.815,21.696 36.002,44.629 51.53,68.799c1.937,2.881 2.978,6.055 3.157,9.521c0.179,3.467 -0.553,6.722 -2.164,9.782c-1.433,2.914 -3.532,5.241 -6.267,6.983c-2.734,1.741 -5.713,2.653 -8.968,2.718c-81.64,3.19 -202.75,35.628 -328.402,167.578c-27.425,-34.88 -61.702,-69.596 -37.825,-116.732c10.026,-19.661 21.631,-38.314 34.831,-55.973c13.2,-17.676 27.799,-34.098 43.799,-49.268c16.015,-15.169 33.186,-28.873 51.529,-41.113c18.36,-12.24 37.598,-22.835 57.764,-31.787l-0.016,0.032Zm-274.186,-763.997c27.62,-122.135 142.692,-161.816 252.994,-162.972c277.133,12.012 247.933,303.532 167.432,404.313c-83.333,114.046 -12.76,248.617 126.677,204.232c-22.787,41.52 -69.548,90.267 -163.493,90.267c-8.382,-0.26 -16.634,-1.4 -24.756,-3.467c-8.138,-2.051 -15.951,-4.964 -23.438,-8.724c-7.503,-3.76 -14.502,-8.284 -20.996,-13.574c-6.51,-5.29 -12.37,-11.214 -17.578,-17.773c-42.757,-50.342 -26.302,-142.644 3.581,-207.081c20.915,-51.497 42.529,-104.752 10.775,-181.331c-31.348,-79.02 -140.088,-105.306 -204.688,-50.293l-124.528,13.884c6.836,-22.299 12.94,-44.89 18.018,-67.481Zm-348.21,215.251c0.977,-3.679 2.23,-7.259 3.76,-10.742c1.513,-3.484 3.304,-6.836 5.338,-10.043c2.035,-3.206 4.313,-6.25 6.804,-9.114c2.506,-2.849 5.224,-5.518 8.121,-7.959c2.914,-2.442 5.99,-4.655 9.245,-6.641c3.255,-1.969 6.625,-3.678 10.14,-5.143c3.516,-1.449 7.113,-2.637 10.808,-3.548c3.694,-0.896 7.438,-1.514 11.23,-1.856l361.263,-40.234c-7.926,38.021 -13.298,76.416 -16.097,115.169c-2.799,38.753 -3.011,77.507 -0.635,116.292c2.377,38.77 7.341,77.23 14.86,115.332c7.52,38.119 17.546,75.57 30.062,112.338c-97.412,93.001 -244.71,159.895 -314.909,188.46l-9.782,-240.723l41.618,-13.134c5.534,-1.742 10.889,-3.89 16.081,-6.478c5.176,-2.572 10.124,-5.55 14.844,-8.92c4.703,-3.369 9.114,-7.08 13.232,-11.165c4.118,-4.069 7.894,-8.431 11.312,-13.102c3.434,-4.671 6.462,-9.587 9.098,-14.746c2.653,-5.144 4.867,-10.482 6.657,-15.983c1.791,-5.518 3.141,-11.133 4.037,-16.846c0.895,-5.729 1.334,-11.475 1.318,-17.269l-0,-65.641c-0,-2.344 -0.26,-4.671 -0.765,-6.95c-0.521,-2.295 -1.302,-4.509 -2.311,-6.624c-1.009,-2.116 -2.246,-4.102 -3.711,-5.941c-1.465,-1.839 -3.109,-3.5 -4.932,-4.964c-1.823,-1.482 -3.808,-2.735 -5.908,-3.76c-2.116,-1.026 -4.313,-1.823 -6.608,-2.36c-2.279,-0.537 -4.59,-0.814 -6.95,-0.83c-2.344,-0.017 -4.671,0.228 -6.966,0.732l-234.766,51.449c3.614,-50.44 11.784,-100.13 24.512,-149.056Zm6.429,556.022l-30.371,-342.725l209.489,-45.931c1.269,29.997 1.009,59.945 -32.65,71.143l-64.518,20.377c-3.304,1.026 -6.331,2.572 -9.115,4.607c-2.783,2.034 -5.175,4.475 -7.161,7.291c-1.97,2.832 -3.451,5.892 -4.427,9.212c-0.977,3.305 -1.384,6.69 -1.253,10.14l11.084,272.592l-71.078,-6.706Zm401.302,-74.007l23.698,69.336c-25.293,4.101 -49.137,12.369 -71.533,24.821c-55.55,31.087 -107.878,66.894 -156.95,107.454c-0.456,-29.085 -2.409,-58.073 -5.843,-86.963c73.812,-31.608 144.027,-69.824 210.644,-114.648l-0.016,-0Zm-413.086,411.572c-28.564,-68.001 55.681,-154.46 72.201,-160.286c11.36,-5.111 23.161,-8.741 35.433,-10.889c12.256,-2.149 24.593,-2.751 37.011,-1.807c-0.504,8.285 -1.269,16.423 -2.311,24.333c-14.323,14.29 -27.181,29.785 -38.558,46.517c-11.377,16.715 -21.077,34.359 -29.118,52.929c-8.04,18.571 -14.257,37.712 -18.668,57.455c-4.395,19.743 -6.918,39.73 -7.536,59.945c-10.807,-9.148 -20.313,-19.483 -28.516,-31.039c-8.203,-11.556 -14.843,-23.942 -19.905,-37.158l-0.033,-0Zm32.715,228.223c4.281,-1.856 8.724,-3.207 13.314,-4.086c4.573,-0.879 9.212,-1.237 13.867,-1.106c4.671,0.146 9.261,0.797 13.786,1.953c4.525,1.155 8.87,2.783 13.037,4.899c68.62,33.952 139.469,62.321 212.581,85.091c66.076,20.583 133.288,36.065 201.498,47.33c86.503,14.286 266.405,32.497 344.564,22.087c31.017,-4.131 102.808,-12.936 111.93,0c29.794,42.254 23.685,135.341 18.88,221.338c-1.03,18.443 -8.128,92.652 -23.031,169.255c-16.401,84.309 -50.097,171.055 -54.264,187.549c-60.427,239.184 -259.997,551.461 -563.59,576.676c-407.292,-217.057 -506.218,-733.415 -337.956,-1271.13c1.318,-4.411 3.092,-8.643 5.322,-12.663c2.246,-4.037 4.899,-7.764 7.959,-11.214c3.06,-3.435 6.445,-6.511 10.189,-9.196c3.727,-2.702 7.715,-4.964 11.947,-6.787l-0.033,-0Zm-528.581,-1336.17c-8.3,-47.168 28.728,-99.918 49.382,-139.502c28.515,35.401 74.365,78.532 75.928,127.051l141.536,1422.77l-125.602,9.701l-141.244,-1420.02Zm404.46,1462.78c-7.78,31.722 -14.665,62.679 -20.654,92.855l-296.013,28.467c-10.058,-10.45 -21.24,-19.483 -33.593,-27.1c-12.338,-7.617 -25.424,-13.558 -39.275,-17.855l0,-46.338l389.535,-30.029Zm-491.048,195.931c-12.826,92.057 -35.873,181.478 -69.141,268.278c-19.238,-7.145 -37.711,-15.885 -55.436,-26.221c-17.725,-10.335 -34.44,-22.103 -50.13,-35.335c-15.69,-13.216 -30.127,-27.686 -43.311,-43.408c-13.183,-15.723 -24.918,-32.455 -35.205,-50.212c49.74,-20.931 147.738,-72.265 193.327,-165.657c18.571,19.108 38.542,36.621 59.896,52.555Zm-105.615,-107.487c-27.832,93.978 -131.56,145.931 -175.993,164.209c-28.418,-69.71 -55.42,-133.333 -79.46,-180.811c40.918,-19.889 126.123,-68.261 175.423,-145.231c24.056,51.856 45.817,117.204 80.03,161.833Zm-115.04,-231.38c-31.168,84.912 -130.387,140.088 -170.052,159.212c-29.069,-51.204 -63.606,-98.389 -103.645,-141.553c39.615,-28.743 117.48,-95.459 146.093,-191.65c50.928,51.839 93.457,109.847 127.604,173.991Zm-181.396,-222.005c-13.753,100.162 -104.167,171.354 -136.491,193.831c-29.639,-29.476 -71.663,-69.141 -105.957,-101.807c-40.609,-54.183 -59.993,-111.93 -24.821,-211.035c79.492,0.488 190.788,56.299 267.269,119.011Zm-415.267,-291.683c5.583,-25.635 13.802,-50.407 24.626,-74.317c20.247,31.641 36.295,65.283 48.144,100.928c11.865,35.644 19.157,72.2 21.892,109.668c-45.378,116.129 -35.808,205.078 32.942,291.129c408.22,332.601 260.417,612.5 595.752,751.205c-130.322,277.555 -342.008,368.896 -455.403,398.535c-220.004,-158.952 -151.286,-706.673 -144.987,-753.076c29.475,-74.789 16.048,-153.874 8.724,-184.831c-0.489,-2.002 -1.156,-3.939 -2.002,-5.827c-0.863,-1.871 -1.905,-3.646 -3.109,-5.306c-1.205,-1.676 -2.572,-3.222 -4.085,-4.622c-1.498,-1.4 -3.142,-2.637 -4.9,-3.727c-1.757,-1.074 -3.597,-1.986 -5.533,-2.702c-1.921,-0.716 -3.907,-1.237 -5.941,-1.563c-2.035,-0.325 -4.085,-0.455 -6.152,-0.39c-2.068,0.081 -4.086,0.358 -6.104,0.83c-2.002,0.472 -3.939,1.139 -5.827,2.002c-1.872,0.862 -3.646,1.888 -5.322,3.092c-1.66,1.205 -3.206,2.572 -4.606,4.069c-1.416,1.514 -2.653,3.142 -3.744,4.899c-1.074,1.758 -1.985,3.597 -2.702,5.534c-0.716,1.937 -1.253,3.906 -1.578,5.941c-0.326,2.051 -0.456,4.085 -0.391,6.152c0.081,2.067 0.342,4.102 0.814,6.104c44.629,171.387 -88.9,264.323 -176.97,314.355c-2.506,1.319 -4.801,2.963 -6.852,4.899c-2.067,1.954 -3.841,4.134 -5.306,6.56c-1.481,2.425 -2.604,4.996 -3.385,7.731c-0.765,2.734 -1.172,5.517 -1.188,8.349c-0.895,116.651 -38.412,188.428 -90.332,231.885c-1.123,-68.017 3.19,-135.677 12.939,-203.011c12.126,-49.105 30.925,-175.325 53.923,-218.815c0.537,-1.172 1.009,-2.376 1.399,-3.613c0.391,-1.221 0.7,-2.474 0.928,-3.744c0.244,-1.269 0.407,-2.555 0.488,-3.841c0.066,-1.302 0.066,-2.588 0,-3.874c-0.081,-1.302 -0.244,-2.571 -0.472,-3.857c-0.244,-1.27 -0.553,-2.523 -0.944,-3.744c-0.39,-1.237 -0.846,-2.441 -1.383,-3.629c-0.537,-1.172 -1.156,-2.311 -1.823,-3.418c-0.684,-1.091 -1.416,-2.149 -2.23,-3.158c-0.797,-1.009 -1.676,-1.969 -2.588,-2.881c-0.927,-0.895 -1.904,-1.741 -2.929,-2.539c-1.026,-0.781 -2.1,-1.497 -3.223,-2.148c-1.107,-0.651 -2.262,-1.237 -3.451,-1.758c-1.188,-0.504 -2.392,-0.944 -3.645,-1.318c-1.237,-0.358 -2.491,-0.651 -3.776,-0.847c-1.27,-0.211 -2.556,-0.341 -3.842,-0.39c-185.302,-11.914 -180.55,-276.498 4.33,-283.252c7.357,-0 14.665,0.57 21.94,1.725c7.275,1.139 14.404,2.832 21.419,5.095c6.999,2.246 13.786,5.029 20.362,8.349c6.575,3.32 12.858,7.113 18.831,11.41c5.973,4.297 11.588,9.033 16.829,14.192c5.241,5.176 10.043,10.71 14.421,16.634c4.378,5.909 8.268,12.142 11.686,18.653c3.402,6.527 6.283,13.281 8.643,20.263c1.009,3.012 2.457,5.811 4.329,8.383c1.872,2.571 4.085,4.817 6.641,6.722c2.539,1.904 5.322,3.385 8.317,4.443c3.011,1.058 6.103,1.644 9.277,1.774c52.083,1.286 52.344,-122.884 40.934,-157.829l-13.265,-52.506c-2.164,-8.317 -5.078,-16.341 -8.756,-24.089c-3.695,-7.763 -8.073,-15.088 -13.167,-21.989c-5.095,-6.917 -10.791,-13.281 -17.09,-19.108c-6.315,-5.81 -13.119,-10.986 -20.41,-15.495c-76.661,-48.372 -67.155,-124.82 -60.954,-151.611c73.421,-47.998 86.914,-101.172 99.837,-152.685Zm-278.76,141.438c-3.304,-63.313 4.183,-125.341 22.445,-186.051c23.73,20.996 45.459,43.913 65.169,68.717c19.727,24.805 37.126,51.14 52.246,79.004c-0.797,0.489 -1.562,0.993 -2.392,1.498c-48.731,19.466 -94.352,44.612 -136.833,75.439c-0.098,-12.939 -0.325,-25.862 -0.635,-38.607Zm-165.836,666.211c25.504,-64.29 7.845,-196.256 7.373,-264.632c-2.377,-107.601 105.176,-272.526 270.377,-357.78c-0.227,8.578 0.098,17.155 1.009,25.684c0.896,8.545 2.361,16.992 4.379,25.342c2.018,8.349 4.59,16.52 7.682,24.528c3.109,8.024 6.722,15.787 10.856,23.323c4.134,7.536 8.74,14.763 13.819,21.68c5.078,6.917 10.611,13.476 16.552,19.678c5.957,6.185 12.289,11.963 19.011,17.317c6.705,5.355 13.753,10.238 21.11,14.665c7.894,4.818 14.616,10.954 20.149,18.376c5.534,7.422 9.489,15.608 11.849,24.544c3.776,16.829 16.553,59.863 17.432,76.628c-125.911,-131.023 -351.758,-40.593 -351.449,142.415c-0.032,5.664 0.179,11.328 0.635,16.976c0.44,5.648 1.123,11.279 2.051,16.862c0.911,5.599 2.067,11.133 3.434,16.634c1.384,5.501 2.995,10.921 4.834,16.292c1.823,5.355 3.89,10.629 6.169,15.821c2.262,5.192 4.752,10.27 7.454,15.266c2.702,4.981 5.616,9.831 8.708,14.568c3.109,4.752 6.413,9.342 9.912,13.802c3.483,4.476 7.162,8.772 11.003,12.939c3.857,4.15 7.877,8.138 12.06,11.963c4.183,3.825 8.529,7.454 13.021,10.921c4.476,3.451 9.115,6.722 13.867,9.782c4.769,3.076 9.652,5.941 14.649,8.61c4.996,2.653 10.107,5.111 15.315,7.341c5.209,2.246 10.498,4.264 15.87,6.054c5.371,1.791 10.823,3.353 16.324,4.704c-9.993,25.944 -36.165,164.583 -43.099,194.19c-1.236,6.038 -2.864,11.946 -4.915,17.74c-2.034,5.811 -4.476,11.442 -7.292,16.911c-2.832,5.453 -6.022,10.694 -9.57,15.723c-3.548,5.013 -7.422,9.782 -11.637,14.258c-4.199,4.492 -8.708,8.659 -13.493,12.516c-4.785,3.874 -9.815,7.389 -15.088,10.547c-5.273,3.174 -10.742,5.957 -16.39,8.366c-5.664,2.409 -11.458,4.411 -17.399,6.022c-26.465,7.568 -53.418,12.207 -80.892,13.916c-27.458,1.709 -54.785,0.439 -81.982,-3.809c17.122,-107.568 42.561,-213.118 76.302,-316.683Z" style="fill:#3b3b4e;fill-rule:nonzero;"/></g><path d="M391.764,1606.67l-19.255,23.031c-1.334,1.579 -2.49,3.271 -3.483,5.078c-0.993,1.807 -1.806,3.695 -2.425,5.664c-0.618,1.969 -1.042,3.988 -1.269,6.038c-0.212,2.051 -0.245,4.102 -0.066,6.153c0.18,2.067 0.57,4.085 1.14,6.054c0.586,1.986 1.351,3.89 2.295,5.73c0.96,1.822 2.083,3.548 3.369,5.159c1.286,1.611 2.734,3.076 4.313,4.395c1.579,1.334 3.272,2.49 5.078,3.483c1.807,0.993 3.695,1.806 5.664,2.425c1.97,0.618 3.988,1.041 6.039,1.269c2.05,0.228 4.101,0.244 6.168,0.065c2.051,-0.179 4.069,-0.553 6.055,-1.139c1.969,-0.57 3.874,-1.335 5.713,-2.295c1.823,-0.944 3.548,-2.067 5.159,-3.369c1.612,-1.286 3.076,-2.718 4.411,-4.313l19.287,-23.014c1.335,-1.579 2.49,-3.272 3.467,-5.079c0.993,-1.822 1.807,-3.71 2.425,-5.68c0.619,-1.969 1.026,-3.971 1.253,-6.022c0.228,-2.051 0.245,-4.118 0.066,-6.169c-0.196,-2.05 -0.57,-4.069 -1.14,-6.054c-0.586,-1.97 -1.351,-3.874 -2.311,-5.713c-0.944,-1.823 -2.067,-3.548 -3.369,-5.16c-1.286,-1.611 -2.735,-3.076 -4.313,-4.394c-1.579,-1.335 -3.272,-2.49 -5.078,-3.483c-1.807,-0.993 -3.695,-1.791 -5.664,-2.409c-1.97,-0.619 -3.988,-1.042 -6.039,-1.27c-2.051,-0.228 -4.101,-0.244 -6.152,-0.065c-2.067,0.179 -4.086,0.554 -6.055,1.123c-1.986,0.586 -3.89,1.351 -5.729,2.295c-1.823,0.96 -3.548,2.083 -5.16,3.369c-1.611,1.286 -3.076,2.718 -4.394,4.297Z" style="fill:#3b3b4e;fill-rule:nonzero;"/></g></svg>