<?xml version="1.0" encoding="UTF-8" standalone="no"?><!DOCTYPE svg PUBLIC "-//W3C//DTD SVG 1.1//EN" "http://www.w3.org/Graphics/SVG/1.1/DTD/svg11.dtd"><svg width="100%" height="100%" viewBox="0 0 2783 3061" version="1.1" xmlns="http://www.w3.org/2000/svg" xmlns:xlink="http://www.w3.org/1999/xlink" xml:space="preserve" xmlns:serif="http://www.serif.com/" style="fill-rule:evenodd;clip-rule:evenodd;stroke-linejoin:round;stroke-miterlimit:2;"><g id="surface1"><path d="M1676.01,2367.94l-189.534,-65.853l598.356,-1580.88l145.182,50.439l-554.004,1596.29Z" style="fill:#7783b1;fill-rule:nonzero;"/><path d="M1620.91,2057.89c-60.987,-19.532 -110.563,-52.328 -114.893,-137.728l401.058,-1155.55c44.613,39.306 65.202,132.601 79.037,241.015l-365.202,1052.26Z" style="fill:#f0f1fe;fill-rule:nonzero;"/><path d="M1923.31,717.83l-16.227,46.778l79.037,241.032l211.328,-140.153l16.243,-46.778l-290.381,-100.879Z" style="fill:#7783b1;fill-rule:nonzero;"/><g><path d="M2328.01,19.002c-37.532,-14.127 -76.318,-20.377 -116.39,-18.75c-3.434,0.065 -6.852,0.456 -10.221,1.14c-3.369,0.699 -6.657,1.692 -9.847,2.978c-3.19,1.286 -6.234,2.848 -9.147,4.688c-2.914,1.839 -5.632,3.938 -8.155,6.266c-2.522,2.344 -4.834,4.883 -6.901,7.65c-2.067,2.75 -3.857,5.664 -5.403,8.74c-1.53,3.092 -2.784,6.282 -3.744,9.586c-0.96,3.304 -1.611,6.674 -1.953,10.108c-3.939,39.046 -5.225,75.472 -5.501,99.918c107.145,76.221 263.932,-4.785 208.691,-120.019c-9.375,-4.134 -19.759,-8.252 -31.429,-12.305Z" style="fill:#feb554;fill-rule:nonzero;"/></g><path d="M2191.45,736.743l-199.919,-69.45l159.636,-479.053l211.751,73.568l-171.468,474.935Z" style="fill:#332934;fill-rule:nonzero;"/><path d="M2373.89,792.733c-39.551,-31.413 -81.413,-59.375 -125.569,-83.887c-44.174,-24.495 -90.056,-45.215 -137.631,-62.126c-32.177,-10.774 -64.827,-19.791 -97.965,-27.018c-33.138,-7.243 -66.569,-12.679 -100.293,-16.292c-33.74,-3.614 -67.562,-5.404 -101.481,-5.355c-33.919,0.032 -67.741,1.921 -101.449,5.615c-3.239,0.358 -6.396,0.993 -9.521,1.888c-3.109,0.895 -6.12,2.067 -9.05,3.483c-2.913,1.416 -5.68,3.076 -8.317,4.981c-2.62,1.904 -5.078,4.004 -7.34,6.331c-2.263,2.311 -4.313,4.818 -6.153,7.487c-1.839,2.669 -3.434,5.485 -4.785,8.431c-1.351,2.962 -2.441,6.006 -3.255,9.131c-0.83,3.141 -1.383,6.331 -1.66,9.554l-7.552,87.793c-0.196,2.116 -0.13,4.215 0.179,6.315c0.309,2.1 0.846,4.134 1.627,6.104c0.798,1.969 1.791,3.824 3.011,5.566c1.221,1.725 2.621,3.304 4.216,4.704c1.595,1.399 3.32,2.604 5.192,3.613c1.872,0.993 3.825,1.758 5.876,2.295c2.067,0.537 4.15,0.83 6.266,0.879c2.116,0.049 4.215,-0.147 6.282,-0.602c186.361,-41.26 373.422,27.083 373.422,27.083c121.972,43.115 222.558,28.337 315.95,-5.973Z" style="fill:#feb554;fill-rule:nonzero;"/><path d="M2373.88,792.749c-72.461,-40.3 -149.203,-69.303 -230.208,-87.044c-3.304,-0.7 -6.641,-1.107 -10.026,-1.205c-3.37,-0.114 -6.739,0.098 -10.075,0.602c-3.353,0.505 -6.625,1.303 -9.815,2.393c-3.206,1.091 -6.282,2.474 -9.228,4.118c-2.946,1.66 -5.729,3.564 -8.334,5.713c-2.604,2.148 -4.996,4.525 -7.177,7.112c-2.181,2.588 -4.118,5.339 -5.795,8.285c-1.676,2.93 -3.076,5.989 -4.215,9.18l-20.068,57.096c13.802,4.704 193.05,67.904 309.016,210.124c1.351,1.627 2.881,3.06 4.574,4.329c1.693,1.27 3.516,2.328 5.453,3.158c1.936,0.846 3.955,1.448 6.038,1.806c2.083,0.375 4.183,0.489 6.299,0.358c2.116,-0.114 4.183,-0.488 6.201,-1.106c2.018,-0.603 3.955,-1.449 5.778,-2.507c1.839,-1.058 3.516,-2.327 5.045,-3.792c1.53,-1.449 2.881,-3.06 4.037,-4.834l48.421,-73.535c1.791,-2.686 3.32,-5.518 4.623,-8.48c1.285,-2.962 2.327,-6.022 3.092,-9.164c0.781,-3.141 1.27,-6.331 1.497,-9.554c0.228,-3.222 0.163,-6.445 -0.162,-9.668c-0.342,-3.206 -0.944,-6.38 -1.807,-9.489c-0.879,-3.108 -2.018,-6.136 -3.418,-9.049c-1.4,-2.913 -3.027,-5.697 -4.899,-8.333c-1.872,-2.637 -3.955,-5.095 -6.25,-7.373c-24.902,-24.512 -51.107,-47.559 -78.597,-69.141Z" style="fill:#f17b31;fill-rule:nonzero;"/><path d="M2443.68,151.261c1.855,-2.897 3.434,-5.94 4.72,-9.131c1.302,-3.19 2.295,-6.477 3.011,-9.847c0.7,-3.369 1.091,-6.77 1.172,-10.221c0.081,-3.434 -0.147,-6.868 -0.684,-10.27c-0.537,-3.402 -1.367,-6.722 -2.522,-9.977c-1.14,-3.239 -2.556,-6.364 -4.265,-9.359c-1.709,-2.979 -3.662,-5.794 -5.892,-8.431c-2.213,-2.637 -4.638,-5.046 -7.308,-7.243c-21.891,-18.75 -46.061,-33.903 -72.477,-45.443c-15.739,152.279 -165.544,129.769 -208.691,119.987c-0.228,23.064 0.423,36.914 0.423,36.914l211.751,73.568c29.378,-35.042 56.315,-71.891 80.762,-110.547Z" style="fill:#f17b31;fill-rule:nonzero;"/><path d="M1620.91,2057.89l-114.893,-137.761l-120.394,346.924l145.183,50.44l90.104,-259.603Z" style="fill:#7783b1;fill-rule:nonzero;"/><g><clipPath id="_clip1"><rect x="2338.8" y="2447.84" width="445.833" height="612.842"/></clipPath><g clip-path="url(#_clip1)"><path d="M2442.79,3060.68l-100.928,-235.807c-0,-0 56.087,-197.705 296.403,-374.04c-0,0 26.709,195.036 -69.434,371.371c19.564,0.683 39.014,-0.554 58.334,-3.711c19.319,-3.158 38.134,-8.171 56.461,-15.056c18.327,-6.868 35.808,-15.478 52.442,-25.813c16.634,-10.336 32.096,-22.185 46.386,-35.58c0,0 6.218,172.884 -103.499,279.492c-6.51,6.25 -13.558,11.833 -21.142,16.732c-7.585,4.899 -15.577,9.017 -23.959,12.37c-8.382,3.353 -16.992,5.875 -25.862,7.568c-8.871,1.693 -17.823,2.523 -26.856,2.474l-138.346,0Z" style="fill:#94a257;fill-rule:nonzero;"/></g></g><g><path d="M1482.88,2225.82l458.837,21.321c10.482,0.489 20.883,1.677 31.202,3.597c10.319,1.921 20.459,4.525 30.42,7.829c9.944,3.304 19.645,7.276 29.052,11.914c9.408,4.639 18.474,9.896 27.165,15.772c8.691,5.875 16.943,12.321 24.756,19.319c7.812,7.015 15.104,14.519 21.891,22.543c6.771,8.008 12.972,16.439 18.604,25.309c5.631,8.854 10.612,18.066 14.974,27.604l71.679,156.673c12.793,27.995 30.306,52.621 52.507,73.91l96.273,92.252c7.975,7.65 15.218,15.918 21.744,24.838c6.511,8.919 12.207,18.327 17.074,28.239c4.867,9.912 8.838,20.182 11.898,30.794c3.06,10.612 5.176,21.403 6.347,32.389l25.489,240.56l-391.52,0c-0,0 -490.072,-154.931 -568.392,-834.863Z" style="fill:#82789a;fill-rule:nonzero;"/></g><g><path d="M927.116,3060.68l-260.189,-377.36c0,0 89.779,-323.405 131.038,-602.962c0.538,-3.516 1.221,-7.015 2.068,-10.482c0.83,-3.467 1.822,-6.885 2.962,-10.254c1.155,-3.369 2.441,-6.689 3.89,-9.944c1.432,-3.256 3.011,-6.446 4.736,-9.571c1.725,-3.108 3.581,-6.152 5.583,-9.098c1.985,-2.962 4.101,-5.811 6.347,-8.578c2.263,-2.766 4.623,-5.419 7.113,-7.975c2.474,-2.555 5.062,-4.997 7.764,-7.324c2.702,-2.311 5.501,-4.508 8.398,-6.592c2.897,-2.067 5.876,-4.004 8.952,-5.81c3.076,-1.807 6.217,-3.483 9.424,-5.013c3.222,-1.514 6.494,-2.898 9.847,-4.135c3.336,-1.236 6.722,-2.327 10.156,-3.255c3.434,-0.944 6.917,-1.709 10.417,-2.343c3.499,-0.619 7.031,-1.091 10.579,-1.4c3.548,-0.309 7.097,-0.472 10.661,-0.456l304.476,0c9.456,0 18.896,0.553 28.304,1.66c9.391,1.107 18.701,2.767 27.897,4.964c9.212,2.214 18.262,4.948 27.132,8.22c8.887,3.255 17.562,7.031 25.993,11.312c8.447,4.297 16.602,9.049 24.496,14.306c7.877,5.241 15.429,10.922 22.639,17.058c7.211,6.136 14.047,12.662 20.492,19.596c6.445,6.934 12.467,14.225 18.05,21.859l203.125,277.588c11.507,15.706 24.919,29.573 40.235,41.601c15.332,12.012 31.982,21.745 49.983,29.167c10.759,4.411 21.208,9.456 31.364,15.12c10.14,5.648 19.922,11.898 29.346,18.718c9.407,6.819 18.392,14.176 26.92,22.054c8.545,7.894 16.586,16.259 24.138,25.097c7.552,8.838 14.551,18.099 20.996,27.767c6.445,9.668 12.305,19.694 17.578,30.062c5.257,10.368 9.88,21.013 13.884,31.934c4.003,10.905 7.34,22.021 10.026,33.333c27.034,114.974 77.766,281.283 167.285,431.136l-1124.11,0Z" style="fill:#c2b8d3;fill-rule:nonzero;"/></g><g><clipPath id="_clip2"><rect x="-2.865" y="2156.18" width="958.333" height="904.508"/></clipPath><g clip-path="url(#_clip2)"><path d="M131.836,3006.18c-17.367,-13.867 -33.333,-29.216 -47.9,-46.013c-14.551,-16.797 -27.474,-34.782 -38.737,-53.938c-11.263,-19.174 -20.704,-39.209 -28.288,-60.092c-7.601,-20.898 -13.233,-42.317 -16.911,-64.241c-0,-0 133.887,113.737 295.573,123.861c-0,-0 -237.468,-240.072 -118.734,-745.639c0,0 -7.584,449.919 303.141,599.04c45.801,22.201 87.907,50 126.303,83.415c-0,-0 -164.193,-166.83 -58.09,-487.793c-0.325,12.516 0.131,24.984 1.368,37.435c1.237,12.451 3.238,24.772 6.022,36.963c2.783,12.19 6.315,24.17 10.612,35.921c4.28,11.751 9.277,23.177 14.99,34.31c5.713,11.116 12.109,21.842 19.173,32.161c7.064,10.336 14.73,20.166 23.031,29.525c8.284,9.359 17.138,18.164 26.53,26.416c9.407,8.252 19.27,15.885 29.638,22.884c143.978,98.21 343.555,266.553 247.575,450.293l-638.33,0c-14.144,0.033 -28.19,-1.107 -42.139,-3.45c-13.948,-2.328 -27.604,-5.827 -40.966,-10.466c-13.363,-4.639 -26.254,-10.368 -38.64,-17.187c-12.402,-6.804 -24.137,-14.616 -35.221,-23.405Z" style="fill:#bdcd81;fill-rule:nonzero;"/></g></g><path d="M1046.14,2225.82c-0,2.246 -0.212,4.46 -0.651,6.64c-0.44,2.198 -1.075,4.33 -1.937,6.397c-0.847,2.067 -1.905,4.02 -3.142,5.876c-1.237,1.855 -2.653,3.58 -4.231,5.159c-1.579,1.579 -3.304,2.995 -5.16,4.232c-1.855,1.253 -3.808,2.295 -5.876,3.141c-2.067,0.863 -4.199,1.514 -6.38,1.953c-2.197,0.423 -4.411,0.651 -6.64,0.651c-2.23,0 -4.444,-0.228 -6.641,-0.651c-2.197,-0.439 -4.313,-1.09 -6.38,-1.953c-2.067,-0.846 -4.02,-1.888 -5.876,-3.141c-1.872,-1.237 -3.581,-2.653 -5.159,-4.232c-1.579,-1.579 -2.995,-3.304 -4.232,-5.159c-1.237,-1.856 -2.295,-3.809 -3.141,-5.876c-0.863,-2.067 -1.498,-4.199 -1.937,-6.397c-0.44,-2.18 -0.651,-4.394 -0.651,-6.64c-0,-2.23 0.211,-4.443 0.651,-6.641c0.439,-2.181 1.074,-4.313 1.937,-6.38c0.846,-2.067 1.904,-4.02 3.141,-5.892c1.237,-1.855 2.653,-3.564 4.232,-5.159c1.578,-1.579 3.287,-2.979 5.159,-4.232c1.856,-1.237 3.809,-2.279 5.876,-3.141c2.067,-0.847 4.183,-1.498 6.38,-1.937c2.197,-0.44 4.411,-0.651 6.641,-0.651c2.229,-0 4.443,0.211 6.64,0.651c2.181,0.439 4.313,1.09 6.38,1.937c2.068,0.862 4.021,1.904 5.876,3.141c1.856,1.253 3.581,2.653 5.16,4.232c1.578,1.595 2.994,3.304 4.231,5.159c1.237,1.872 2.295,3.825 3.142,5.892c0.862,2.067 1.497,4.199 1.937,6.38c0.439,2.198 0.651,4.411 0.651,6.641Z" style="fill:#82789a;fill-rule:nonzero;"/><path d="M1202.98,2336.42c-0,2.229 -0.228,4.443 -0.652,6.64c-0.439,2.181 -1.09,4.313 -1.936,6.38c-0.863,2.067 -1.905,4.021 -3.158,5.876c-1.237,1.872 -2.637,3.581 -4.232,5.16c-1.578,1.578 -3.287,2.994 -5.143,4.231c-1.855,1.254 -3.825,2.295 -5.892,3.158c-2.051,0.846 -4.183,1.497 -6.38,1.937c-2.181,0.439 -4.395,0.651 -6.641,0.651c-2.23,-0 -4.443,-0.212 -6.624,-0.651c-2.197,-0.44 -4.329,-1.091 -6.38,-1.937c-2.067,-0.863 -4.037,-1.904 -5.892,-3.158c-1.856,-1.237 -3.581,-2.653 -5.16,-4.231c-1.578,-1.579 -2.978,-3.288 -4.231,-5.16c-1.237,-1.855 -2.279,-3.809 -3.142,-5.876c-0.846,-2.067 -1.497,-4.199 -1.937,-6.38c-0.423,-2.197 -0.651,-4.411 -0.651,-6.64c0,-2.247 0.228,-4.46 0.651,-6.641c0.44,-2.197 1.091,-4.329 1.937,-6.397c0.863,-2.067 1.905,-4.02 3.142,-5.875c1.253,-1.872 2.653,-3.581 4.231,-5.16c1.579,-1.578 3.304,-2.994 5.16,-4.231c1.855,-1.254 3.825,-2.295 5.892,-3.158c2.051,-0.846 4.183,-1.497 6.38,-1.937c2.181,-0.423 4.394,-0.651 6.624,-0.651c2.246,0 4.46,0.228 6.641,0.651c2.197,0.44 4.329,1.091 6.38,1.937c2.067,0.863 4.037,1.904 5.892,3.158c1.856,1.237 3.565,2.653 5.143,4.231c1.595,1.579 2.995,3.288 4.232,5.16c1.253,1.855 2.295,3.808 3.158,5.875c0.846,2.068 1.497,4.2 1.936,6.397c0.424,2.181 0.652,4.394 0.652,6.641Z" style="fill:#82789a;fill-rule:nonzero;"/><path d="M1012.13,2426.42c-0,2.246 -0.212,4.46 -0.651,6.641c-0.44,2.197 -1.091,4.329 -1.937,6.396c-0.863,2.067 -1.905,4.02 -3.142,5.876c-1.253,1.855 -2.653,3.581 -4.231,5.159c-1.579,1.579 -3.304,2.995 -5.16,4.232c-1.855,1.253 -3.825,2.295 -5.875,3.158c-2.067,0.846 -4.2,1.497 -6.397,1.937c-2.181,0.423 -4.394,0.651 -6.624,0.651c-2.246,-0 -4.46,-0.228 -6.641,-0.651c-2.197,-0.44 -4.313,-1.091 -6.38,-1.937c-2.067,-0.863 -4.037,-1.905 -5.892,-3.158c-1.856,-1.237 -3.564,-2.653 -5.143,-4.232c-1.579,-1.578 -2.995,-3.304 -4.232,-5.159c-1.253,-1.856 -2.295,-3.809 -3.158,-5.876c-0.846,-2.067 -1.497,-4.199 -1.92,-6.396c-0.44,-2.181 -0.667,-4.395 -0.667,-6.641c-0,-2.23 0.227,-4.443 0.667,-6.641c0.423,-2.181 1.074,-4.313 1.92,-6.38c0.863,-2.067 1.905,-4.02 3.158,-5.892c1.237,-1.855 2.653,-3.564 4.232,-5.143c1.579,-1.595 3.287,-2.995 5.143,-4.248c1.855,-1.237 3.825,-2.279 5.892,-3.141c2.067,-0.847 4.183,-1.498 6.38,-1.937c2.181,-0.44 4.395,-0.651 6.641,-0.651c2.23,-0 4.443,0.211 6.624,0.651c2.197,0.439 4.33,1.09 6.397,1.937c2.05,0.862 4.02,1.904 5.875,3.141c1.856,1.253 3.581,2.653 5.16,4.248c1.578,1.579 2.978,3.288 4.231,5.143c1.237,1.872 2.279,3.825 3.142,5.892c0.846,2.067 1.497,4.199 1.937,6.38c0.439,2.198 0.651,4.411 0.651,6.641Z" style="fill:#82789a;fill-rule:nonzero;"/></g></svg>